<?xml version="1.0" encoding="UTF-8" standalone="no"?>
<svg xmlns="http://www.w3.org/2000/svg" xmlns:xlink="http://www.w3.org/1999/xlink" contentScriptType="application/ecmascript" contentStyleType="text/css" height="1049px" preserveAspectRatio="none" style="width:2526px;height:1049px;background:#FFFFFF;" version="1.1" viewBox="0 0 2526 1049" width="2526px" zoomAndPan="magnify"><defs><filter height="300%" id="f1jrduqxpnk0ze" width="300%" x="-1" y="-1"><feGaussianBlur result="blurOut" stdDeviation="2.0"/><feColorMatrix in="blurOut" result="blurOut2" type="matrix" values="0 0 0 0 0 0 0 0 0 0 0 0 0 0 0 0 0 0 .4 0"/><feOffset dx="4.0" dy="4.0" in="blurOut2" result="blurOut3"/><feBlend in="SourceGraphic" in2="blurOut3" mode="normal"/></filter></defs><g><!--MD5=[e9e2f49341507fe119d2a8719ccfe950]
cluster boards--><polygon fill="#DDDDDD" filter="url(#f1jrduqxpnk0ze)" points="16,6,78,6,85,28.2969,1351,28.2969,1351,940.5,16,940.5,16,6" style="stroke:#000000;stroke-width:1.5;"/><line style="stroke:#000000;stroke-width:1.5;" x1="16" x2="85" y1="28.2969" y2="28.2969"/><text fill="#000000" font-family="sans-serif" font-size="14" font-weight="bold" lengthAdjust="spacing" textLength="56" x="20" y="20.9951">boards</text><!--MD5=[c52f45833d539af9e29a9d34b8b7302b]
cluster utils--><polygon fill="#DDDDDD" filter="url(#f1jrduqxpnk0ze)" points="1509,464,1552,464,1559,486.2969,2509,486.2969,2509,915,1509,915,1509,464" style="stroke:#000000;stroke-width:1.5;"/><line style="stroke:#000000;stroke-width:1.5;" x1="1509" x2="1559" y1="486.2969" y2="486.2969"/><text fill="#000000" font-family="sans-serif" font-size="14" font-weight="bold" lengthAdjust="spacing" textLength="37" x="1513" y="478.9951">utils</text><!--MD5=[374b8b8aa3aab3f1819bbf292a762b3c]
class Validable--><rect codeLine="2" fill="#FEFECE" filter="url(#f1jrduqxpnk0ze)" height="60.8047" id="Validable" style="stroke:#A80036;stroke-width:1.5;" width="144" x="248" y="844.5"/><ellipse cx="289.1" cy="860.5" fill="#B4A7E5" rx="11" ry="11" style="stroke:#A80036;stroke-width:1.0;"/><path d="M290.0531,857.2813 L291.7719,857.2813 C292.1625,857.2813 292.35,857.25 292.475,857.1719 C292.7406,857.0156 292.8813,856.7344 292.8813,856.4375 C292.8813,856.1719 292.7719,855.9063 292.5375,855.7344 C292.3656,855.625 292.225,855.5938 291.7719,855.5938 L286.6313,855.5938 C286.1938,855.5938 286.0688,855.6094 285.9125,855.7031 C285.6625,855.8594 285.5063,856.1563 285.5063,856.4375 C285.5063,856.7188 285.6469,856.9688 285.8656,857.1406 C286.0219,857.25 286.2094,857.2813 286.6313,857.2813 L288.35,857.2813 L288.35,863.7969 L286.6313,863.7969 C286.1938,863.7969 286.0688,863.8125 285.9125,863.9219 C285.6625,864.0781 285.5063,864.3594 285.5063,864.6563 C285.5063,864.9063 285.6469,865.1719 285.8656,865.3281 C286.0219,865.4531 286.225,865.5 286.6313,865.5 L291.7719,865.5 C292.5219,865.5 292.8813,865.2188 292.8813,864.6563 C292.8813,864.375 292.7719,864.125 292.5375,863.9531 C292.3656,863.8281 292.225,863.7969 291.7719,863.7969 L290.0531,863.7969 L290.0531,857.2813 Z " fill="#000000"/><text fill="#000000" font-family="sans-serif" font-size="12" font-style="italic" lengthAdjust="spacing" textLength="54" x="308.9" y="864.6543">Validable</text><line style="stroke:#A80036;stroke-width:1.5;" x1="249" x2="391" y1="876.5" y2="876.5"/><line style="stroke:#A80036;stroke-width:1.5;" x1="249" x2="391" y1="884.5" y2="884.5"/><text fill="#000000" font-family="sans-serif" font-size="11" lengthAdjust="spacing" textLength="132" x="254" y="898.7104">public boolean isValid()</text><!--MD5=[c367c524f13260ba207946109d621584]
class Readable--><rect codeLine="6" fill="#FEFECE" filter="url(#f1jrduqxpnk0ze)" height="48" id="Readable" style="stroke:#A80036;stroke-width:1.5;" width="87" x="1050.5" y="505.5"/><ellipse cx="1065.5" cy="521.5" fill="#B4A7E5" rx="11" ry="11" style="stroke:#A80036;stroke-width:1.0;"/><path d="M1066.4531,518.2813 L1068.1719,518.2813 C1068.5625,518.2813 1068.75,518.25 1068.875,518.1719 C1069.1406,518.0156 1069.2813,517.7344 1069.2813,517.4375 C1069.2813,517.1719 1069.1719,516.9063 1068.9375,516.7344 C1068.7656,516.625 1068.625,516.5938 1068.1719,516.5938 L1063.0313,516.5938 C1062.5938,516.5938 1062.4688,516.6094 1062.3125,516.7031 C1062.0625,516.8594 1061.9063,517.1563 1061.9063,517.4375 C1061.9063,517.7188 1062.0469,517.9688 1062.2656,518.1406 C1062.4219,518.25 1062.6094,518.2813 1063.0313,518.2813 L1064.75,518.2813 L1064.75,524.7969 L1063.0313,524.7969 C1062.5938,524.7969 1062.4688,524.8125 1062.3125,524.9219 C1062.0625,525.0781 1061.9063,525.3594 1061.9063,525.6563 C1061.9063,525.9063 1062.0469,526.1719 1062.2656,526.3281 C1062.4219,526.4531 1062.625,526.5 1063.0313,526.5 L1068.1719,526.5 C1068.9219,526.5 1069.2813,526.2188 1069.2813,525.6563 C1069.2813,525.375 1069.1719,525.125 1068.9375,524.9531 C1068.7656,524.8281 1068.625,524.7969 1068.1719,524.7969 L1066.4531,524.7969 L1066.4531,518.2813 Z " fill="#000000"/><text fill="#000000" font-family="sans-serif" font-size="12" font-style="italic" lengthAdjust="spacing" textLength="55" x="1079.5" y="525.6543">Readable</text><line style="stroke:#A80036;stroke-width:1.5;" x1="1051.5" x2="1136.5" y1="537.5" y2="537.5"/><line style="stroke:#A80036;stroke-width:1.5;" x1="1051.5" x2="1136.5" y1="545.5" y2="545.5"/><!--MD5=[93f77cf1cd71031e7728e23fe162cbe1]
class Writable--><rect codeLine="10" fill="#FEFECE" filter="url(#f1jrduqxpnk0ze)" height="48" id="Writable" style="stroke:#A80036;stroke-width:1.5;" width="82" x="1253" y="205"/><ellipse cx="1268" cy="221" fill="#B4A7E5" rx="11" ry="11" style="stroke:#A80036;stroke-width:1.0;"/><path d="M1268.9531,217.7813 L1270.6719,217.7813 C1271.0625,217.7813 1271.25,217.75 1271.375,217.6719 C1271.6406,217.5156 1271.7813,217.2344 1271.7813,216.9375 C1271.7813,216.6719 1271.6719,216.4063 1271.4375,216.2344 C1271.2656,216.125 1271.125,216.0938 1270.6719,216.0938 L1265.5313,216.0938 C1265.0938,216.0938 1264.9688,216.1094 1264.8125,216.2031 C1264.5625,216.3594 1264.4063,216.6563 1264.4063,216.9375 C1264.4063,217.2188 1264.5469,217.4688 1264.7656,217.6406 C1264.9219,217.75 1265.1094,217.7813 1265.5313,217.7813 L1267.25,217.7813 L1267.25,224.2969 L1265.5313,224.2969 C1265.0938,224.2969 1264.9688,224.3125 1264.8125,224.4219 C1264.5625,224.5781 1264.4063,224.8594 1264.4063,225.1563 C1264.4063,225.4063 1264.5469,225.6719 1264.7656,225.8281 C1264.9219,225.9531 1265.125,226 1265.5313,226 L1270.6719,226 C1271.4219,226 1271.7813,225.7188 1271.7813,225.1563 C1271.7813,224.875 1271.6719,224.625 1271.4375,224.4531 C1271.2656,224.3281 1271.125,224.2969 1270.6719,224.2969 L1268.9531,224.2969 L1268.9531,217.7813 Z " fill="#000000"/><text fill="#000000" font-family="sans-serif" font-size="12" font-style="italic" lengthAdjust="spacing" textLength="50" x="1282" y="225.1543">Writable</text><line style="stroke:#A80036;stroke-width:1.5;" x1="1254" x2="1334" y1="237" y2="237"/><line style="stroke:#A80036;stroke-width:1.5;" x1="1254" x2="1334" y1="245" y2="245"/><!--MD5=[a40a7ac4b423335b0d34bf16cf36e547]
class Price--><rect codeLine="14" fill="#FEFECE" filter="url(#f1jrduqxpnk0ze)" height="73.6094" id="Price" style="stroke:#A80036;stroke-width:1.5;" width="144" x="427" y="662"/><ellipse cx="480.25" cy="678" fill="#ADD1B2" rx="11" ry="11" style="stroke:#A80036;stroke-width:1.0;"/><path d="M482.5938,673.6719 C481.6563,673.2344 481.0625,673.0938 480.1875,673.0938 C477.5625,673.0938 475.5625,675.1719 475.5625,677.8906 L475.5625,679.0156 C475.5625,681.5938 477.6719,683.4844 480.5625,683.4844 C481.7813,683.4844 482.9375,683.1875 483.6875,682.6406 C484.2656,682.2344 484.5938,681.7813 484.5938,681.3906 C484.5938,680.9375 484.2031,680.5469 483.7344,680.5469 C483.5156,680.5469 483.3125,680.625 483.125,680.8125 C482.6719,681.2969 482.6719,681.2969 482.4844,681.3906 C482.0625,681.6563 481.375,681.7813 480.6094,681.7813 C478.5625,681.7813 477.2656,680.6875 477.2656,678.9844 L477.2656,677.8906 C477.2656,676.1094 478.5156,674.7969 480.25,674.7969 C480.8281,674.7969 481.4375,674.9531 481.9063,675.2031 C482.3906,675.4844 482.5625,675.7031 482.6563,676.1094 C482.7188,676.5156 482.75,676.6406 482.8906,676.7656 C483.0313,676.9063 483.2656,677.0156 483.4844,677.0156 C483.75,677.0156 484.0156,676.875 484.1875,676.6563 C484.2969,676.5 484.3281,676.3125 484.3281,675.8906 L484.3281,674.4688 C484.3281,674.0313 484.3125,673.9063 484.2188,673.75 C484.0625,673.4844 483.7813,673.3438 483.4844,673.3438 C483.1875,673.3438 482.9844,673.4375 482.7656,673.75 L482.5938,673.6719 Z " fill="#000000"/><text fill="#000000" font-family="sans-serif" font-size="12" lengthAdjust="spacing" textLength="29" x="500.75" y="682.1543">Price</text><line style="stroke:#A80036;stroke-width:1.5;" x1="428" x2="570" y1="694" y2="694"/><text fill="#000000" font-family="sans-serif" font-size="11" lengthAdjust="spacing" textLength="94" x="433" y="708.2104">private int value</text><line style="stroke:#A80036;stroke-width:1.5;" x1="428" x2="570" y1="714.8047" y2="714.8047"/><text fill="#000000" font-family="sans-serif" font-size="11" lengthAdjust="spacing" textLength="132" x="433" y="729.0151">public boolean isValid()</text><!--MD5=[2770d511fa22a6a61bb54ccdb4cbf396]
class Amount--><rect codeLine="19" fill="#FEFECE" filter="url(#f1jrduqxpnk0ze)" height="73.6094" id="Amount" style="stroke:#A80036;stroke-width:1.5;" width="144" x="248" y="662"/><ellipse cx="293.25" cy="678" fill="#ADD1B2" rx="11" ry="11" style="stroke:#A80036;stroke-width:1.0;"/><path d="M295.5938,673.6719 C294.6563,673.2344 294.0625,673.0938 293.1875,673.0938 C290.5625,673.0938 288.5625,675.1719 288.5625,677.8906 L288.5625,679.0156 C288.5625,681.5938 290.6719,683.4844 293.5625,683.4844 C294.7813,683.4844 295.9375,683.1875 296.6875,682.6406 C297.2656,682.2344 297.5938,681.7813 297.5938,681.3906 C297.5938,680.9375 297.2031,680.5469 296.7344,680.5469 C296.5156,680.5469 296.3125,680.625 296.125,680.8125 C295.6719,681.2969 295.6719,681.2969 295.4844,681.3906 C295.0625,681.6563 294.375,681.7813 293.6094,681.7813 C291.5625,681.7813 290.2656,680.6875 290.2656,678.9844 L290.2656,677.8906 C290.2656,676.1094 291.5156,674.7969 293.25,674.7969 C293.8281,674.7969 294.4375,674.9531 294.9063,675.2031 C295.3906,675.4844 295.5625,675.7031 295.6563,676.1094 C295.7188,676.5156 295.75,676.6406 295.8906,676.7656 C296.0313,676.9063 296.2656,677.0156 296.4844,677.0156 C296.75,677.0156 297.0156,676.875 297.1875,676.6563 C297.2969,676.5 297.3281,676.3125 297.3281,675.8906 L297.3281,674.4688 C297.3281,674.0313 297.3125,673.9063 297.2188,673.75 C297.0625,673.4844 296.7813,673.3438 296.4844,673.3438 C296.1875,673.3438 295.9844,673.4375 295.7656,673.75 L295.5938,673.6719 Z " fill="#000000"/><text fill="#000000" font-family="sans-serif" font-size="12" lengthAdjust="spacing" textLength="45" x="313.75" y="682.1543">Amount</text><line style="stroke:#A80036;stroke-width:1.5;" x1="249" x2="391" y1="694" y2="694"/><text fill="#000000" font-family="sans-serif" font-size="11" lengthAdjust="spacing" textLength="93" x="254" y="708.2104">Private int value</text><line style="stroke:#A80036;stroke-width:1.5;" x1="249" x2="391" y1="714.8047" y2="714.8047"/><text fill="#000000" font-family="sans-serif" font-size="11" lengthAdjust="spacing" textLength="132" x="254" y="729.0151">public boolean isValid()</text><!--MD5=[798b653493d2d1d93374769a27a9ba0c]
class Dimension--><rect codeLine="24" fill="#FEFECE" filter="url(#f1jrduqxpnk0ze)" height="73.6094" id="Dimension" style="stroke:#A80036;stroke-width:1.5;" width="144" x="606" y="662"/><ellipse cx="643.05" cy="678" fill="#ADD1B2" rx="11" ry="11" style="stroke:#A80036;stroke-width:1.0;"/><path d="M645.3938,673.6719 C644.4563,673.2344 643.8625,673.0938 642.9875,673.0938 C640.3625,673.0938 638.3625,675.1719 638.3625,677.8906 L638.3625,679.0156 C638.3625,681.5938 640.4719,683.4844 643.3625,683.4844 C644.5813,683.4844 645.7375,683.1875 646.4875,682.6406 C647.0656,682.2344 647.3938,681.7813 647.3938,681.3906 C647.3938,680.9375 647.0031,680.5469 646.5344,680.5469 C646.3156,680.5469 646.1125,680.625 645.925,680.8125 C645.4719,681.2969 645.4719,681.2969 645.2844,681.3906 C644.8625,681.6563 644.175,681.7813 643.4094,681.7813 C641.3625,681.7813 640.0656,680.6875 640.0656,678.9844 L640.0656,677.8906 C640.0656,676.1094 641.3156,674.7969 643.05,674.7969 C643.6281,674.7969 644.2375,674.9531 644.7063,675.2031 C645.1906,675.4844 645.3625,675.7031 645.4563,676.1094 C645.5188,676.5156 645.55,676.6406 645.6906,676.7656 C645.8313,676.9063 646.0656,677.0156 646.2844,677.0156 C646.55,677.0156 646.8156,676.875 646.9875,676.6563 C647.0969,676.5 647.1281,676.3125 647.1281,675.8906 L647.1281,674.4688 C647.1281,674.0313 647.1125,673.9063 647.0188,673.75 C646.8625,673.4844 646.5813,673.3438 646.2844,673.3438 C645.9875,673.3438 645.7844,673.4375 645.5656,673.75 L645.3938,673.6719 Z " fill="#000000"/><text fill="#000000" font-family="sans-serif" font-size="12" lengthAdjust="spacing" textLength="63" x="661.95" y="682.1543">Dimension</text><line style="stroke:#A80036;stroke-width:1.5;" x1="607" x2="749" y1="694" y2="694"/><text fill="#000000" font-family="sans-serif" font-size="11" lengthAdjust="spacing" textLength="94" x="612" y="708.2104">private int value</text><line style="stroke:#A80036;stroke-width:1.5;" x1="607" x2="749" y1="714.8047" y2="714.8047"/><text fill="#000000" font-family="sans-serif" font-size="11" lengthAdjust="spacing" textLength="132" x="612" y="729.0151">public boolean isValid()</text><!--MD5=[129471aa5ea5c93eb409af5033b83b34]
class Polygon--><rect codeLine="29" fill="#FEFECE" filter="url(#f1jrduqxpnk0ze)" height="86.4141" id="Polygon" style="stroke:#A80036;stroke-width:1.5;" width="263" x="646.5" y="486.5"/><ellipse cx="750.25" cy="502.5" fill="#A9DCDF" rx="11" ry="11" style="stroke:#A80036;stroke-width:1.0;"/><path d="M752.3281,504.3125 L752.7188,505.2969 L752.3281,505.2969 C751.875,505.2969 751.7656,505.3125 751.6094,505.4219 C751.3594,505.5781 751.2031,505.8594 751.2031,506.1563 C751.2031,506.4219 751.3438,506.6719 751.5625,506.8281 C751.7031,506.9531 751.9063,507 752.3281,507 L754.6875,507 C755.0469,507 755.2656,506.9688 755.4063,506.875 C755.6563,506.7344 755.8125,506.4375 755.8125,506.1563 C755.8125,505.875 755.6719,505.625 755.4531,505.4688 C755.2813,505.3281 755.125,505.2969 754.6563,505.2969 L751.2656,497.0938 L747.5938,497.0938 C747.1406,497.0938 747.0156,497.1094 746.8594,497.2031 C746.6094,497.375 746.4531,497.6563 746.4531,497.9375 C746.4531,498.2188 746.5938,498.4688 746.8125,498.6406 C746.9844,498.75 747.1563,498.7813 747.5938,498.7813 L748.6719,498.7813 L746.0313,505.2969 C745.6094,505.2969 745.4531,505.3125 745.2969,505.4219 C745.0469,505.5781 744.8906,505.8594 744.8906,506.1563 C744.8906,506.7188 745.2656,507 746.0156,507 L748.2813,507 C748.6406,507 748.8594,506.9688 748.9844,506.875 C749.25,506.7344 749.3906,506.4375 749.3906,506.1563 C749.3906,505.875 749.2656,505.625 749.0469,505.4531 C748.875,505.3281 748.7344,505.2969 748.2813,505.2969 L747.8906,505.2969 L748.2813,504.3125 L752.3281,504.3125 Z M751.625,502.6094 L748.9531,502.6094 L750.2969,499.3438 L751.625,502.6094 Z " fill="#000000"/><text fill="#000000" font-family="sans-serif" font-size="12" font-style="italic" lengthAdjust="spacing" textLength="47" x="770.75" y="506.6543">Polygon</text><line style="stroke:#A80036;stroke-width:1.5;" x1="647.5" x2="908.5" y1="518.5" y2="518.5"/><text fill="#000000" font-family="sans-serif" font-size="11" lengthAdjust="spacing" textLength="176" x="652.5" y="532.7104">private ArrayList&lt;Point&gt; points</text><line style="stroke:#A80036;stroke-width:1.5;" x1="647.5" x2="908.5" y1="539.3047" y2="539.3047"/><text fill="#000000" font-family="sans-serif" font-size="11" lengthAdjust="spacing" textLength="251" x="652.5" y="553.5151">public boolean fitsInBoard(BoardData board)</text><text fill="#000000" font-family="sans-serif" font-size="11" lengthAdjust="spacing" textLength="199" x="652.5" y="566.3198">public boolean overlaps(Polygon p)</text><!--MD5=[152b1c1d10c7c417b82d898be81492c7]
class AnyPolygon--><rect codeLine="35" fill="#FEFECE" filter="url(#f1jrduqxpnk0ze)" height="48" id="AnyPolygon" style="stroke:#A80036;stroke-width:1.5;" width="101" x="738.5" y="340"/><ellipse cx="753.5" cy="356" fill="#ADD1B2" rx="11" ry="11" style="stroke:#A80036;stroke-width:1.0;"/><path d="M755.8438,351.6719 C754.9063,351.2344 754.3125,351.0938 753.4375,351.0938 C750.8125,351.0938 748.8125,353.1719 748.8125,355.8906 L748.8125,357.0156 C748.8125,359.5938 750.9219,361.4844 753.8125,361.4844 C755.0313,361.4844 756.1875,361.1875 756.9375,360.6406 C757.5156,360.2344 757.8438,359.7813 757.8438,359.3906 C757.8438,358.9375 757.4531,358.5469 756.9844,358.5469 C756.7656,358.5469 756.5625,358.625 756.375,358.8125 C755.9219,359.2969 755.9219,359.2969 755.7344,359.3906 C755.3125,359.6563 754.625,359.7813 753.8594,359.7813 C751.8125,359.7813 750.5156,358.6875 750.5156,356.9844 L750.5156,355.8906 C750.5156,354.1094 751.7656,352.7969 753.5,352.7969 C754.0781,352.7969 754.6875,352.9531 755.1563,353.2031 C755.6406,353.4844 755.8125,353.7031 755.9063,354.1094 C755.9688,354.5156 756,354.6406 756.1406,354.7656 C756.2813,354.9063 756.5156,355.0156 756.7344,355.0156 C757,355.0156 757.2656,354.875 757.4375,354.6563 C757.5469,354.5 757.5781,354.3125 757.5781,353.8906 L757.5781,352.4688 C757.5781,352.0313 757.5625,351.9063 757.4688,351.75 C757.3125,351.4844 757.0313,351.3438 756.7344,351.3438 C756.4375,351.3438 756.2344,351.4375 756.0156,351.75 L755.8438,351.6719 Z " fill="#000000"/><text fill="#000000" font-family="sans-serif" font-size="12" lengthAdjust="spacing" textLength="69" x="767.5" y="360.1543">AnyPolygon</text><line style="stroke:#A80036;stroke-width:1.5;" x1="739.5" x2="838.5" y1="372" y2="372"/><line style="stroke:#A80036;stroke-width:1.5;" x1="739.5" x2="838.5" y1="380" y2="380"/><!--MD5=[b5313cd49da22b0744b541f414f8445e]
class Rectangle--><rect codeLine="39" fill="#FEFECE" filter="url(#f1jrduqxpnk0ze)" height="48" id="Rectangle" style="stroke:#A80036;stroke-width:1.5;" width="91" x="612.5" y="340"/><ellipse cx="627.5" cy="356" fill="#ADD1B2" rx="11" ry="11" style="stroke:#A80036;stroke-width:1.0;"/><path d="M629.8438,351.6719 C628.9063,351.2344 628.3125,351.0938 627.4375,351.0938 C624.8125,351.0938 622.8125,353.1719 622.8125,355.8906 L622.8125,357.0156 C622.8125,359.5938 624.9219,361.4844 627.8125,361.4844 C629.0313,361.4844 630.1875,361.1875 630.9375,360.6406 C631.5156,360.2344 631.8438,359.7813 631.8438,359.3906 C631.8438,358.9375 631.4531,358.5469 630.9844,358.5469 C630.7656,358.5469 630.5625,358.625 630.375,358.8125 C629.9219,359.2969 629.9219,359.2969 629.7344,359.3906 C629.3125,359.6563 628.625,359.7813 627.8594,359.7813 C625.8125,359.7813 624.5156,358.6875 624.5156,356.9844 L624.5156,355.8906 C624.5156,354.1094 625.7656,352.7969 627.5,352.7969 C628.0781,352.7969 628.6875,352.9531 629.1563,353.2031 C629.6406,353.4844 629.8125,353.7031 629.9063,354.1094 C629.9688,354.5156 630,354.6406 630.1406,354.7656 C630.2813,354.9063 630.5156,355.0156 630.7344,355.0156 C631,355.0156 631.2656,354.875 631.4375,354.6563 C631.5469,354.5 631.5781,354.3125 631.5781,353.8906 L631.5781,352.4688 C631.5781,352.0313 631.5625,351.9063 631.4688,351.75 C631.3125,351.4844 631.0313,351.3438 630.7344,351.3438 C630.4375,351.3438 630.2344,351.4375 630.0156,351.75 L629.8438,351.6719 Z " fill="#000000"/><text fill="#000000" font-family="sans-serif" font-size="12" lengthAdjust="spacing" textLength="59" x="641.5" y="360.1543">Rectangle</text><line style="stroke:#A80036;stroke-width:1.5;" x1="613.5" x2="702.5" y1="372" y2="372"/><line style="stroke:#A80036;stroke-width:1.5;" x1="613.5" x2="702.5" y1="380" y2="380"/><!--MD5=[972bde5337b4335dd91fa5354c932445]
class Point--><rect codeLine="43" fill="#FEFECE" filter="url(#f1jrduqxpnk0ze)" height="86.4141" id="Point" style="stroke:#A80036;stroke-width:1.5;" width="255" x="946.5" y="656"/><ellipse cx="1055.75" cy="672" fill="#ADD1B2" rx="11" ry="11" style="stroke:#A80036;stroke-width:1.0;"/><path d="M1058.0938,667.6719 C1057.1563,667.2344 1056.5625,667.0938 1055.6875,667.0938 C1053.0625,667.0938 1051.0625,669.1719 1051.0625,671.8906 L1051.0625,673.0156 C1051.0625,675.5938 1053.1719,677.4844 1056.0625,677.4844 C1057.2813,677.4844 1058.4375,677.1875 1059.1875,676.6406 C1059.7656,676.2344 1060.0938,675.7813 1060.0938,675.3906 C1060.0938,674.9375 1059.7031,674.5469 1059.2344,674.5469 C1059.0156,674.5469 1058.8125,674.625 1058.625,674.8125 C1058.1719,675.2969 1058.1719,675.2969 1057.9844,675.3906 C1057.5625,675.6563 1056.875,675.7813 1056.1094,675.7813 C1054.0625,675.7813 1052.7656,674.6875 1052.7656,672.9844 L1052.7656,671.8906 C1052.7656,670.1094 1054.0156,668.7969 1055.75,668.7969 C1056.3281,668.7969 1056.9375,668.9531 1057.4063,669.2031 C1057.8906,669.4844 1058.0625,669.7031 1058.1563,670.1094 C1058.2188,670.5156 1058.25,670.6406 1058.3906,670.7656 C1058.5313,670.9063 1058.7656,671.0156 1058.9844,671.0156 C1059.25,671.0156 1059.5156,670.875 1059.6875,670.6563 C1059.7969,670.5 1059.8281,670.3125 1059.8281,669.8906 L1059.8281,668.4688 C1059.8281,668.0313 1059.8125,667.9063 1059.7188,667.75 C1059.5625,667.4844 1059.2813,667.3438 1058.9844,667.3438 C1058.6875,667.3438 1058.4844,667.4375 1058.2656,667.75 L1058.0938,667.6719 Z " fill="#000000"/><text fill="#000000" font-family="sans-serif" font-size="12" lengthAdjust="spacing" textLength="28" x="1076.25" y="676.1543">Point</text><line style="stroke:#A80036;stroke-width:1.5;" x1="947.5" x2="1200.5" y1="688" y2="688"/><text fill="#000000" font-family="sans-serif" font-size="11" lengthAdjust="spacing" textLength="69" x="952.5" y="702.2104">private int x</text><text fill="#000000" font-family="sans-serif" font-size="11" lengthAdjust="spacing" textLength="69" x="952.5" y="715.0151">private int y</text><line style="stroke:#A80036;stroke-width:1.5;" x1="947.5" x2="1200.5" y1="721.6094" y2="721.6094"/><text fill="#000000" font-family="sans-serif" font-size="11" lengthAdjust="spacing" textLength="243" x="952.5" y="735.8198">public boolean isInBoard(BoardData board)</text><!--MD5=[18eee71c88ab61f27581b8cbdd3ef5ee]
class Color--><rect codeLine="49" fill="#FEFECE" filter="url(#f1jrduqxpnk0ze)" height="99.2188" id="Color" style="stroke:#A80036;stroke-width:1.5;" width="126" x="785" y="825.5"/><ellipse cx="827.9" cy="841.5" fill="#ADD1B2" rx="11" ry="11" style="stroke:#A80036;stroke-width:1.0;"/><path d="M830.2438,837.1719 C829.3063,836.7344 828.7125,836.5938 827.8375,836.5938 C825.2125,836.5938 823.2125,838.6719 823.2125,841.3906 L823.2125,842.5156 C823.2125,845.0938 825.3219,846.9844 828.2125,846.9844 C829.4313,846.9844 830.5875,846.6875 831.3375,846.1406 C831.9156,845.7344 832.2438,845.2813 832.2438,844.8906 C832.2438,844.4375 831.8531,844.0469 831.3844,844.0469 C831.1656,844.0469 830.9625,844.125 830.775,844.3125 C830.3219,844.7969 830.3219,844.7969 830.1344,844.8906 C829.7125,845.1563 829.025,845.2813 828.2594,845.2813 C826.2125,845.2813 824.9156,844.1875 824.9156,842.4844 L824.9156,841.3906 C824.9156,839.6094 826.1656,838.2969 827.9,838.2969 C828.4781,838.2969 829.0875,838.4531 829.5563,838.7031 C830.0406,838.9844 830.2125,839.2031 830.3063,839.6094 C830.3688,840.0156 830.4,840.1406 830.5406,840.2656 C830.6813,840.4063 830.9156,840.5156 831.1344,840.5156 C831.4,840.5156 831.6656,840.375 831.8375,840.1563 C831.9469,840 831.9781,839.8125 831.9781,839.3906 L831.9781,837.9688 C831.9781,837.5313 831.9625,837.4063 831.8688,837.25 C831.7125,836.9844 831.4313,836.8438 831.1344,836.8438 C830.8375,836.8438 830.6344,836.9375 830.4156,837.25 L830.2438,837.1719 Z " fill="#000000"/><text fill="#000000" font-family="sans-serif" font-size="12" lengthAdjust="spacing" textLength="32" x="848.1" y="845.6543">Color</text><line style="stroke:#A80036;stroke-width:1.5;" x1="786" x2="910" y1="857.5" y2="857.5"/><text fill="#000000" font-family="sans-serif" font-size="11" lengthAdjust="spacing" textLength="66" x="791" y="871.7104">private int r</text><text fill="#000000" font-family="sans-serif" font-size="11" lengthAdjust="spacing" textLength="69" x="791" y="884.5151">private int g</text><text fill="#000000" font-family="sans-serif" font-size="11" lengthAdjust="spacing" textLength="69" x="791" y="897.3198">private int b</text><text fill="#000000" font-family="sans-serif" font-size="11" lengthAdjust="spacing" textLength="114" x="791" y="910.1245">private String name</text><line style="stroke:#A80036;stroke-width:1.5;" x1="786" x2="910" y1="916.7188" y2="916.7188"/><!--MD5=[7829b64950ce38e0487c4015ea331f97]
class Date--><rect codeLine="56" fill="#FEFECE" filter="url(#f1jrduqxpnk0ze)" height="99.2188" id="Date" style="stroke:#A80036;stroke-width:1.5;" width="144" x="69" y="649.5"/><ellipse cx="122.75" cy="665.5" fill="#ADD1B2" rx="11" ry="11" style="stroke:#A80036;stroke-width:1.0;"/><path d="M125.0938,661.1719 C124.1563,660.7344 123.5625,660.5938 122.6875,660.5938 C120.0625,660.5938 118.0625,662.6719 118.0625,665.3906 L118.0625,666.5156 C118.0625,669.0938 120.1719,670.9844 123.0625,670.9844 C124.2813,670.9844 125.4375,670.6875 126.1875,670.1406 C126.7656,669.7344 127.0938,669.2813 127.0938,668.8906 C127.0938,668.4375 126.7031,668.0469 126.2344,668.0469 C126.0156,668.0469 125.8125,668.125 125.625,668.3125 C125.1719,668.7969 125.1719,668.7969 124.9844,668.8906 C124.5625,669.1563 123.875,669.2813 123.1094,669.2813 C121.0625,669.2813 119.7656,668.1875 119.7656,666.4844 L119.7656,665.3906 C119.7656,663.6094 121.0156,662.2969 122.75,662.2969 C123.3281,662.2969 123.9375,662.4531 124.4063,662.7031 C124.8906,662.9844 125.0625,663.2031 125.1563,663.6094 C125.2188,664.0156 125.25,664.1406 125.3906,664.2656 C125.5313,664.4063 125.7656,664.5156 125.9844,664.5156 C126.25,664.5156 126.5156,664.375 126.6875,664.1563 C126.7969,664 126.8281,663.8125 126.8281,663.3906 L126.8281,661.9688 C126.8281,661.5313 126.8125,661.4063 126.7188,661.25 C126.5625,660.9844 126.2813,660.8438 125.9844,660.8438 C125.6875,660.8438 125.4844,660.9375 125.2656,661.25 L125.0938,661.1719 Z " fill="#000000"/><text fill="#000000" font-family="sans-serif" font-size="12" lengthAdjust="spacing" textLength="28" x="143.25" y="669.6543">Date</text><line style="stroke:#A80036;stroke-width:1.5;" x1="70" x2="212" y1="681.5" y2="681.5"/><text fill="#000000" font-family="sans-serif" font-size="11" lengthAdjust="spacing" textLength="83" x="75" y="695.7104">private int day</text><text fill="#000000" font-family="sans-serif" font-size="11" lengthAdjust="spacing" textLength="98" x="75" y="708.5151">private int month</text><text fill="#000000" font-family="sans-serif" font-size="11" lengthAdjust="spacing" textLength="88" x="75" y="721.3198">private int year</text><line style="stroke:#A80036;stroke-width:1.5;" x1="70" x2="212" y1="727.9141" y2="727.9141"/><text fill="#000000" font-family="sans-serif" font-size="11" lengthAdjust="spacing" textLength="132" x="75" y="742.1245">public boolean isValid()</text><!--MD5=[0909f770091320ea321e570d876c6ba8]
class BoardData--><rect codeLine="64" fill="#FEFECE" filter="url(#f1jrduqxpnk0ze)" height="86.4141" id="BoardData" style="stroke:#A80036;stroke-width:1.5;" width="204" x="397" y="486.5"/><ellipse cx="463.25" cy="502.5" fill="#A9DCDF" rx="11" ry="11" style="stroke:#A80036;stroke-width:1.0;"/><path d="M465.3281,504.3125 L465.7188,505.2969 L465.3281,505.2969 C464.875,505.2969 464.7656,505.3125 464.6094,505.4219 C464.3594,505.5781 464.2031,505.8594 464.2031,506.1563 C464.2031,506.4219 464.3438,506.6719 464.5625,506.8281 C464.7031,506.9531 464.9063,507 465.3281,507 L467.6875,507 C468.0469,507 468.2656,506.9688 468.4063,506.875 C468.6563,506.7344 468.8125,506.4375 468.8125,506.1563 C468.8125,505.875 468.6719,505.625 468.4531,505.4688 C468.2813,505.3281 468.125,505.2969 467.6563,505.2969 L464.2656,497.0938 L460.5938,497.0938 C460.1406,497.0938 460.0156,497.1094 459.8594,497.2031 C459.6094,497.375 459.4531,497.6563 459.4531,497.9375 C459.4531,498.2188 459.5938,498.4688 459.8125,498.6406 C459.9844,498.75 460.1563,498.7813 460.5938,498.7813 L461.6719,498.7813 L459.0313,505.2969 C458.6094,505.2969 458.4531,505.3125 458.2969,505.4219 C458.0469,505.5781 457.8906,505.8594 457.8906,506.1563 C457.8906,506.7188 458.2656,507 459.0156,507 L461.2813,507 C461.6406,507 461.8594,506.9688 461.9844,506.875 C462.25,506.7344 462.3906,506.4375 462.3906,506.1563 C462.3906,505.875 462.2656,505.625 462.0469,505.4531 C461.875,505.3281 461.7344,505.2969 461.2813,505.2969 L460.8906,505.2969 L461.2813,504.3125 L465.3281,504.3125 Z M464.625,502.6094 L461.9531,502.6094 L463.2969,499.3438 L464.625,502.6094 Z " fill="#000000"/><text fill="#000000" font-family="sans-serif" font-size="12" font-style="italic" lengthAdjust="spacing" textLength="63" x="483.75" y="506.6543">BoardData</text><line style="stroke:#A80036;stroke-width:1.5;" x1="398" x2="600" y1="518.5" y2="518.5"/><text fill="#000000" font-family="sans-serif" font-size="11" lengthAdjust="spacing" textLength="72" x="403" y="532.7104">private int id</text><text fill="#000000" font-family="sans-serif" font-size="11" lengthAdjust="spacing" textLength="192" x="403" y="545.5151">private ArrayList&lt;Validable&gt; listV</text><line style="stroke:#A80036;stroke-width:1.5;" x1="398" x2="600" y1="552.1094" y2="552.1094"/><text fill="#000000" font-family="sans-serif" font-size="11" lengthAdjust="spacing" textLength="136" x="403" y="566.3198">public boolean allValid()</text><!--MD5=[0f3f995994a5568d5424480c9ad436f1]
class SupplierBoard--><rect codeLine="70" fill="#FEFECE" filter="url(#f1jrduqxpnk0ze)" height="48" id="SupplierBoard" style="stroke:#A80036;stroke-width:1.5;" width="118" x="32" y="340"/><ellipse cx="47" cy="356" fill="#ADD1B2" rx="11" ry="11" style="stroke:#A80036;stroke-width:1.0;"/><path d="M49.3438,351.6719 C48.4063,351.2344 47.8125,351.0938 46.9375,351.0938 C44.3125,351.0938 42.3125,353.1719 42.3125,355.8906 L42.3125,357.0156 C42.3125,359.5938 44.4219,361.4844 47.3125,361.4844 C48.5313,361.4844 49.6875,361.1875 50.4375,360.6406 C51.0156,360.2344 51.3438,359.7813 51.3438,359.3906 C51.3438,358.9375 50.9531,358.5469 50.4844,358.5469 C50.2656,358.5469 50.0625,358.625 49.875,358.8125 C49.4219,359.2969 49.4219,359.2969 49.2344,359.3906 C48.8125,359.6563 48.125,359.7813 47.3594,359.7813 C45.3125,359.7813 44.0156,358.6875 44.0156,356.9844 L44.0156,355.8906 C44.0156,354.1094 45.2656,352.7969 47,352.7969 C47.5781,352.7969 48.1875,352.9531 48.6563,353.2031 C49.1406,353.4844 49.3125,353.7031 49.4063,354.1094 C49.4688,354.5156 49.5,354.6406 49.6406,354.7656 C49.7813,354.9063 50.0156,355.0156 50.2344,355.0156 C50.5,355.0156 50.7656,354.875 50.9375,354.6563 C51.0469,354.5 51.0781,354.3125 51.0781,353.8906 L51.0781,352.4688 C51.0781,352.0313 51.0625,351.9063 50.9688,351.75 C50.8125,351.4844 50.5313,351.3438 50.2344,351.3438 C49.9375,351.3438 49.7344,351.4375 49.5156,351.75 L49.3438,351.6719 Z " fill="#000000"/><text fill="#000000" font-family="sans-serif" font-size="12" lengthAdjust="spacing" textLength="86" x="61" y="360.1543">SupplierBoard</text><line style="stroke:#A80036;stroke-width:1.5;" x1="33" x2="149" y1="372" y2="372"/><line style="stroke:#A80036;stroke-width:1.5;" x1="33" x2="149" y1="380" y2="380"/><!--MD5=[b4a0c11f278bdcd3ad870fc614b4f14b]
class ClientBoard--><rect codeLine="74" fill="#FEFECE" filter="url(#f1jrduqxpnk0ze)" height="60.8047" id="ClientBoard" style="stroke:#A80036;stroke-width:1.5;" width="159" x="418.5" y="333.5"/><ellipse cx="459.6" cy="349.5" fill="#ADD1B2" rx="11" ry="11" style="stroke:#A80036;stroke-width:1.0;"/><path d="M461.9438,345.1719 C461.0063,344.7344 460.4125,344.5938 459.5375,344.5938 C456.9125,344.5938 454.9125,346.6719 454.9125,349.3906 L454.9125,350.5156 C454.9125,353.0938 457.0219,354.9844 459.9125,354.9844 C461.1313,354.9844 462.2875,354.6875 463.0375,354.1406 C463.6156,353.7344 463.9438,353.2813 463.9438,352.8906 C463.9438,352.4375 463.5531,352.0469 463.0844,352.0469 C462.8656,352.0469 462.6625,352.125 462.475,352.3125 C462.0219,352.7969 462.0219,352.7969 461.8344,352.8906 C461.4125,353.1563 460.725,353.2813 459.9594,353.2813 C457.9125,353.2813 456.6156,352.1875 456.6156,350.4844 L456.6156,349.3906 C456.6156,347.6094 457.8656,346.2969 459.6,346.2969 C460.1781,346.2969 460.7875,346.4531 461.2563,346.7031 C461.7406,346.9844 461.9125,347.2031 462.0063,347.6094 C462.0688,348.0156 462.1,348.1406 462.2406,348.2656 C462.3813,348.4063 462.6156,348.5156 462.8344,348.5156 C463.1,348.5156 463.3656,348.375 463.5375,348.1563 C463.6469,348 463.6781,347.8125 463.6781,347.3906 L463.6781,345.9688 C463.6781,345.5313 463.6625,345.4063 463.5688,345.25 C463.4125,344.9844 463.1313,344.8438 462.8344,344.8438 C462.5375,344.8438 462.3344,344.9375 462.1156,345.25 L461.9438,345.1719 Z " fill="#000000"/><text fill="#000000" font-family="sans-serif" font-size="12" lengthAdjust="spacing" textLength="69" x="479.4" y="353.6543">ClientBoard</text><line style="stroke:#A80036;stroke-width:1.5;" x1="419.5" x2="576.5" y1="365.5" y2="365.5"/><text fill="#000000" font-family="sans-serif" font-size="11" lengthAdjust="spacing" textLength="147" x="424.5" y="379.7104">private boolean validated</text><line style="stroke:#A80036;stroke-width:1.5;" x1="419.5" x2="576.5" y1="386.3047" y2="386.3047"/><!--MD5=[96adab746300ddb31058c1750a1a5f6d]
class Wood--><rect codeLine="78" fill="#FEFECE" filter="url(#f1jrduqxpnk0ze)" height="73.6094" id="Wood" style="stroke:#A80036;stroke-width:1.5;" width="126" x="785" y="662"/><ellipse cx="826.1" cy="678" fill="#ADD1B2" rx="11" ry="11" style="stroke:#A80036;stroke-width:1.0;"/><path d="M828.4438,673.6719 C827.5063,673.2344 826.9125,673.0938 826.0375,673.0938 C823.4125,673.0938 821.4125,675.1719 821.4125,677.8906 L821.4125,679.0156 C821.4125,681.5938 823.5219,683.4844 826.4125,683.4844 C827.6313,683.4844 828.7875,683.1875 829.5375,682.6406 C830.1156,682.2344 830.4438,681.7813 830.4438,681.3906 C830.4438,680.9375 830.0531,680.5469 829.5844,680.5469 C829.3656,680.5469 829.1625,680.625 828.975,680.8125 C828.5219,681.2969 828.5219,681.2969 828.3344,681.3906 C827.9125,681.6563 827.225,681.7813 826.4594,681.7813 C824.4125,681.7813 823.1156,680.6875 823.1156,678.9844 L823.1156,677.8906 C823.1156,676.1094 824.3656,674.7969 826.1,674.7969 C826.6781,674.7969 827.2875,674.9531 827.7563,675.2031 C828.2406,675.4844 828.4125,675.7031 828.5063,676.1094 C828.5688,676.5156 828.6,676.6406 828.7406,676.7656 C828.8813,676.9063 829.1156,677.0156 829.3344,677.0156 C829.6,677.0156 829.8656,676.875 830.0375,676.6563 C830.1469,676.5 830.1781,676.3125 830.1781,675.8906 L830.1781,674.4688 C830.1781,674.0313 830.1625,673.9063 830.0688,673.75 C829.9125,673.4844 829.6313,673.3438 829.3344,673.3438 C829.0375,673.3438 828.8344,673.4375 828.6156,673.75 L828.4438,673.6719 Z " fill="#000000"/><text fill="#000000" font-family="sans-serif" font-size="12" lengthAdjust="spacing" textLength="36" x="845.9" y="682.1543">Wood</text><line style="stroke:#A80036;stroke-width:1.5;" x1="786" x2="910" y1="694" y2="694"/><text fill="#000000" font-family="sans-serif" font-size="11" lengthAdjust="spacing" textLength="114" x="791" y="708.2104">private int durability</text><text fill="#000000" font-family="sans-serif" font-size="11" lengthAdjust="spacing" textLength="112" x="791" y="721.0151">private String origin</text><line style="stroke:#A80036;stroke-width:1.5;" x1="786" x2="910" y1="727.6094" y2="727.6094"/><!--MD5=[44201db48fb57df1a9c7f5b6b15426b0]
class Actor--><rect codeLine="83" fill="#FEFECE" filter="url(#f1jrduqxpnk0ze)" height="73.6094" id="Actor" style="stroke:#A80036;stroke-width:1.5;" width="225" x="874.5" y="327"/><ellipse cx="966.75" cy="343" fill="#A9DCDF" rx="11" ry="11" style="stroke:#A80036;stroke-width:1.0;"/><path d="M968.8281,344.8125 L969.2188,345.7969 L968.8281,345.7969 C968.375,345.7969 968.2656,345.8125 968.1094,345.9219 C967.8594,346.0781 967.7031,346.3594 967.7031,346.6563 C967.7031,346.9219 967.8438,347.1719 968.0625,347.3281 C968.2031,347.4531 968.4063,347.5 968.8281,347.5 L971.1875,347.5 C971.5469,347.5 971.7656,347.4688 971.9063,347.375 C972.1563,347.2344 972.3125,346.9375 972.3125,346.6563 C972.3125,346.375 972.1719,346.125 971.9531,345.9688 C971.7813,345.8281 971.625,345.7969 971.1563,345.7969 L967.7656,337.5938 L964.0938,337.5938 C963.6406,337.5938 963.5156,337.6094 963.3594,337.7031 C963.1094,337.875 962.9531,338.1563 962.9531,338.4375 C962.9531,338.7188 963.0938,338.9688 963.3125,339.1406 C963.4844,339.25 963.6563,339.2813 964.0938,339.2813 L965.1719,339.2813 L962.5313,345.7969 C962.1094,345.7969 961.9531,345.8125 961.7969,345.9219 C961.5469,346.0781 961.3906,346.3594 961.3906,346.6563 C961.3906,347.2188 961.7656,347.5 962.5156,347.5 L964.7813,347.5 C965.1406,347.5 965.3594,347.4688 965.4844,347.375 C965.75,347.2344 965.8906,346.9375 965.8906,346.6563 C965.8906,346.375 965.7656,346.125 965.5469,345.9531 C965.375,345.8281 965.2344,345.7969 964.7813,345.7969 L964.3906,345.7969 L964.7813,344.8125 L968.8281,344.8125 Z M968.125,343.1094 L965.4531,343.1094 L966.7969,339.8438 L968.125,343.1094 Z " fill="#000000"/><text fill="#000000" font-family="sans-serif" font-size="12" font-style="italic" lengthAdjust="spacing" textLength="32" x="987.25" y="347.1543">Actor</text><line style="stroke:#A80036;stroke-width:1.5;" x1="875.5" x2="1098.5" y1="359" y2="359"/><text fill="#000000" font-family="sans-serif" font-size="11" lengthAdjust="spacing" textLength="72" x="880.5" y="373.2104">private int id</text><text fill="#000000" font-family="sans-serif" font-size="11" lengthAdjust="spacing" textLength="213" x="880.5" y="386.0151">private ArrayList&lt;BoardData&gt; boards</text><line style="stroke:#A80036;stroke-width:1.5;" x1="875.5" x2="1098.5" y1="392.6094" y2="392.6094"/><!--MD5=[ed6624c6556d5e7b1bd23032162d20b7]
class Client--><rect codeLine="88" fill="#FEFECE" filter="url(#f1jrduqxpnk0ze)" height="60.8047" id="Client" style="stroke:#A80036;stroke-width:1.5;" width="191" x="412.5" y="198.5"/><ellipse cx="487.25" cy="214.5" fill="#ADD1B2" rx="11" ry="11" style="stroke:#A80036;stroke-width:1.0;"/><path d="M489.5938,210.1719 C488.6563,209.7344 488.0625,209.5938 487.1875,209.5938 C484.5625,209.5938 482.5625,211.6719 482.5625,214.3906 L482.5625,215.5156 C482.5625,218.0938 484.6719,219.9844 487.5625,219.9844 C488.7813,219.9844 489.9375,219.6875 490.6875,219.1406 C491.2656,218.7344 491.5938,218.2813 491.5938,217.8906 C491.5938,217.4375 491.2031,217.0469 490.7344,217.0469 C490.5156,217.0469 490.3125,217.125 490.125,217.3125 C489.6719,217.7969 489.6719,217.7969 489.4844,217.8906 C489.0625,218.1563 488.375,218.2813 487.6094,218.2813 C485.5625,218.2813 484.2656,217.1875 484.2656,215.4844 L484.2656,214.3906 C484.2656,212.6094 485.5156,211.2969 487.25,211.2969 C487.8281,211.2969 488.4375,211.4531 488.9063,211.7031 C489.3906,211.9844 489.5625,212.2031 489.6563,212.6094 C489.7188,213.0156 489.75,213.1406 489.8906,213.2656 C490.0313,213.4063 490.2656,213.5156 490.4844,213.5156 C490.75,213.5156 491.0156,213.375 491.1875,213.1563 C491.2969,213 491.3281,212.8125 491.3281,212.3906 L491.3281,210.9688 C491.3281,210.5313 491.3125,210.4063 491.2188,210.25 C491.0625,209.9844 490.7813,209.8438 490.4844,209.8438 C490.1875,209.8438 489.9844,209.9375 489.7656,210.25 L489.5938,210.1719 Z " fill="#000000"/><text fill="#000000" font-family="sans-serif" font-size="12" lengthAdjust="spacing" textLength="33" x="507.75" y="218.6543">Client</text><line style="stroke:#A80036;stroke-width:1.5;" x1="413.5" x2="602.5" y1="230.5" y2="230.5"/><line style="stroke:#A80036;stroke-width:1.5;" x1="413.5" x2="602.5" y1="238.5" y2="238.5"/><text fill="#000000" font-family="sans-serif" font-size="11" lengthAdjust="spacing" textLength="179" x="418.5" y="252.7104">public void validate(int boardId)</text><!--MD5=[6f6af049516bc56aac6e320b3234ce97]
class Supplier--><rect codeLine="93" fill="#FEFECE" filter="url(#f1jrduqxpnk0ze)" height="73.6094" id="Supplier" style="stroke:#A80036;stroke-width:1.5;" width="345" x="32.5" y="192"/><ellipse cx="175.75" cy="208" fill="#ADD1B2" rx="11" ry="11" style="stroke:#A80036;stroke-width:1.0;"/><path d="M178.0938,203.6719 C177.1563,203.2344 176.5625,203.0938 175.6875,203.0938 C173.0625,203.0938 171.0625,205.1719 171.0625,207.8906 L171.0625,209.0156 C171.0625,211.5938 173.1719,213.4844 176.0625,213.4844 C177.2813,213.4844 178.4375,213.1875 179.1875,212.6406 C179.7656,212.2344 180.0938,211.7813 180.0938,211.3906 C180.0938,210.9375 179.7031,210.5469 179.2344,210.5469 C179.0156,210.5469 178.8125,210.625 178.625,210.8125 C178.1719,211.2969 178.1719,211.2969 177.9844,211.3906 C177.5625,211.6563 176.875,211.7813 176.1094,211.7813 C174.0625,211.7813 172.7656,210.6875 172.7656,208.9844 L172.7656,207.8906 C172.7656,206.1094 174.0156,204.7969 175.75,204.7969 C176.3281,204.7969 176.9375,204.9531 177.4063,205.2031 C177.8906,205.4844 178.0625,205.7031 178.1563,206.1094 C178.2188,206.5156 178.25,206.6406 178.3906,206.7656 C178.5313,206.9063 178.7656,207.0156 178.9844,207.0156 C179.25,207.0156 179.5156,206.875 179.6875,206.6563 C179.7969,206.5 179.8281,206.3125 179.8281,205.8906 L179.8281,204.4688 C179.8281,204.0313 179.8125,203.9063 179.7188,203.75 C179.5625,203.4844 179.2813,203.3438 178.9844,203.3438 C178.6875,203.3438 178.4844,203.4375 178.2656,203.75 L178.0938,203.6719 Z " fill="#000000"/><text fill="#000000" font-family="sans-serif" font-size="12" lengthAdjust="spacing" textLength="50" x="196.25" y="212.1543">Supplier</text><line style="stroke:#A80036;stroke-width:1.5;" x1="33.5" x2="376.5" y1="224" y2="224"/><line style="stroke:#A80036;stroke-width:1.5;" x1="33.5" x2="376.5" y1="232" y2="232"/><text fill="#000000" font-family="sans-serif" font-size="11" lengthAdjust="spacing" textLength="333" x="38.5" y="246.2104">public ArrayList&lt;BoardData&gt; allValidBoards(ClientBoard b)</text><text fill="#000000" font-family="sans-serif" font-size="11" lengthAdjust="spacing" textLength="199" x="38.5" y="259.0151">public buy(BoardData b, Amount a)</text><!--MD5=[cf10e9aa00a725350261dad3f1642ccf]
class Cut--><rect codeLine="99" fill="#FEFECE" filter="url(#f1jrduqxpnk0ze)" height="73.6094" id="Cut" style="stroke:#A80036;stroke-width:1.5;" width="169" x="871.5" y="41"/><ellipse cx="942.25" cy="57" fill="#ADD1B2" rx="11" ry="11" style="stroke:#A80036;stroke-width:1.0;"/><path d="M944.5938,52.6719 C943.6563,52.2344 943.0625,52.0938 942.1875,52.0938 C939.5625,52.0938 937.5625,54.1719 937.5625,56.8906 L937.5625,58.0156 C937.5625,60.5938 939.6719,62.4844 942.5625,62.4844 C943.7813,62.4844 944.9375,62.1875 945.6875,61.6406 C946.2656,61.2344 946.5938,60.7813 946.5938,60.3906 C946.5938,59.9375 946.2031,59.5469 945.7344,59.5469 C945.5156,59.5469 945.3125,59.625 945.125,59.8125 C944.6719,60.2969 944.6719,60.2969 944.4844,60.3906 C944.0625,60.6563 943.375,60.7813 942.6094,60.7813 C940.5625,60.7813 939.2656,59.6875 939.2656,57.9844 L939.2656,56.8906 C939.2656,55.1094 940.5156,53.7969 942.25,53.7969 C942.8281,53.7969 943.4375,53.9531 943.9063,54.2031 C944.3906,54.4844 944.5625,54.7031 944.6563,55.1094 C944.7188,55.5156 944.75,55.6406 944.8906,55.7656 C945.0313,55.9063 945.2656,56.0156 945.4844,56.0156 C945.75,56.0156 946.0156,55.875 946.1875,55.6563 C946.2969,55.5 946.3281,55.3125 946.3281,54.8906 L946.3281,53.4688 C946.3281,53.0313 946.3125,52.9063 946.2188,52.75 C946.0625,52.4844 945.7813,52.3438 945.4844,52.3438 C945.1875,52.3438 944.9844,52.4375 944.7656,52.75 L944.5938,52.6719 Z " fill="#000000"/><text fill="#000000" font-family="sans-serif" font-size="12" lengthAdjust="spacing" textLength="19" x="962.75" y="61.1543">Cut</text><line style="stroke:#A80036;stroke-width:1.5;" x1="872.5" x2="1039.5" y1="73" y2="73"/><line style="stroke:#A80036;stroke-width:1.5;" x1="872.5" x2="1039.5" y1="81" y2="81"/><text fill="#000000" font-family="sans-serif" font-size="11" lengthAdjust="spacing" textLength="151" x="877.5" y="95.2104">public boolean isCutValid()</text><text fill="#000000" font-family="sans-serif" font-size="11" lengthAdjust="spacing" textLength="157" x="877.5" y="108.0151">public void export(Writer w)</text><!--MD5=[dc6a94c69625eadb7704d08d86596a8e]
class NotEnoughMoneyException--><rect codeLine="104" fill="#FEFECE" filter="url(#f1jrduqxpnk0ze)" height="48" id="NotEnoughMoneyException" style="stroke:#A80036;stroke-width:1.5;" width="195" x="638.5" y="205"/><ellipse cx="653.5" cy="221" fill="#ADD1B2" rx="11" ry="11" style="stroke:#A80036;stroke-width:1.0;"/><path d="M655.8438,216.6719 C654.9063,216.2344 654.3125,216.0938 653.4375,216.0938 C650.8125,216.0938 648.8125,218.1719 648.8125,220.8906 L648.8125,222.0156 C648.8125,224.5938 650.9219,226.4844 653.8125,226.4844 C655.0313,226.4844 656.1875,226.1875 656.9375,225.6406 C657.5156,225.2344 657.8438,224.7813 657.8438,224.3906 C657.8438,223.9375 657.4531,223.5469 656.9844,223.5469 C656.7656,223.5469 656.5625,223.625 656.375,223.8125 C655.9219,224.2969 655.9219,224.2969 655.7344,224.3906 C655.3125,224.6563 654.625,224.7813 653.8594,224.7813 C651.8125,224.7813 650.5156,223.6875 650.5156,221.9844 L650.5156,220.8906 C650.5156,219.1094 651.7656,217.7969 653.5,217.7969 C654.0781,217.7969 654.6875,217.9531 655.1563,218.2031 C655.6406,218.4844 655.8125,218.7031 655.9063,219.1094 C655.9688,219.5156 656,219.6406 656.1406,219.7656 C656.2813,219.9063 656.5156,220.0156 656.7344,220.0156 C657,220.0156 657.2656,219.875 657.4375,219.6563 C657.5469,219.5 657.5781,219.3125 657.5781,218.8906 L657.5781,217.4688 C657.5781,217.0313 657.5625,216.9063 657.4688,216.75 C657.3125,216.4844 657.0313,216.3438 656.7344,216.3438 C656.4375,216.3438 656.2344,216.4375 656.0156,216.75 L655.8438,216.6719 Z " fill="#000000"/><text fill="#000000" font-family="sans-serif" font-size="12" lengthAdjust="spacing" textLength="163" x="667.5" y="225.1543">NotEnoughMoneyException</text><line style="stroke:#A80036;stroke-width:1.5;" x1="639.5" x2="832.5" y1="237" y2="237"/><line style="stroke:#A80036;stroke-width:1.5;" x1="639.5" x2="832.5" y1="245" y2="245"/><!--MD5=[9033f2cdc5fc6d79e81a7c430598e96b]
class NotBigEnoughException--><rect codeLine="108" fill="#FEFECE" filter="url(#f1jrduqxpnk0ze)" height="48" id="NotBigEnoughException" style="stroke:#A80036;stroke-width:1.5;" width="174" x="869" y="205"/><ellipse cx="884" cy="221" fill="#ADD1B2" rx="11" ry="11" style="stroke:#A80036;stroke-width:1.0;"/><path d="M886.3438,216.6719 C885.4063,216.2344 884.8125,216.0938 883.9375,216.0938 C881.3125,216.0938 879.3125,218.1719 879.3125,220.8906 L879.3125,222.0156 C879.3125,224.5938 881.4219,226.4844 884.3125,226.4844 C885.5313,226.4844 886.6875,226.1875 887.4375,225.6406 C888.0156,225.2344 888.3438,224.7813 888.3438,224.3906 C888.3438,223.9375 887.9531,223.5469 887.4844,223.5469 C887.2656,223.5469 887.0625,223.625 886.875,223.8125 C886.4219,224.2969 886.4219,224.2969 886.2344,224.3906 C885.8125,224.6563 885.125,224.7813 884.3594,224.7813 C882.3125,224.7813 881.0156,223.6875 881.0156,221.9844 L881.0156,220.8906 C881.0156,219.1094 882.2656,217.7969 884,217.7969 C884.5781,217.7969 885.1875,217.9531 885.6563,218.2031 C886.1406,218.4844 886.3125,218.7031 886.4063,219.1094 C886.4688,219.5156 886.5,219.6406 886.6406,219.7656 C886.7813,219.9063 887.0156,220.0156 887.2344,220.0156 C887.5,220.0156 887.7656,219.875 887.9375,219.6563 C888.0469,219.5 888.0781,219.3125 888.0781,218.8906 L888.0781,217.4688 C888.0781,217.0313 888.0625,216.9063 887.9688,216.75 C887.8125,216.4844 887.5313,216.3438 887.2344,216.3438 C886.9375,216.3438 886.7344,216.4375 886.5156,216.75 L886.3438,216.6719 Z " fill="#000000"/><text fill="#000000" font-family="sans-serif" font-size="12" lengthAdjust="spacing" textLength="142" x="898" y="225.1543">NotBigEnoughException</text><line style="stroke:#A80036;stroke-width:1.5;" x1="870" x2="1042" y1="237" y2="237"/><line style="stroke:#A80036;stroke-width:1.5;" x1="870" x2="1042" y1="245" y2="245"/><!--MD5=[6b0f074ba29663085999a4f0319d63b9]
class NotEnoughBoardsException--><rect codeLine="112" fill="#FEFECE" filter="url(#f1jrduqxpnk0ze)" height="48" id="NotEnoughBoardsException" style="stroke:#A80036;stroke-width:1.5;" width="198" x="185" y="340"/><ellipse cx="200" cy="356" fill="#ADD1B2" rx="11" ry="11" style="stroke:#A80036;stroke-width:1.0;"/><path d="M202.3438,351.6719 C201.4063,351.2344 200.8125,351.0938 199.9375,351.0938 C197.3125,351.0938 195.3125,353.1719 195.3125,355.8906 L195.3125,357.0156 C195.3125,359.5938 197.4219,361.4844 200.3125,361.4844 C201.5313,361.4844 202.6875,361.1875 203.4375,360.6406 C204.0156,360.2344 204.3438,359.7813 204.3438,359.3906 C204.3438,358.9375 203.9531,358.5469 203.4844,358.5469 C203.2656,358.5469 203.0625,358.625 202.875,358.8125 C202.4219,359.2969 202.4219,359.2969 202.2344,359.3906 C201.8125,359.6563 201.125,359.7813 200.3594,359.7813 C198.3125,359.7813 197.0156,358.6875 197.0156,356.9844 L197.0156,355.8906 C197.0156,354.1094 198.2656,352.7969 200,352.7969 C200.5781,352.7969 201.1875,352.9531 201.6563,353.2031 C202.1406,353.4844 202.3125,353.7031 202.4063,354.1094 C202.4688,354.5156 202.5,354.6406 202.6406,354.7656 C202.7813,354.9063 203.0156,355.0156 203.2344,355.0156 C203.5,355.0156 203.7656,354.875 203.9375,354.6563 C204.0469,354.5 204.0781,354.3125 204.0781,353.8906 L204.0781,352.4688 C204.0781,352.0313 204.0625,351.9063 203.9688,351.75 C203.8125,351.4844 203.5313,351.3438 203.2344,351.3438 C202.9375,351.3438 202.7344,351.4375 202.5156,351.75 L202.3438,351.6719 Z " fill="#000000"/><text fill="#000000" font-family="sans-serif" font-size="12" lengthAdjust="spacing" textLength="166" x="214" y="360.1543">NotEnoughBoardsException</text><line style="stroke:#A80036;stroke-width:1.5;" x1="186" x2="382" y1="372" y2="372"/><line style="stroke:#A80036;stroke-width:1.5;" x1="186" x2="382" y1="380" y2="380"/><!--MD5=[7d6207cd9790425046b23a7d89f31aaf]
class TooLateException--><rect codeLine="116" fill="#FEFECE" filter="url(#f1jrduqxpnk0ze)" height="48" id="TooLateException" style="stroke:#A80036;stroke-width:1.5;" width="139" x="1078.5" y="205"/><ellipse cx="1093.5" cy="221" fill="#ADD1B2" rx="11" ry="11" style="stroke:#A80036;stroke-width:1.0;"/><path d="M1095.8438,216.6719 C1094.9063,216.2344 1094.3125,216.0938 1093.4375,216.0938 C1090.8125,216.0938 1088.8125,218.1719 1088.8125,220.8906 L1088.8125,222.0156 C1088.8125,224.5938 1090.9219,226.4844 1093.8125,226.4844 C1095.0313,226.4844 1096.1875,226.1875 1096.9375,225.6406 C1097.5156,225.2344 1097.8438,224.7813 1097.8438,224.3906 C1097.8438,223.9375 1097.4531,223.5469 1096.9844,223.5469 C1096.7656,223.5469 1096.5625,223.625 1096.375,223.8125 C1095.9219,224.2969 1095.9219,224.2969 1095.7344,224.3906 C1095.3125,224.6563 1094.625,224.7813 1093.8594,224.7813 C1091.8125,224.7813 1090.5156,223.6875 1090.5156,221.9844 L1090.5156,220.8906 C1090.5156,219.1094 1091.7656,217.7969 1093.5,217.7969 C1094.0781,217.7969 1094.6875,217.9531 1095.1563,218.2031 C1095.6406,218.4844 1095.8125,218.7031 1095.9063,219.1094 C1095.9688,219.5156 1096,219.6406 1096.1406,219.7656 C1096.2813,219.9063 1096.5156,220.0156 1096.7344,220.0156 C1097,220.0156 1097.2656,219.875 1097.4375,219.6563 C1097.5469,219.5 1097.5781,219.3125 1097.5781,218.8906 L1097.5781,217.4688 C1097.5781,217.0313 1097.5625,216.9063 1097.4688,216.75 C1097.3125,216.4844 1097.0313,216.3438 1096.7344,216.3438 C1096.4375,216.3438 1096.2344,216.4375 1096.0156,216.75 L1095.8438,216.6719 Z " fill="#000000"/><text fill="#000000" font-family="sans-serif" font-size="12" lengthAdjust="spacing" textLength="107" x="1107.5" y="225.1543">TooLateException</text><line style="stroke:#A80036;stroke-width:1.5;" x1="1079.5" x2="1216.5" y1="237" y2="237"/><line style="stroke:#A80036;stroke-width:1.5;" x1="1079.5" x2="1216.5" y1="245" y2="245"/><!--MD5=[e86a4777f2c0372cf9fb3cd047e1466e]
class Reader--><rect codeLine="127" fill="#FEFECE" filter="url(#f1jrduqxpnk0ze)" height="60.8047" id="Reader" style="stroke:#A80036;stroke-width:1.5;" width="116" x="1552" y="668.5"/><ellipse cx="1585.9" cy="684.5" fill="#B4A7E5" rx="11" ry="11" style="stroke:#A80036;stroke-width:1.0;"/><path d="M1586.8531,681.2813 L1588.5719,681.2813 C1588.9625,681.2813 1589.15,681.25 1589.275,681.1719 C1589.5406,681.0156 1589.6813,680.7344 1589.6813,680.4375 C1589.6813,680.1719 1589.5719,679.9063 1589.3375,679.7344 C1589.1656,679.625 1589.025,679.5938 1588.5719,679.5938 L1583.4313,679.5938 C1582.9938,679.5938 1582.8688,679.6094 1582.7125,679.7031 C1582.4625,679.8594 1582.3063,680.1563 1582.3063,680.4375 C1582.3063,680.7188 1582.4469,680.9688 1582.6656,681.1406 C1582.8219,681.25 1583.0094,681.2813 1583.4313,681.2813 L1585.15,681.2813 L1585.15,687.7969 L1583.4313,687.7969 C1582.9938,687.7969 1582.8688,687.8125 1582.7125,687.9219 C1582.4625,688.0781 1582.3063,688.3594 1582.3063,688.6563 C1582.3063,688.9063 1582.4469,689.1719 1582.6656,689.3281 C1582.8219,689.4531 1583.025,689.5 1583.4313,689.5 L1588.5719,689.5 C1589.3219,689.5 1589.6813,689.2188 1589.6813,688.6563 C1589.6813,688.375 1589.5719,688.125 1589.3375,687.9531 C1589.1656,687.8281 1589.025,687.7969 1588.5719,687.7969 L1586.8531,687.7969 L1586.8531,681.2813 Z " fill="#000000"/><text fill="#000000" font-family="sans-serif" font-size="12" font-style="italic" lengthAdjust="spacing" textLength="42" x="1604.1" y="688.6543">Reader</text><line style="stroke:#A80036;stroke-width:1.5;" x1="1553" x2="1667" y1="700.5" y2="700.5"/><line style="stroke:#A80036;stroke-width:1.5;" x1="1553" x2="1667" y1="708.5" y2="708.5"/><text fill="#000000" font-family="sans-serif" font-size="11" lengthAdjust="spacing" textLength="104" x="1558" y="722.7104">public Actor read()</text><!--MD5=[86cfdc25119a3a20e0664f11a0f5b002]
class Writer--><rect codeLine="131" fill="#FEFECE" filter="url(#f1jrduqxpnk0ze)" height="60.8047" id="Writer" style="stroke:#A80036;stroke-width:1.5;" width="113" x="2156.5" y="668.5"/><ellipse cx="2191.3" cy="684.5" fill="#B4A7E5" rx="11" ry="11" style="stroke:#A80036;stroke-width:1.0;"/><path d="M2192.2531,681.2813 L2193.9719,681.2813 C2194.3625,681.2813 2194.55,681.25 2194.675,681.1719 C2194.9406,681.0156 2195.0813,680.7344 2195.0813,680.4375 C2195.0813,680.1719 2194.9719,679.9063 2194.7375,679.7344 C2194.5656,679.625 2194.425,679.5938 2193.9719,679.5938 L2188.8313,679.5938 C2188.3938,679.5938 2188.2688,679.6094 2188.1125,679.7031 C2187.8625,679.8594 2187.7063,680.1563 2187.7063,680.4375 C2187.7063,680.7188 2187.8469,680.9688 2188.0656,681.1406 C2188.2219,681.25 2188.4094,681.2813 2188.8313,681.2813 L2190.55,681.2813 L2190.55,687.7969 L2188.8313,687.7969 C2188.3938,687.7969 2188.2688,687.8125 2188.1125,687.9219 C2187.8625,688.0781 2187.7063,688.3594 2187.7063,688.6563 C2187.7063,688.9063 2187.8469,689.1719 2188.0656,689.3281 C2188.2219,689.4531 2188.425,689.5 2188.8313,689.5 L2193.9719,689.5 C2194.7219,689.5 2195.0813,689.2188 2195.0813,688.6563 C2195.0813,688.375 2194.9719,688.125 2194.7375,687.9531 C2194.5656,687.8281 2194.425,687.7969 2193.9719,687.7969 L2192.2531,687.7969 L2192.2531,681.2813 Z " fill="#000000"/><text fill="#000000" font-family="sans-serif" font-size="12" font-style="italic" lengthAdjust="spacing" textLength="37" x="2209.7" y="688.6543">Writer</text><line style="stroke:#A80036;stroke-width:1.5;" x1="2157.5" x2="2268.5" y1="700.5" y2="700.5"/><line style="stroke:#A80036;stroke-width:1.5;" x1="2157.5" x2="2268.5" y1="708.5" y2="708.5"/><text fill="#000000" font-family="sans-serif" font-size="11" lengthAdjust="spacing" textLength="101" x="2162.5" y="722.7104">public void write()</text><!--MD5=[3eef7b73fa83c0eb0df09a32828acfb2]
class SVGWriter--><rect codeLine="135" fill="#FEFECE" filter="url(#f1jrduqxpnk0ze)" height="60.8047" id="SVGWriter" style="stroke:#A80036;stroke-width:1.5;" width="113" x="2083.5" y="499"/><ellipse cx="2107.05" cy="515" fill="#ADD1B2" rx="11" ry="11" style="stroke:#A80036;stroke-width:1.0;"/><path d="M2109.3938,510.6719 C2108.4563,510.2344 2107.8625,510.0938 2106.9875,510.0938 C2104.3625,510.0938 2102.3625,512.1719 2102.3625,514.8906 L2102.3625,516.0156 C2102.3625,518.5938 2104.4719,520.4844 2107.3625,520.4844 C2108.5813,520.4844 2109.7375,520.1875 2110.4875,519.6406 C2111.0656,519.2344 2111.3938,518.7813 2111.3938,518.3906 C2111.3938,517.9375 2111.0031,517.5469 2110.5344,517.5469 C2110.3156,517.5469 2110.1125,517.625 2109.925,517.8125 C2109.4719,518.2969 2109.4719,518.2969 2109.2844,518.3906 C2108.8625,518.6563 2108.175,518.7813 2107.4094,518.7813 C2105.3625,518.7813 2104.0656,517.6875 2104.0656,515.9844 L2104.0656,514.8906 C2104.0656,513.1094 2105.3156,511.7969 2107.05,511.7969 C2107.6281,511.7969 2108.2375,511.9531 2108.7063,512.2031 C2109.1906,512.4844 2109.3625,512.7031 2109.4563,513.1094 C2109.5188,513.5156 2109.55,513.6406 2109.6906,513.7656 C2109.8313,513.9063 2110.0656,514.0156 2110.2844,514.0156 C2110.55,514.0156 2110.8156,513.875 2110.9875,513.6563 C2111.0969,513.5 2111.1281,513.3125 2111.1281,512.8906 L2111.1281,511.4688 C2111.1281,511.0313 2111.1125,510.9063 2111.0188,510.75 C2110.8625,510.4844 2110.5813,510.3438 2110.2844,510.3438 C2109.9875,510.3438 2109.7844,510.4375 2109.5656,510.75 L2109.3938,510.6719 Z " fill="#000000"/><text fill="#000000" font-family="sans-serif" font-size="12" lengthAdjust="spacing" textLength="62" x="2122.95" y="519.1543">SVGWriter</text><line style="stroke:#A80036;stroke-width:1.5;" x1="2084.5" x2="2195.5" y1="531" y2="531"/><line style="stroke:#A80036;stroke-width:1.5;" x1="2084.5" x2="2195.5" y1="539" y2="539"/><text fill="#000000" font-family="sans-serif" font-size="11" lengthAdjust="spacing" textLength="101" x="2089.5" y="553.2104">public void write()</text><!--MD5=[3649b6acaec62a90b62068b022fdef1b]
class XMLWriter--><rect codeLine="140" fill="#FEFECE" filter="url(#f1jrduqxpnk0ze)" height="60.8047" id="XMLWriter" style="stroke:#A80036;stroke-width:1.5;" width="113" x="2379.5" y="499"/><ellipse cx="2403.5" cy="515" fill="#ADD1B2" rx="11" ry="11" style="stroke:#A80036;stroke-width:1.0;"/><path d="M2405.8438,510.6719 C2404.9063,510.2344 2404.3125,510.0938 2403.4375,510.0938 C2400.8125,510.0938 2398.8125,512.1719 2398.8125,514.8906 L2398.8125,516.0156 C2398.8125,518.5938 2400.9219,520.4844 2403.8125,520.4844 C2405.0313,520.4844 2406.1875,520.1875 2406.9375,519.6406 C2407.5156,519.2344 2407.8438,518.7813 2407.8438,518.3906 C2407.8438,517.9375 2407.4531,517.5469 2406.9844,517.5469 C2406.7656,517.5469 2406.5625,517.625 2406.375,517.8125 C2405.9219,518.2969 2405.9219,518.2969 2405.7344,518.3906 C2405.3125,518.6563 2404.625,518.7813 2403.8594,518.7813 C2401.8125,518.7813 2400.5156,517.6875 2400.5156,515.9844 L2400.5156,514.8906 C2400.5156,513.1094 2401.7656,511.7969 2403.5,511.7969 C2404.0781,511.7969 2404.6875,511.9531 2405.1563,512.2031 C2405.6406,512.4844 2405.8125,512.7031 2405.9063,513.1094 C2405.9688,513.5156 2406,513.6406 2406.1406,513.7656 C2406.2813,513.9063 2406.5156,514.0156 2406.7344,514.0156 C2407,514.0156 2407.2656,513.875 2407.4375,513.6563 C2407.5469,513.5 2407.5781,513.3125 2407.5781,512.8906 L2407.5781,511.4688 C2407.5781,511.0313 2407.5625,510.9063 2407.4688,510.75 C2407.3125,510.4844 2407.0313,510.3438 2406.7344,510.3438 C2406.4375,510.3438 2406.2344,510.4375 2406.0156,510.75 L2405.8438,510.6719 Z " fill="#000000"/><text fill="#000000" font-family="sans-serif" font-size="12" lengthAdjust="spacing" textLength="61" x="2419.5" y="519.1543">XMLWriter</text><line style="stroke:#A80036;stroke-width:1.5;" x1="2380.5" x2="2491.5" y1="531" y2="531"/><line style="stroke:#A80036;stroke-width:1.5;" x1="2380.5" x2="2491.5" y1="539" y2="539"/><text fill="#000000" font-family="sans-serif" font-size="11" lengthAdjust="spacing" textLength="101" x="2385.5" y="553.2104">public void write()</text><!--MD5=[1e45380920adb9e0da633e09815b8bbd]
class JSONWriter--><rect codeLine="145" fill="#FEFECE" filter="url(#f1jrduqxpnk0ze)" height="60.8047" id="JSONWriter" style="stroke:#A80036;stroke-width:1.5;" width="113" x="2231.5" y="499"/><ellipse cx="2252.8" cy="515" fill="#ADD1B2" rx="11" ry="11" style="stroke:#A80036;stroke-width:1.0;"/><path d="M2255.1438,510.6719 C2254.2063,510.2344 2253.6125,510.0938 2252.7375,510.0938 C2250.1125,510.0938 2248.1125,512.1719 2248.1125,514.8906 L2248.1125,516.0156 C2248.1125,518.5938 2250.2219,520.4844 2253.1125,520.4844 C2254.3313,520.4844 2255.4875,520.1875 2256.2375,519.6406 C2256.8156,519.2344 2257.1438,518.7813 2257.1438,518.3906 C2257.1438,517.9375 2256.7531,517.5469 2256.2844,517.5469 C2256.0656,517.5469 2255.8625,517.625 2255.675,517.8125 C2255.2219,518.2969 2255.2219,518.2969 2255.0344,518.3906 C2254.6125,518.6563 2253.925,518.7813 2253.1594,518.7813 C2251.1125,518.7813 2249.8156,517.6875 2249.8156,515.9844 L2249.8156,514.8906 C2249.8156,513.1094 2251.0656,511.7969 2252.8,511.7969 C2253.3781,511.7969 2253.9875,511.9531 2254.4563,512.2031 C2254.9406,512.4844 2255.1125,512.7031 2255.2063,513.1094 C2255.2688,513.5156 2255.3,513.6406 2255.4406,513.7656 C2255.5813,513.9063 2255.8156,514.0156 2256.0344,514.0156 C2256.3,514.0156 2256.5656,513.875 2256.7375,513.6563 C2256.8469,513.5 2256.8781,513.3125 2256.8781,512.8906 L2256.8781,511.4688 C2256.8781,511.0313 2256.8625,510.9063 2256.7688,510.75 C2256.6125,510.4844 2256.3313,510.3438 2256.0344,510.3438 C2255.7375,510.3438 2255.5344,510.4375 2255.3156,510.75 L2255.1438,510.6719 Z " fill="#000000"/><text fill="#000000" font-family="sans-serif" font-size="12" lengthAdjust="spacing" textLength="67" x="2268.2" y="519.1543">JSONWriter</text><line style="stroke:#A80036;stroke-width:1.5;" x1="2232.5" x2="2343.5" y1="531" y2="531"/><line style="stroke:#A80036;stroke-width:1.5;" x1="2232.5" x2="2343.5" y1="539" y2="539"/><text fill="#000000" font-family="sans-serif" font-size="11" lengthAdjust="spacing" textLength="101" x="2237.5" y="553.2104">public void write()</text><!--MD5=[7aa4f1b64c732e98c193537ef177d827]
class SVGReader--><rect codeLine="150" fill="#FEFECE" filter="url(#f1jrduqxpnk0ze)" height="60.8047" id="SVGReader" style="stroke:#A80036;stroke-width:1.5;" width="151" x="1525.5" y="499"/><ellipse cx="1563.45" cy="515" fill="#ADD1B2" rx="11" ry="11" style="stroke:#A80036;stroke-width:1.0;"/><path d="M1565.7938,510.6719 C1564.8563,510.2344 1564.2625,510.0938 1563.3875,510.0938 C1560.7625,510.0938 1558.7625,512.1719 1558.7625,514.8906 L1558.7625,516.0156 C1558.7625,518.5938 1560.8719,520.4844 1563.7625,520.4844 C1564.9813,520.4844 1566.1375,520.1875 1566.8875,519.6406 C1567.4656,519.2344 1567.7938,518.7813 1567.7938,518.3906 C1567.7938,517.9375 1567.4031,517.5469 1566.9344,517.5469 C1566.7156,517.5469 1566.5125,517.625 1566.325,517.8125 C1565.8719,518.2969 1565.8719,518.2969 1565.6844,518.3906 C1565.2625,518.6563 1564.575,518.7813 1563.8094,518.7813 C1561.7625,518.7813 1560.4656,517.6875 1560.4656,515.9844 L1560.4656,514.8906 C1560.4656,513.1094 1561.7156,511.7969 1563.45,511.7969 C1564.0281,511.7969 1564.6375,511.9531 1565.1063,512.2031 C1565.5906,512.4844 1565.7625,512.7031 1565.8563,513.1094 C1565.9188,513.5156 1565.95,513.6406 1566.0906,513.7656 C1566.2313,513.9063 1566.4656,514.0156 1566.6844,514.0156 C1566.95,514.0156 1567.2156,513.875 1567.3875,513.6563 C1567.4969,513.5 1567.5281,513.3125 1567.5281,512.8906 L1567.5281,511.4688 C1567.5281,511.0313 1567.5125,510.9063 1567.4188,510.75 C1567.2625,510.4844 1566.9813,510.3438 1566.6844,510.3438 C1566.3875,510.3438 1566.1844,510.4375 1565.9656,510.75 L1565.7938,510.6719 Z " fill="#000000"/><text fill="#000000" font-family="sans-serif" font-size="12" lengthAdjust="spacing" textLength="68" x="1582.55" y="519.1543">SVGReader</text><line style="stroke:#A80036;stroke-width:1.5;" x1="1526.5" x2="1675.5" y1="531" y2="531"/><line style="stroke:#A80036;stroke-width:1.5;" x1="1526.5" x2="1675.5" y1="539" y2="539"/><text fill="#000000" font-family="sans-serif" font-size="11" lengthAdjust="spacing" textLength="139" x="1531.5" y="553.2104">public void read(Actor a)</text><!--MD5=[7f1cb787ccec5c1836a206f0aa757341]
class XMLReader--><rect codeLine="155" fill="#FEFECE" filter="url(#f1jrduqxpnk0ze)" height="60.8047" id="XMLReader" style="stroke:#A80036;stroke-width:1.5;" width="151" x="1897.5" y="499"/><ellipse cx="1935.9" cy="515" fill="#ADD1B2" rx="11" ry="11" style="stroke:#A80036;stroke-width:1.0;"/><path d="M1938.2438,510.6719 C1937.3063,510.2344 1936.7125,510.0938 1935.8375,510.0938 C1933.2125,510.0938 1931.2125,512.1719 1931.2125,514.8906 L1931.2125,516.0156 C1931.2125,518.5938 1933.3219,520.4844 1936.2125,520.4844 C1937.4313,520.4844 1938.5875,520.1875 1939.3375,519.6406 C1939.9156,519.2344 1940.2438,518.7813 1940.2438,518.3906 C1940.2438,517.9375 1939.8531,517.5469 1939.3844,517.5469 C1939.1656,517.5469 1938.9625,517.625 1938.775,517.8125 C1938.3219,518.2969 1938.3219,518.2969 1938.1344,518.3906 C1937.7125,518.6563 1937.025,518.7813 1936.2594,518.7813 C1934.2125,518.7813 1932.9156,517.6875 1932.9156,515.9844 L1932.9156,514.8906 C1932.9156,513.1094 1934.1656,511.7969 1935.9,511.7969 C1936.4781,511.7969 1937.0875,511.9531 1937.5563,512.2031 C1938.0406,512.4844 1938.2125,512.7031 1938.3063,513.1094 C1938.3688,513.5156 1938.4,513.6406 1938.5406,513.7656 C1938.6813,513.9063 1938.9156,514.0156 1939.1344,514.0156 C1939.4,514.0156 1939.6656,513.875 1939.8375,513.6563 C1939.9469,513.5 1939.9781,513.3125 1939.9781,512.8906 L1939.9781,511.4688 C1939.9781,511.0313 1939.9625,510.9063 1939.8688,510.75 C1939.7125,510.4844 1939.4313,510.3438 1939.1344,510.3438 C1938.8375,510.3438 1938.6344,510.4375 1938.4156,510.75 L1938.2438,510.6719 Z " fill="#000000"/><text fill="#000000" font-family="sans-serif" font-size="12" lengthAdjust="spacing" textLength="67" x="1955.1" y="519.1543">XMLReader</text><line style="stroke:#A80036;stroke-width:1.5;" x1="1898.5" x2="2047.5" y1="531" y2="531"/><line style="stroke:#A80036;stroke-width:1.5;" x1="1898.5" x2="2047.5" y1="539" y2="539"/><text fill="#000000" font-family="sans-serif" font-size="11" lengthAdjust="spacing" textLength="139" x="1903.5" y="553.2104">public void read(Actor a)</text><!--MD5=[6271eb3e8315b816043741d95b89b3c6]
class JSONReader--><rect codeLine="160" fill="#FEFECE" filter="url(#f1jrduqxpnk0ze)" height="60.8047" id="JSONReader" style="stroke:#A80036;stroke-width:1.5;" width="151" x="1711.5" y="499"/><ellipse cx="1747.2" cy="515" fill="#ADD1B2" rx="11" ry="11" style="stroke:#A80036;stroke-width:1.0;"/><path d="M1749.5438,510.6719 C1748.6063,510.2344 1748.0125,510.0938 1747.1375,510.0938 C1744.5125,510.0938 1742.5125,512.1719 1742.5125,514.8906 L1742.5125,516.0156 C1742.5125,518.5938 1744.6219,520.4844 1747.5125,520.4844 C1748.7313,520.4844 1749.8875,520.1875 1750.6375,519.6406 C1751.2156,519.2344 1751.5438,518.7813 1751.5438,518.3906 C1751.5438,517.9375 1751.1531,517.5469 1750.6844,517.5469 C1750.4656,517.5469 1750.2625,517.625 1750.075,517.8125 C1749.6219,518.2969 1749.6219,518.2969 1749.4344,518.3906 C1749.0125,518.6563 1748.325,518.7813 1747.5594,518.7813 C1745.5125,518.7813 1744.2156,517.6875 1744.2156,515.9844 L1744.2156,514.8906 C1744.2156,513.1094 1745.4656,511.7969 1747.2,511.7969 C1747.7781,511.7969 1748.3875,511.9531 1748.8563,512.2031 C1749.3406,512.4844 1749.5125,512.7031 1749.6063,513.1094 C1749.6688,513.5156 1749.7,513.6406 1749.8406,513.7656 C1749.9813,513.9063 1750.2156,514.0156 1750.4344,514.0156 C1750.7,514.0156 1750.9656,513.875 1751.1375,513.6563 C1751.2469,513.5 1751.2781,513.3125 1751.2781,512.8906 L1751.2781,511.4688 C1751.2781,511.0313 1751.2625,510.9063 1751.1688,510.75 C1751.0125,510.4844 1750.7313,510.3438 1750.4344,510.3438 C1750.1375,510.3438 1749.9344,510.4375 1749.7156,510.75 L1749.5438,510.6719 Z " fill="#000000"/><text fill="#000000" font-family="sans-serif" font-size="12" lengthAdjust="spacing" textLength="73" x="1765.8" y="519.1543">JSONReader</text><line style="stroke:#A80036;stroke-width:1.5;" x1="1712.5" x2="1861.5" y1="531" y2="531"/><line style="stroke:#A80036;stroke-width:1.5;" x1="1712.5" x2="1861.5" y1="539" y2="539"/><text fill="#000000" font-family="sans-serif" font-size="11" lengthAdjust="spacing" textLength="139" x="1717.5" y="553.2104">public void read(Actor a)</text><!--MD5=[002abbdf2297a1ffb51d988df9aa3225]
class WrongObjectException--><rect codeLine="165" fill="#FEFECE" filter="url(#f1jrduqxpnk0ze)" height="48" id="WrongObjectException" style="stroke:#A80036;stroke-width:1.5;" width="171" x="1527.5" y="851"/><ellipse cx="1542.5" cy="867" fill="#ADD1B2" rx="11" ry="11" style="stroke:#A80036;stroke-width:1.0;"/><path d="M1544.8438,862.6719 C1543.9063,862.2344 1543.3125,862.0938 1542.4375,862.0938 C1539.8125,862.0938 1537.8125,864.1719 1537.8125,866.8906 L1537.8125,868.0156 C1537.8125,870.5938 1539.9219,872.4844 1542.8125,872.4844 C1544.0313,872.4844 1545.1875,872.1875 1545.9375,871.6406 C1546.5156,871.2344 1546.8438,870.7813 1546.8438,870.3906 C1546.8438,869.9375 1546.4531,869.5469 1545.9844,869.5469 C1545.7656,869.5469 1545.5625,869.625 1545.375,869.8125 C1544.9219,870.2969 1544.9219,870.2969 1544.7344,870.3906 C1544.3125,870.6563 1543.625,870.7813 1542.8594,870.7813 C1540.8125,870.7813 1539.5156,869.6875 1539.5156,867.9844 L1539.5156,866.8906 C1539.5156,865.1094 1540.7656,863.7969 1542.5,863.7969 C1543.0781,863.7969 1543.6875,863.9531 1544.1563,864.2031 C1544.6406,864.4844 1544.8125,864.7031 1544.9063,865.1094 C1544.9688,865.5156 1545,865.6406 1545.1406,865.7656 C1545.2813,865.9063 1545.5156,866.0156 1545.7344,866.0156 C1546,866.0156 1546.2656,865.875 1546.4375,865.6563 C1546.5469,865.5 1546.5781,865.3125 1546.5781,864.8906 L1546.5781,863.4688 C1546.5781,863.0313 1546.5625,862.9063 1546.4688,862.75 C1546.3125,862.4844 1546.0313,862.3438 1545.7344,862.3438 C1545.4375,862.3438 1545.2344,862.4375 1545.0156,862.75 L1544.8438,862.6719 Z " fill="#000000"/><text fill="#000000" font-family="sans-serif" font-size="12" lengthAdjust="spacing" textLength="139" x="1556.5" y="871.1543">WrongObjectException</text><line style="stroke:#A80036;stroke-width:1.5;" x1="1528.5" x2="1697.5" y1="883" y2="883"/><line style="stroke:#A80036;stroke-width:1.5;" x1="1528.5" x2="1697.5" y1="891" y2="891"/><!--MD5=[8db60afef7a3447bbe27c5ed187fdac2]
class Exception--><rect codeLine="169" fill="#FEFECE" filter="url(#f1jrduqxpnk0ze)" height="48" id="Exception" style="stroke:#A80036;stroke-width:1.5;" width="91" x="1567.5" y="987.5"/><ellipse cx="1582.5" cy="1003.5" fill="#ADD1B2" rx="11" ry="11" style="stroke:#A80036;stroke-width:1.0;"/><path d="M1584.8438,999.1719 C1583.9063,998.7344 1583.3125,998.5938 1582.4375,998.5938 C1579.8125,998.5938 1577.8125,1000.6719 1577.8125,1003.3906 L1577.8125,1004.5156 C1577.8125,1007.0938 1579.9219,1008.9844 1582.8125,1008.9844 C1584.0313,1008.9844 1585.1875,1008.6875 1585.9375,1008.1406 C1586.5156,1007.7344 1586.8438,1007.2813 1586.8438,1006.8906 C1586.8438,1006.4375 1586.4531,1006.0469 1585.9844,1006.0469 C1585.7656,1006.0469 1585.5625,1006.125 1585.375,1006.3125 C1584.9219,1006.7969 1584.9219,1006.7969 1584.7344,1006.8906 C1584.3125,1007.1563 1583.625,1007.2813 1582.8594,1007.2813 C1580.8125,1007.2813 1579.5156,1006.1875 1579.5156,1004.4844 L1579.5156,1003.3906 C1579.5156,1001.6094 1580.7656,1000.2969 1582.5,1000.2969 C1583.0781,1000.2969 1583.6875,1000.4531 1584.1563,1000.7031 C1584.6406,1000.9844 1584.8125,1001.2031 1584.9063,1001.6094 C1584.9688,1002.0156 1585,1002.1406 1585.1406,1002.2656 C1585.2813,1002.4063 1585.5156,1002.5156 1585.7344,1002.5156 C1586,1002.5156 1586.2656,1002.375 1586.4375,1002.1563 C1586.5469,1002 1586.5781,1001.8125 1586.5781,1001.3906 L1586.5781,999.9688 C1586.5781,999.5313 1586.5625,999.4063 1586.4688,999.25 C1586.3125,998.9844 1586.0313,998.8438 1585.7344,998.8438 C1585.4375,998.8438 1585.2344,998.9375 1585.0156,999.25 L1584.8438,999.1719 Z " fill="#000000"/><text fill="#000000" font-family="sans-serif" font-size="12" lengthAdjust="spacing" textLength="59" x="1596.5" y="1007.6543">Exception</text><line style="stroke:#A80036;stroke-width:1.5;" x1="1568.5" x2="1657.5" y1="1019.5" y2="1019.5"/><line style="stroke:#A80036;stroke-width:1.5;" x1="1568.5" x2="1657.5" y1="1027.5" y2="1027.5"/><!--MD5=[0c51305de9094af5bf95fae0142ac999]
class FileInputStream--><rect codeLine="171" fill="#FEFECE" filter="url(#f1jrduqxpnk0ze)" height="48" id="FileInputStream" style="stroke:#A80036;stroke-width:1.5;" width="125" x="1367.5" y="851"/><ellipse cx="1382.5" cy="867" fill="#ADD1B2" rx="11" ry="11" style="stroke:#A80036;stroke-width:1.0;"/><path d="M1384.8438,862.6719 C1383.9063,862.2344 1383.3125,862.0938 1382.4375,862.0938 C1379.8125,862.0938 1377.8125,864.1719 1377.8125,866.8906 L1377.8125,868.0156 C1377.8125,870.5938 1379.9219,872.4844 1382.8125,872.4844 C1384.0313,872.4844 1385.1875,872.1875 1385.9375,871.6406 C1386.5156,871.2344 1386.8438,870.7813 1386.8438,870.3906 C1386.8438,869.9375 1386.4531,869.5469 1385.9844,869.5469 C1385.7656,869.5469 1385.5625,869.625 1385.375,869.8125 C1384.9219,870.2969 1384.9219,870.2969 1384.7344,870.3906 C1384.3125,870.6563 1383.625,870.7813 1382.8594,870.7813 C1380.8125,870.7813 1379.5156,869.6875 1379.5156,867.9844 L1379.5156,866.8906 C1379.5156,865.1094 1380.7656,863.7969 1382.5,863.7969 C1383.0781,863.7969 1383.6875,863.9531 1384.1563,864.2031 C1384.6406,864.4844 1384.8125,864.7031 1384.9063,865.1094 C1384.9688,865.5156 1385,865.6406 1385.1406,865.7656 C1385.2813,865.9063 1385.5156,866.0156 1385.7344,866.0156 C1386,866.0156 1386.2656,865.875 1386.4375,865.6563 C1386.5469,865.5 1386.5781,865.3125 1386.5781,864.8906 L1386.5781,863.4688 C1386.5781,863.0313 1386.5625,862.9063 1386.4688,862.75 C1386.3125,862.4844 1386.0313,862.3438 1385.7344,862.3438 C1385.4375,862.3438 1385.2344,862.4375 1385.0156,862.75 L1384.8438,862.6719 Z " fill="#000000"/><text fill="#000000" font-family="sans-serif" font-size="12" lengthAdjust="spacing" textLength="93" x="1396.5" y="871.1543">FileInputStream</text><line style="stroke:#A80036;stroke-width:1.5;" x1="1368.5" x2="1491.5" y1="883" y2="883"/><line style="stroke:#A80036;stroke-width:1.5;" x1="1368.5" x2="1491.5" y1="891" y2="891"/><!--MD5=[adfae61f9be72ccc27c312cb4b79c428]
reverse link WrongObjectException to Exception--><path codeLine="173" d="M1613,919.459 C1613,941.9913 1613,968.6146 1613,987.2302 " fill="none" id="WrongObjectException-backto-Exception" style="stroke:#A80036;stroke-width:1.0;"/><polygon fill="none" points="1606,919.121,1613,899.121,1620,919.121,1606,919.121" style="stroke:#A80036;stroke-width:1.0;"/><!--MD5=[5a606f631df89c29aefc83cffd3e684f]
reverse link SupplierBoard to BoardData--><path codeLine="176" d="M156.706,396.499 C160.177,398.045 163.624,399.554 167,401 C243.2,433.624 330.783,467.095 396.854,491.552 " fill="none" id="SupplierBoard-backto-BoardData" style="stroke:#A80036;stroke-width:1.0;"/><polygon fill="none" points="153.458,402.711,138.182,388.027,159.281,389.98,153.458,402.711" style="stroke:#A80036;stroke-width:1.0;"/><!--MD5=[02566878d156b7b46d29f33e08f92019]
reverse link ClientBoard to BoardData--><path codeLine="177" d="M498.303,414.614 C498.443,437.47 498.607,464.311 498.741,486.194 " fill="none" id="ClientBoard-backto-BoardData" style="stroke:#A80036;stroke-width:1.0;"/><polygon fill="none" points="491.304,414.651,498.181,394.609,505.303,414.565,491.304,414.651" style="stroke:#A80036;stroke-width:1.0;"/><!--MD5=[eee2400a5be305fc9b768bd82ffa895e]
reverse link ClientBoard to Polygon--><path codeLine="178" d="M560.169,401.302 C603.239,426.452 660.716,460.014 705.814,486.349 " fill="none" id="ClientBoard-backto-Polygon" style="stroke:#A80036;stroke-width:1.0;"/><polygon fill="#A80036" points="548.706,394.609,551.8706,401.0886,559.069,400.6596,555.9043,394.18,548.706,394.609" style="stroke:#A80036;stroke-width:1.0;"/><text fill="#000000" font-family="sans-serif" font-size="13" lengthAdjust="spacing" textLength="39" x="639" y="444.0669">shape</text><text fill="#000000" font-family="sans-serif" font-size="13" lengthAdjust="spacing" textLength="8" x="550.3391" y="414.5697">1</text><text fill="#000000" font-family="sans-serif" font-size="13" lengthAdjust="spacing" textLength="8" x="685.6719" y="475.321">1</text><!--MD5=[e17ad64b92dc2bc29074947a1e99fa43]
reverse link Wood to Color--><path codeLine="179" d="M848,749.136 C848,773.024 848,801.643 848,825.452 " fill="none" id="Wood-backto-Color" style="stroke:#A80036;stroke-width:1.0;"/><polygon fill="#A80036" points="848,736.053,844,742.053,848,748.053,852,742.053,848,736.053" style="stroke:#A80036;stroke-width:1.0;"/><text fill="#000000" font-family="sans-serif" font-size="13" lengthAdjust="spacing" textLength="31" x="849" y="791.5669">color</text><text fill="#000000" font-family="sans-serif" font-size="13" lengthAdjust="spacing" textLength="8" x="839.3375" y="755.5423">1</text><text fill="#000000" font-family="sans-serif" font-size="13" lengthAdjust="spacing" textLength="8" x="839.4375" y="814.4905">1</text><!--MD5=[7b9556799d99ac19cd4f14c248f2b58d]
reverse link Price to Validable--><path codeLine="181" d="M447.218,750.335 C415.875,780.803 376.977,818.615 350.501,844.351 " fill="none" id="Price-backto-Validable" style="stroke:#A80036;stroke-width:1.0;"/><polygon fill="none" points="442.691,744.974,461.911,736.053,452.449,755.013,442.691,744.974" style="stroke:#A80036;stroke-width:1.0;"/><!--MD5=[6f936e8a88a5c961671672793e8350fd]
reverse link Date to Validable--><path codeLine="182" d="M205.897,763.085 C234.505,790.893 266.748,822.235 289.643,844.491 " fill="none" id="Date-backto-Validable" style="stroke:#A80036;stroke-width:1.0;"/><polygon fill="none" points="200.8,767.892,191.338,748.932,210.558,757.853,200.8,767.892" style="stroke:#A80036;stroke-width:1.0;"/><!--MD5=[a4f3e76ed76b44d5cee9b00754e2a839]
reverse link Dimension to Validable--><path codeLine="183" d="M593.881,745.52 C591.905,746.528 589.942,747.523 588,748.5 C519.73,782.846 440.314,819.65 385.754,844.459 " fill="none" id="Dimension-backto-Validable" style="stroke:#A80036;stroke-width:1.0;"/><polygon fill="none" points="590.893,739.184,611.869,736.183,597.343,751.61,590.893,739.184" style="stroke:#A80036;stroke-width:1.0;"/><!--MD5=[a210df94719bb343cec51e52730ccc52]
reverse link Amount to Validable--><path codeLine="184" d="M320,756.236 C320,785.567 320,820.252 320,844.351 " fill="none" id="Amount-backto-Validable" style="stroke:#A80036;stroke-width:1.0;"/><polygon fill="none" points="313,756.053,320,736.053,327,756.053,313,756.053" style="stroke:#A80036;stroke-width:1.0;"/><!--MD5=[610e4135d05a45b151040462edb5f6c1]
reverse link BoardData to Validable--><path codeLine="186" d="M383.854,545.105 C264.996,562.824 91.3709,597.006 51,649.5 C24.1766,684.378 27.3624,711.388 51,748.5 C93.9809,815.981 183.762,847.771 247.773,862.341 " fill="none" id="BoardData-backto-Validable" style="stroke:#A80036;stroke-width:1.0;"/><polygon fill="#A80036" points="396.98,543.182,390.4636,540.0939,385.1067,544.9213,391.6231,548.0094,396.98,543.182" style="stroke:#A80036;stroke-width:1.0;"/><text fill="#000000" font-family="sans-serif" font-size="13" lengthAdjust="spacing" textLength="8" x="380.8628" y="540.7114">1</text><text fill="#000000" font-family="sans-serif" font-size="13" lengthAdjust="spacing" textLength="7" x="232.9637" y="857.3459">*</text><!--MD5=[a104307926166c0fdb977c8647dff642]
reverse link BoardData to Dimension--><path codeLine="187" d="M598.192,579.982 C607.809,586.842 616.961,594.36 625,602.5 C641.655,619.365 654.682,642.529 663.652,661.82 " fill="none" id="BoardData-backto-Dimension" style="stroke:#A80036;stroke-width:1.0;"/><polygon fill="#A80036" points="587.172,572.518,589.8965,579.1946,597.1074,579.2476,594.3829,572.571,587.172,572.518" style="stroke:#A80036;stroke-width:1.0;"/><text fill="#000000" font-family="sans-serif" font-size="13" lengthAdjust="spacing" textLength="40" x="640" y="615.5669">length</text><text fill="#000000" font-family="sans-serif" font-size="13" lengthAdjust="spacing" textLength="8" x="593.113" y="592.9286">1</text><text fill="#000000" font-family="sans-serif" font-size="13" lengthAdjust="spacing" textLength="8" x="652.3838" y="650.9749">1</text><!--MD5=[a104307926166c0fdb977c8647dff642]
reverse link BoardData to Dimension--><path codeLine="188" d="M543.728,582.41 C555.184,594.921 567.741,607.99 580,619.5 C595.574,634.123 613.586,649.054 629.887,661.914 " fill="none" id="BoardData-backto-Dimension-1" style="stroke:#A80036;stroke-width:1.0;"/><polygon fill="#A80036" points="534.804,572.536,535.8604,579.6693,542.8513,581.4377,541.7949,574.3044,534.804,572.536" style="stroke:#A80036;stroke-width:1.0;"/><text fill="#000000" font-family="sans-serif" font-size="13" lengthAdjust="spacing" textLength="35" x="581" y="615.5669">width</text><text fill="#000000" font-family="sans-serif" font-size="13" lengthAdjust="spacing" textLength="8" x="532.0715" y="592.9496">1</text><text fill="#000000" font-family="sans-serif" font-size="13" lengthAdjust="spacing" textLength="8" x="612.2787" y="650.8086">1</text><!--MD5=[cb3899dee3eeaf36f94a24a8b942dc2d]
reverse link BoardData to Amount--><path codeLine="189" d="M444.261,581.723 C416.521,607.68 383.507,638.573 358.482,661.99 " fill="none" id="BoardData-backto-Amount" style="stroke:#A80036;stroke-width:1.0;"/><polygon fill="#A80036" points="453.831,572.767,446.7168,573.9453,445.0682,580.9654,452.1824,579.7871,453.831,572.767" style="stroke:#A80036;stroke-width:1.0;"/><text fill="#000000" font-family="sans-serif" font-size="13" lengthAdjust="spacing" textLength="50" x="422" y="615.5669">amount</text><text fill="#000000" font-family="sans-serif" font-size="13" lengthAdjust="spacing" textLength="8" x="437.9947" y="592.9025">1</text><text fill="#000000" font-family="sans-serif" font-size="13" lengthAdjust="spacing" textLength="8" x="356.8396" y="650.8986">1</text><!--MD5=[ffb615290bb02f62f39a94790977e6d2]
reverse link BoardData to Date--><path codeLine="190" d="M386.612,577.757 C338.026,598.818 280.783,624.483 230,649.5 C224.475,652.222 218.797,655.106 213.112,658.057 " fill="none" id="BoardData-backto-Date" style="stroke:#A80036;stroke-width:1.0;"/><polygon fill="#A80036" points="398.769,572.505,391.6747,571.2125,387.753,577.264,394.8473,578.5565,398.769,572.505" style="stroke:#A80036;stroke-width:1.0;"/><text fill="#000000" font-family="sans-serif" font-size="13" lengthAdjust="spacing" textLength="29" x="327" y="615.5669">date</text><text fill="#000000" font-family="sans-serif" font-size="13" lengthAdjust="spacing" textLength="8" x="381.1602" y="589.2149">1</text><text fill="#000000" font-family="sans-serif" font-size="13" lengthAdjust="spacing" textLength="8" x="220.9611" y="650.1238">1</text><!--MD5=[9798e7c7e28b89375615025d5a649d57]
reverse link BoardData to Price--><path codeLine="191" d="M499,585.842 C499,610.897 499,639.8 499,661.99 " fill="none" id="BoardData-backto-Price" style="stroke:#A80036;stroke-width:1.0;"/><polygon fill="#A80036" points="499,572.767,495,578.767,499,584.767,503,578.767,499,572.767" style="stroke:#A80036;stroke-width:1.0;"/><text fill="#000000" font-family="sans-serif" font-size="13" lengthAdjust="spacing" textLength="31" x="500" y="615.5669">price</text><text fill="#000000" font-family="sans-serif" font-size="13" lengthAdjust="spacing" textLength="8" x="490.3625" y="592.9025">1</text><text fill="#000000" font-family="sans-serif" font-size="13" lengthAdjust="spacing" textLength="8" x="490.2625" y="650.8986">1</text><!--MD5=[61f9f432fc10452c04d37d5497ba643f]
reverse link BoardData to Wood--><path codeLine="192" d="M620.277,572.745 C643.409,581.84 667.195,591.925 689,602.5 C724.927,619.924 763.354,642.874 793.43,661.91 " fill="none" id="BoardData-backto-Wood" style="stroke:#A80036;stroke-width:1.0;"/><polygon fill="none" points="617.637,579.23,601.488,565.511,622.668,566.164,617.637,579.23" style="stroke:#A80036;stroke-width:1.0;"/><!--MD5=[d05aa3f1b8c5742278373ef6041a1e47]
reverse link Polygon to Point--><path codeLine="194" d="M863.628,578.955 C906.663,603.308 958.309,632.533 999.658,655.932 " fill="none" id="Polygon-backto-Point" style="stroke:#A80036;stroke-width:1.0;"/><polygon fill="#A80036" points="852.311,572.551,855.5628,578.9873,862.7547,578.4612,859.5029,572.0249,852.311,572.551" style="stroke:#A80036;stroke-width:1.0;"/><text fill="#000000" font-family="sans-serif" font-size="13" lengthAdjust="spacing" textLength="8" x="855.9563" y="592.9671">1</text><text fill="#000000" font-family="sans-serif" font-size="13" lengthAdjust="spacing" textLength="7" x="980.2519" y="644.9172">*</text><!--MD5=[79f8cd0143a5b13e1c0ba3b5d1c437d5]
reverse link Rectangle to Polygon--><path codeLine="195" d="M686.817,404.264 C704.985,429.017 728.435,460.967 747.004,486.268 " fill="none" id="Rectangle-backto-Polygon" style="stroke:#A80036;stroke-width:1.0;"/><polygon fill="none" points="681.129,408.344,674.939,388.079,692.415,400.06,681.129,408.344" style="stroke:#A80036;stroke-width:1.0;"/><!--MD5=[2414bade341e7bcb897f767689edc1fb]
reverse link AnyPolygon to Polygon--><path codeLine="196" d="M786.089,408.269 C784.466,432.394 782.453,462.312 780.841,486.268 " fill="none" id="AnyPolygon-backto-Polygon" style="stroke:#A80036;stroke-width:1.0;"/><polygon fill="none" points="779.12,407.564,787.447,388.079,793.089,408.504,779.12,407.564" style="stroke:#A80036;stroke-width:1.0;"/><!--MD5=[d8c2b540b2a8e3860d57ac40c96030fa]
reverse link Actor to BoardData--><path codeLine="199" d="M861.524,399.748 C860.007,400.168 858.499,400.585 857,401 C781.449,421.905 763.774,432.165 687,448 C661.515,453.256 653.677,447.743 629,456 C606.577,463.503 583.575,474.905 563.273,486.459 " fill="none" id="Actor-backto-BoardData" style="stroke:#A80036;stroke-width:1.0;"/><polygon fill="#A80036" points="874.26,396.223,867.4105,393.9682,862.6947,399.4236,869.5442,401.6784,874.26,396.223" style="stroke:#A80036;stroke-width:1.0;"/><text fill="#000000" font-family="sans-serif" font-size="13" lengthAdjust="spacing" textLength="8" x="858.4165" y="394.9686">1</text><text fill="#000000" font-family="sans-serif" font-size="13" lengthAdjust="spacing" textLength="7" x="565.9587" y="475.4485">*</text><!--MD5=[5d9b68ac41569ce47fb5b19db7e57854]
reverse link Client to Actor--><path codeLine="201" d="M618.319,265.224 C619.216,265.485 620.11,265.743 621,266 C725.097,296.01 752.348,298.987 857,327 C862.656,328.514 868.446,330.075 874.292,331.661 " fill="none" id="Client-backto-Actor" style="stroke:#A80036;stroke-width:1.0;"/><polygon fill="none" points="616.316,271.931,599.145,259.515,620.311,258.513,616.316,271.931" style="stroke:#A80036;stroke-width:1.0;"/><!--MD5=[1d5e8bb9ed334eed2cd9d215d1aabe53]
reverse link Supplier to Actor--><path codeLine="202" d="M397.366,266.323 C494.772,282.3 521.859,284.918 613,297 C721.313,311.358 749.836,305.695 857,327 C862.627,328.119 868.369,329.353 874.15,330.671 " fill="none" id="Supplier-backto-Actor" style="stroke:#A80036;stroke-width:1.0;"/><polygon fill="none" points="396.212,273.227,377.62,263.061,398.494,259.414,396.212,273.227" style="stroke:#A80036;stroke-width:1.0;"/><!--MD5=[b885b8e9f9525039fce0dfe7c3b3eb60]
reverse link XMLWriter to Writer--><path codeLine="204" d="M2380.44,572.229 C2340.6,602.159 2287.89,641.751 2252.34,668.454 " fill="none" id="XMLWriter-backto-Writer" style="stroke:#A80036;stroke-width:1.0;"/><polygon fill="none" points="2376.45,566.475,2396.65,560.06,2384.86,577.669,2376.45,566.475" style="stroke:#A80036;stroke-width:1.0;"/><!--MD5=[e7bde7d4bf2b882a53401a6a3065a047]
reverse link SVGWriter to Writer--><path codeLine="205" d="M2161.04,578.782 C2173.67,607.749 2189.32,643.658 2200.12,668.454 " fill="none" id="SVGWriter-backto-Writer" style="stroke:#A80036;stroke-width:1.0;"/><polygon fill="none" points="2154.46,581.191,2152.88,560.06,2167.29,575.598,2154.46,581.191" style="stroke:#A80036;stroke-width:1.0;"/><!--MD5=[baa55a2e80261b2d1c890ca1c871d40c]
reverse link JSONWriter to Writer--><path codeLine="206" d="M2266.57,578.365 C2253.57,607.403 2237.39,643.539 2226.23,668.454 " fill="none" id="JSONWriter-backto-Writer" style="stroke:#A80036;stroke-width:1.0;"/><polygon fill="none" points="2260.2,575.453,2274.76,560.06,2272.98,581.174,2260.2,575.453" style="stroke:#A80036;stroke-width:1.0;"/><!--MD5=[c7c3d176ef042a586772104231f37acd]
reverse link XMLReader to Reader--><path codeLine="208" d="M1890.55,568.544 C1822.68,599.863 1728.16,643.475 1668.03,671.222 " fill="none" id="XMLReader-backto-Reader" style="stroke:#A80036;stroke-width:1.0;"/><polygon fill="none" points="1887.85,562.084,1908.94,560.06,1893.71,574.796,1887.85,562.084" style="stroke:#A80036;stroke-width:1.0;"/><!--MD5=[83039aab9e136a4459c367fc9b66b694]
reverse link SVGReader to Reader--><path codeLine="209" d="M1603.66,580.04 C1605.21,608.782 1607.1,644.016 1608.41,668.454 " fill="none" id="SVGReader-backto-Reader" style="stroke:#A80036;stroke-width:1.0;"/><polygon fill="none" points="1596.67,580.407,1602.59,560.06,1610.65,579.656,1596.67,580.407" style="stroke:#A80036;stroke-width:1.0;"/><!--MD5=[907d450f87d8619b444ad6932b57d471]
reverse link JSONReader to Reader--><path codeLine="210" d="M1741.2,573.842 C1709.79,603.568 1668.94,642.228 1641.22,668.454 " fill="none" id="JSONReader-backto-Reader" style="stroke:#A80036;stroke-width:1.0;"/><polygon fill="none" points="1736.43,568.723,1755.76,560.06,1746.05,578.891,1736.43,568.723" style="stroke:#A80036;stroke-width:1.0;"/><!--MD5=[bb36b3df2d0dfa4c831eb74ddec30c71]
reverse link Reader to WrongObjectException--><path codeLine="212" d="M1610.6,734.891 C1611.2,769.338 1612.09,821.044 1612.6,850.755 " fill="none" id="Reader-backto-WrongObjectException" style="stroke:#A80036;stroke-width:1.0;stroke-dasharray:7.0,7.0;"/><polygon fill="#A80036" points="1610.51,729.517,1606.6653,738.5844,1610.5959,734.5163,1614.6641,738.4469,1610.51,729.517" style="stroke:#A80036;stroke-width:1.0;"/><!--MD5=[a3640d689473992a8991427ef2b4fe76]
reverse link Reader to FileInputStream--><path codeLine="213" d="M1569.87,738.788 C1534.34,773.138 1483.64,822.144 1454.05,850.755 " fill="none" id="Reader-backto-FileInputStream" style="stroke:#A80036;stroke-width:1.0;"/><polygon fill="#A80036" points="1579.47,729.517,1572.3756,730.809,1570.8395,737.8546,1577.934,736.5626,1579.47,729.517" style="stroke:#A80036;stroke-width:1.0;"/><text fill="#000000" font-family="sans-serif" font-size="13" lengthAdjust="spacing" textLength="8" x="1564.3482" y="749.4587">1</text><text fill="#000000" font-family="sans-serif" font-size="13" lengthAdjust="spacing" textLength="8" x="1450.9372" y="840.1002">1</text><!--MD5=[7e6ed26b9beb3c2669b6f01bc3869f3c]
reverse link Supplier to NotEnoughBoardsException--><path codeLine="215" d="M229.233,270.797 C242.658,293.399 258.864,320.682 270.149,339.681 " fill="none" id="Supplier-backto-NotEnoughBoardsException" style="stroke:#A80036;stroke-width:1.0;stroke-dasharray:7.0,7.0;"/><polygon fill="#A80036" points="226.587,266.343,227.7434,276.1237,229.1401,270.642,234.6218,272.0387,226.587,266.343" style="stroke:#A80036;stroke-width:1.0;"/><!--MD5=[f420d82f5518148aa1dde2b1a3f3eba2]
reverse link Cut to NotEnoughMoneyException--><path codeLine="217" d="M898.346,118.048 C857.642,145.615 804.467,181.629 770.269,204.79 " fill="none" id="Cut-backto-NotEnoughMoneyException" style="stroke:#A80036;stroke-width:1.0;stroke-dasharray:7.0,7.0;"/><polygon fill="#A80036" points="902.744,115.069,893.0493,116.8046,898.6043,117.8731,897.5358,123.4281,902.744,115.069" style="stroke:#A80036;stroke-width:1.0;"/><!--MD5=[6b89735f906705159b2f7c5cc100a36f]
reverse link Cut to TooLateException--><path codeLine="218" d="M1006.75,118.383 C1042.22,145.907 1088.37,181.723 1118.09,204.79 " fill="none" id="Cut-backto-TooLateException" style="stroke:#A80036;stroke-width:1.0;stroke-dasharray:7.0,7.0;"/><polygon fill="#A80036" points="1002.48,115.069,1007.1491,123.7408,1006.4341,118.1293,1012.0455,117.4143,1002.48,115.069" style="stroke:#A80036;stroke-width:1.0;"/><!--MD5=[b0b11baab9d4ec9579600bf7d8eaef5c]
reverse link Cut to NotBigEnoughException--><path codeLine="219" d="M956,120.071 C956,147.357 956,182.192 956,204.79 " fill="none" id="Cut-backto-NotBigEnoughException" style="stroke:#A80036;stroke-width:1.0;stroke-dasharray:7.0,7.0;"/><polygon fill="#A80036" points="956,115.069,952,124.069,956,120.069,960,124.069,956,115.069" style="stroke:#A80036;stroke-width:1.0;"/><!--MD5=[3782c2c904b2131fbb5482a2ee1c80ac]
reverse link Cut to Client--><path codeLine="220" d="M858.75,111.344 C780.815,137.265 672.368,173.333 596.766,198.477 " fill="none" id="Cut-backto-Client" style="stroke:#A80036;stroke-width:1.0;"/><polygon fill="#A80036" points="871.471,107.113,864.5152,105.211,860.0843,110.9002,867.0401,112.8022,871.471,107.113" style="stroke:#A80036;stroke-width:1.0;"/><text fill="#000000" font-family="sans-serif" font-size="13" lengthAdjust="spacing" textLength="34" x="747" y="158.0669">client</text><text fill="#000000" font-family="sans-serif" font-size="13" lengthAdjust="spacing" textLength="8" x="855.5864" y="106.1281">1</text><text fill="#000000" font-family="sans-serif" font-size="13" lengthAdjust="spacing" textLength="8" x="607.3086" y="187.2623">1</text><!--MD5=[009ab3dadc74d722b3baadebb26768e4]
reverse link Cut to Writable--><path codeLine="221" d="M1059.65,116.347 C1112.96,136.714 1178.46,163.539 1235,192 C1242.72,195.885 1250.76,200.432 1258.34,204.961 " fill="none" id="Cut-backto-Writable" style="stroke:#A80036;stroke-width:1.0;"/><polygon fill="none" points="1056.82,122.765,1040.59,109.145,1061.77,109.669,1056.82,122.765" style="stroke:#A80036;stroke-width:1.0;"/><!--MD5=[dffa5322d4757520fe9dc0a777fda6eb]
reverse link Writable to Writer--><path codeLine="223" d="M1305.39,266.103 C1329.89,337.399 1394.75,495.975 1508,572.5 C1614.42,644.411 2008.33,681.997 2156.32,693.82 " fill="none" id="Writable-backto-Writer" style="stroke:#A80036;stroke-width:1.0;"/><polygon fill="#A80036" points="1301.15,253.451,1299.2647,260.4113,1304.9645,264.8286,1306.8498,257.8683,1301.15,253.451" style="stroke:#A80036;stroke-width:1.0;"/><text fill="#000000" font-family="sans-serif" font-size="13" lengthAdjust="spacing" textLength="37" x="1393" y="444.0669">writer</text><text fill="#000000" font-family="sans-serif" font-size="13" lengthAdjust="spacing" textLength="8" x="1293.8784" y="272.9219">1</text><text fill="#000000" font-family="sans-serif" font-size="13" lengthAdjust="spacing" textLength="8" x="2140.5454" y="689.2833">1</text><!--MD5=[d7c9d4df32cae7b1fff2b5f3aa52f618]
reverse link Readable to Reader--><path codeLine="224" d="M1149.95,555.549 C1193.77,574.597 1256.54,600.653 1313,619.5 C1394.7,646.775 1491.52,670.878 1551.87,684.957 " fill="none" id="Readable-backto-Reader" style="stroke:#A80036;stroke-width:1.0;"/><polygon fill="#A80036" points="1137.84,550.25,1141.7382,556.3166,1148.8375,555.0516,1144.9393,548.985,1137.84,550.25" style="stroke:#A80036;stroke-width:1.0;"/><text fill="#000000" font-family="sans-serif" font-size="13" lengthAdjust="spacing" textLength="42" x="1314" y="615.5669">reader</text><text fill="#000000" font-family="sans-serif" font-size="13" lengthAdjust="spacing" textLength="8" x="1145.4645" y="549.4392">1</text><text fill="#000000" font-family="sans-serif" font-size="13" lengthAdjust="spacing" textLength="8" x="1535.9096" y="679.2847">1</text><!--MD5=[ba99d6ed3af3eedeedf3308d7a7e531b]
reverse link Actor to Readable--><path codeLine="226" d="M1021.88,418.299 C1041.17,447.775 1064.15,482.89 1078.9,505.427 " fill="none" id="Actor-backto-Readable" style="stroke:#A80036;stroke-width:1.0;"/><polygon fill="none" points="1015.84,421.854,1010.75,401.286,1027.56,414.188,1015.84,421.854" style="stroke:#A80036;stroke-width:1.0;"/><!--MD5=[edef7430a4571429bbc4653908f19d8d]
@startuml
package boards #DDDDDD{
	interface Validable{
		public boolean isValid()
	}

	interface Readable{
		
	}
	
	interface Writable{
		
	}

	class Price{
		private int value
		public boolean isValid()
	}
	
	class Amount{
		Private int value
		public boolean isValid()
	}

	class Dimension{
		private int value
		public boolean isValid()
	}

	abstract Polygon{
		private ArrayList<Point> points
		public boolean fitsInBoard(BoardData board)
		public boolean overlaps(Polygon p)
	}
	
	class AnyPolygon{
		
	}
	
	class Rectangle{
		
	}

	class Point{
		private int x
		private int y
		public boolean isInBoard(BoardData board)
	}

	class Color{
		private int r
		private int g
		private int b
		private String name
	}

	class Date{
		private int day
		private int month
		private int year

		public boolean isValid()
	}

	abstract BoardData{
		private int id
		private ArrayList<Validable> listV
		public boolean allValid()
	}

	class SupplierBoard{

	}

	class ClientBoard{
		private boolean validated
	}

	class Wood{
		private int durability
		private String origin
	}

	abstract Actor{
		private int id
		private ArrayList<BoardData> boards
	}

	class Client{

		public void validate(int boardId)
	}
	
	class Supplier{
		public ArrayList<BoardData> allValidBoards(ClientBoard b)
		public buy(BoardData b, Amount a)
	}
	
	
	class Cut{
		public boolean isCutValid()
		public void export(Writer w)
	}

	class NotEnoughMoneyException{
	
	}
	
	class NotBigEnoughException{
	
	}
	
	class NotEnoughBoardsException{
	
	}
	
	class TooLateException{
	
	}
	
	
}



package utils #DDDDDD{

	interface Reader{
		public Actor read()
	}
	
	interface Writer{
		public void write()
	}
	
	class SVGWriter{
		
		public void write()
	}
	
	class XMLWriter{
		
		public void write()
	}
	
	class JSONWriter{
		
		public void write()
	}
	
	class SVGReader{
		
		public void read(Actor a)
	}
	
	class XMLReader{
		
		public void read(Actor a)
	}
	
	class JSONReader{
		
		public void read(Actor a)
	}
	
	class WrongObjectException
	
}

class Exception

class FileInputStream

WrongObjectException <|- - Exception


SupplierBoard <|- -        BoardData
ClientBoard   <|- -        BoardData
ClientBoard   "1" *- - "1" Polygon : shape
Wood          "1" *- - "1" Color : color

Price     <|- - Validable
Date      <|- - Validable
Dimension <|- - Validable
Amount    <|- - Validable

BoardData "1" *- - "*" Validable
BoardData "1" *- - "1" Dimension : length
BoardData "1" *- - "1" Dimension : width
BoardData "1" *- - "1" Amount    : amount
BoardData "1" *- - "1" Date      : date
BoardData "1" *- - "1" Price     : price
BoardData <|- -        Wood

Polygon    "1" *- - "*" Point
Rectangle  <|- -        Polygon
AnyPolygon <|- -        Polygon


Actor "1" *- - "*" BoardData

Client   <|- - Actor
Supplier <|- - Actor

XMLWriter  <|- - Writer
SVGWriter  <|- - Writer
JSONWriter <|- - Writer

XMLReader  <|- - Reader
SVGReader  <|- - Reader
JSONReader <|- - Reader

Reader <..         WrongObjectException
Reader "1" *- - "1" FileInputStream 

Supplier <.. NotEnoughBoardsException

Cut <..         NotEnoughMoneyException
Cut <..         TooLateException 
Cut <..         NotBigEnoughException
Cut "1" *- - "1" Client : client
Cut <|- -        Writable

Writable "1" *- - "1" Writer : writer
Readable "1" *- - "1" Reader : reader

Actor <|- - Readable
@enduml

PlantUML version 1.2021.14(Fri Nov 12 16:46:50 UTC 2021)
(GPL source distribution)
Java Runtime: Java(TM) SE Runtime Environment
JVM: Java HotSpot(TM) 64-Bit Server VM
Default Encoding: UTF-8
Language: en
Country: US
--></g></svg>