<?xml version="1.0" encoding="UTF-8" standalone="no"?>
<svg xmlns="http://www.w3.org/2000/svg" xmlns:xlink="http://www.w3.org/1999/xlink" contentScriptType="application/ecmascript" contentStyleType="text/css" height="959px" preserveAspectRatio="none" style="width:2442px;height:959px;background:#FFFFFF;" version="1.1" viewBox="0 0 2442 959" width="2442px" zoomAndPan="magnify"><defs><filter height="300%" id="fbis4os0utgd8" width="300%" x="-1" y="-1"><feGaussianBlur result="blurOut" stdDeviation="2.0"/><feColorMatrix in="blurOut" result="blurOut2" type="matrix" values="0 0 0 0 0 0 0 0 0 0 0 0 0 0 0 0 0 0 .4 0"/><feOffset dx="4.0" dy="4.0" in="blurOut2" result="blurOut3"/><feBlend in="SourceGraphic" in2="blurOut3" mode="normal"/></filter></defs><g><!--MD5=[e9e2f49341507fe119d2a8719ccfe950]
cluster boards--><polygon fill="#DDDDDD" filter="url(#fbis4os0utgd8)" points="16,6,78,6,85,28.2969,1267,28.2969,1267,952,16,952,16,6" style="stroke:#000000;stroke-width:1.5;"/><line style="stroke:#000000;stroke-width:1.5;" x1="16" x2="85" y1="28.2969" y2="28.2969"/><text fill="#000000" font-family="sans-serif" font-size="14" font-weight="bold" lengthAdjust="spacing" textLength="56" x="20" y="20.9951">boards</text><!--MD5=[c52f45833d539af9e29a9d34b8b7302b]
cluster utils--><polygon fill="#DDDDDD" filter="url(#fbis4os0utgd8)" points="1425,341,1468,341,1475,363.2969,2425,363.2969,2425,757,1425,757,1425,341" style="stroke:#000000;stroke-width:1.5;"/><line style="stroke:#000000;stroke-width:1.5;" x1="1425" x2="1475" y1="363.2969" y2="363.2969"/><text fill="#000000" font-family="sans-serif" font-size="14" font-weight="bold" lengthAdjust="spacing" textLength="37" x="1429" y="355.9951">utils</text><!--MD5=[374b8b8aa3aab3f1819bbf292a762b3c]
class Validable--><rect codeLine="2" fill="#FEFECE" filter="url(#fbis4os0utgd8)" height="60.8047" id="Validable" style="stroke:#A80036;stroke-width:1.5;" width="144" x="689" y="686.5"/><ellipse cx="730.1" cy="702.5" fill="#B4A7E5" rx="11" ry="11" style="stroke:#A80036;stroke-width:1.0;"/><path d="M731.0531,699.2813 L732.7719,699.2813 C733.1625,699.2813 733.35,699.25 733.475,699.1719 C733.7406,699.0156 733.8813,698.7344 733.8813,698.4375 C733.8813,698.1719 733.7719,697.9063 733.5375,697.7344 C733.3656,697.625 733.225,697.5938 732.7719,697.5938 L727.6313,697.5938 C727.1938,697.5938 727.0688,697.6094 726.9125,697.7031 C726.6625,697.8594 726.5063,698.1563 726.5063,698.4375 C726.5063,698.7188 726.6469,698.9688 726.8656,699.1406 C727.0219,699.25 727.2094,699.2813 727.6313,699.2813 L729.35,699.2813 L729.35,705.7969 L727.6313,705.7969 C727.1938,705.7969 727.0688,705.8125 726.9125,705.9219 C726.6625,706.0781 726.5063,706.3594 726.5063,706.6563 C726.5063,706.9063 726.6469,707.1719 726.8656,707.3281 C727.0219,707.4531 727.225,707.5 727.6313,707.5 L732.7719,707.5 C733.5219,707.5 733.8813,707.2188 733.8813,706.6563 C733.8813,706.375 733.7719,706.125 733.5375,705.9531 C733.3656,705.8281 733.225,705.7969 732.7719,705.7969 L731.0531,705.7969 L731.0531,699.2813 Z " fill="#000000"/><text fill="#000000" font-family="sans-serif" font-size="12" font-style="italic" lengthAdjust="spacing" textLength="54" x="749.9" y="706.6543">Validable</text><line style="stroke:#A80036;stroke-width:1.5;" x1="690" x2="832" y1="718.5" y2="718.5"/><line style="stroke:#A80036;stroke-width:1.5;" x1="690" x2="832" y1="726.5" y2="726.5"/><text fill="#000000" font-family="sans-serif" font-size="11" lengthAdjust="spacing" textLength="132" x="695" y="740.7104">public boolean isValid()</text><!--MD5=[a40a7ac4b423335b0d34bf16cf36e547]
class Price--><rect codeLine="6" fill="#FEFECE" filter="url(#fbis4os0utgd8)" height="73.6094" id="Price" style="stroke:#A80036;stroke-width:1.5;" width="144" x="868" y="526.5"/><ellipse cx="921.25" cy="542.5" fill="#ADD1B2" rx="11" ry="11" style="stroke:#A80036;stroke-width:1.0;"/><path d="M923.5938,538.1719 C922.6563,537.7344 922.0625,537.5938 921.1875,537.5938 C918.5625,537.5938 916.5625,539.6719 916.5625,542.3906 L916.5625,543.5156 C916.5625,546.0938 918.6719,547.9844 921.5625,547.9844 C922.7813,547.9844 923.9375,547.6875 924.6875,547.1406 C925.2656,546.7344 925.5938,546.2813 925.5938,545.8906 C925.5938,545.4375 925.2031,545.0469 924.7344,545.0469 C924.5156,545.0469 924.3125,545.125 924.125,545.3125 C923.6719,545.7969 923.6719,545.7969 923.4844,545.8906 C923.0625,546.1563 922.375,546.2813 921.6094,546.2813 C919.5625,546.2813 918.2656,545.1875 918.2656,543.4844 L918.2656,542.3906 C918.2656,540.6094 919.5156,539.2969 921.25,539.2969 C921.8281,539.2969 922.4375,539.4531 922.9063,539.7031 C923.3906,539.9844 923.5625,540.2031 923.6563,540.6094 C923.7188,541.0156 923.75,541.1406 923.8906,541.2656 C924.0313,541.4063 924.2656,541.5156 924.4844,541.5156 C924.75,541.5156 925.0156,541.375 925.1875,541.1563 C925.2969,541 925.3281,540.8125 925.3281,540.3906 L925.3281,538.9688 C925.3281,538.5313 925.3125,538.4063 925.2188,538.25 C925.0625,537.9844 924.7813,537.8438 924.4844,537.8438 C924.1875,537.8438 923.9844,537.9375 923.7656,538.25 L923.5938,538.1719 Z " fill="#000000"/><text fill="#000000" font-family="sans-serif" font-size="12" lengthAdjust="spacing" textLength="29" x="941.75" y="546.6543">Price</text><line style="stroke:#A80036;stroke-width:1.5;" x1="869" x2="1011" y1="558.5" y2="558.5"/><text fill="#000000" font-family="sans-serif" font-size="11" lengthAdjust="spacing" textLength="94" x="874" y="572.7104">private int value</text><line style="stroke:#A80036;stroke-width:1.5;" x1="869" x2="1011" y1="579.3047" y2="579.3047"/><text fill="#000000" font-family="sans-serif" font-size="11" lengthAdjust="spacing" textLength="132" x="874" y="593.5151">public boolean isValid()</text><!--MD5=[2770d511fa22a6a61bb54ccdb4cbf396]
class Amount--><rect codeLine="11" fill="#FEFECE" filter="url(#fbis4os0utgd8)" height="73.6094" id="Amount" style="stroke:#A80036;stroke-width:1.5;" width="144" x="510" y="526.5"/><ellipse cx="555.25" cy="542.5" fill="#ADD1B2" rx="11" ry="11" style="stroke:#A80036;stroke-width:1.0;"/><path d="M557.5938,538.1719 C556.6563,537.7344 556.0625,537.5938 555.1875,537.5938 C552.5625,537.5938 550.5625,539.6719 550.5625,542.3906 L550.5625,543.5156 C550.5625,546.0938 552.6719,547.9844 555.5625,547.9844 C556.7813,547.9844 557.9375,547.6875 558.6875,547.1406 C559.2656,546.7344 559.5938,546.2813 559.5938,545.8906 C559.5938,545.4375 559.2031,545.0469 558.7344,545.0469 C558.5156,545.0469 558.3125,545.125 558.125,545.3125 C557.6719,545.7969 557.6719,545.7969 557.4844,545.8906 C557.0625,546.1563 556.375,546.2813 555.6094,546.2813 C553.5625,546.2813 552.2656,545.1875 552.2656,543.4844 L552.2656,542.3906 C552.2656,540.6094 553.5156,539.2969 555.25,539.2969 C555.8281,539.2969 556.4375,539.4531 556.9063,539.7031 C557.3906,539.9844 557.5625,540.2031 557.6563,540.6094 C557.7188,541.0156 557.75,541.1406 557.8906,541.2656 C558.0313,541.4063 558.2656,541.5156 558.4844,541.5156 C558.75,541.5156 559.0156,541.375 559.1875,541.1563 C559.2969,541 559.3281,540.8125 559.3281,540.3906 L559.3281,538.9688 C559.3281,538.5313 559.3125,538.4063 559.2188,538.25 C559.0625,537.9844 558.7813,537.8438 558.4844,537.8438 C558.1875,537.8438 557.9844,537.9375 557.7656,538.25 L557.5938,538.1719 Z " fill="#000000"/><text fill="#000000" font-family="sans-serif" font-size="12" lengthAdjust="spacing" textLength="45" x="575.75" y="546.6543">Amount</text><line style="stroke:#A80036;stroke-width:1.5;" x1="511" x2="653" y1="558.5" y2="558.5"/><text fill="#000000" font-family="sans-serif" font-size="11" lengthAdjust="spacing" textLength="93" x="516" y="572.7104">Private int value</text><line style="stroke:#A80036;stroke-width:1.5;" x1="511" x2="653" y1="579.3047" y2="579.3047"/><text fill="#000000" font-family="sans-serif" font-size="11" lengthAdjust="spacing" textLength="132" x="516" y="593.5151">public boolean isValid()</text><!--MD5=[798b653493d2d1d93374769a27a9ba0c]
class Dimension--><rect codeLine="16" fill="#FEFECE" filter="url(#fbis4os0utgd8)" height="73.6094" id="Dimension" style="stroke:#A80036;stroke-width:1.5;" width="144" x="331" y="526.5"/><ellipse cx="368.05" cy="542.5" fill="#ADD1B2" rx="11" ry="11" style="stroke:#A80036;stroke-width:1.0;"/><path d="M370.3938,538.1719 C369.4563,537.7344 368.8625,537.5938 367.9875,537.5938 C365.3625,537.5938 363.3625,539.6719 363.3625,542.3906 L363.3625,543.5156 C363.3625,546.0938 365.4719,547.9844 368.3625,547.9844 C369.5813,547.9844 370.7375,547.6875 371.4875,547.1406 C372.0656,546.7344 372.3938,546.2813 372.3938,545.8906 C372.3938,545.4375 372.0031,545.0469 371.5344,545.0469 C371.3156,545.0469 371.1125,545.125 370.925,545.3125 C370.4719,545.7969 370.4719,545.7969 370.2844,545.8906 C369.8625,546.1563 369.175,546.2813 368.4094,546.2813 C366.3625,546.2813 365.0656,545.1875 365.0656,543.4844 L365.0656,542.3906 C365.0656,540.6094 366.3156,539.2969 368.05,539.2969 C368.6281,539.2969 369.2375,539.4531 369.7063,539.7031 C370.1906,539.9844 370.3625,540.2031 370.4563,540.6094 C370.5188,541.0156 370.55,541.1406 370.6906,541.2656 C370.8313,541.4063 371.0656,541.5156 371.2844,541.5156 C371.55,541.5156 371.8156,541.375 371.9875,541.1563 C372.0969,541 372.1281,540.8125 372.1281,540.3906 L372.1281,538.9688 C372.1281,538.5313 372.1125,538.4063 372.0188,538.25 C371.8625,537.9844 371.5813,537.8438 371.2844,537.8438 C370.9875,537.8438 370.7844,537.9375 370.5656,538.25 L370.3938,538.1719 Z " fill="#000000"/><text fill="#000000" font-family="sans-serif" font-size="12" lengthAdjust="spacing" textLength="63" x="386.95" y="546.6543">Dimension</text><line style="stroke:#A80036;stroke-width:1.5;" x1="332" x2="474" y1="558.5" y2="558.5"/><text fill="#000000" font-family="sans-serif" font-size="11" lengthAdjust="spacing" textLength="94" x="337" y="572.7104">private int value</text><line style="stroke:#A80036;stroke-width:1.5;" x1="332" x2="474" y1="579.3047" y2="579.3047"/><text fill="#000000" font-family="sans-serif" font-size="11" lengthAdjust="spacing" textLength="132" x="337" y="593.5151">public boolean isValid()</text><!--MD5=[129471aa5ea5c93eb409af5033b83b34]
class Polygon--><rect codeLine="21" fill="#FEFECE" filter="url(#fbis4os0utgd8)" height="73.6094" id="Polygon" style="stroke:#A80036;stroke-width:1.5;" width="263" x="32.5" y="526.5"/><ellipse cx="136.25" cy="542.5" fill="#A9DCDF" rx="11" ry="11" style="stroke:#A80036;stroke-width:1.0;"/><path d="M138.3281,544.3125 L138.7188,545.2969 L138.3281,545.2969 C137.875,545.2969 137.7656,545.3125 137.6094,545.4219 C137.3594,545.5781 137.2031,545.8594 137.2031,546.1563 C137.2031,546.4219 137.3438,546.6719 137.5625,546.8281 C137.7031,546.9531 137.9063,547 138.3281,547 L140.6875,547 C141.0469,547 141.2656,546.9688 141.4063,546.875 C141.6563,546.7344 141.8125,546.4375 141.8125,546.1563 C141.8125,545.875 141.6719,545.625 141.4531,545.4688 C141.2813,545.3281 141.125,545.2969 140.6563,545.2969 L137.2656,537.0938 L133.5938,537.0938 C133.1406,537.0938 133.0156,537.1094 132.8594,537.2031 C132.6094,537.375 132.4531,537.6563 132.4531,537.9375 C132.4531,538.2188 132.5938,538.4688 132.8125,538.6406 C132.9844,538.75 133.1563,538.7813 133.5938,538.7813 L134.6719,538.7813 L132.0313,545.2969 C131.6094,545.2969 131.4531,545.3125 131.2969,545.4219 C131.0469,545.5781 130.8906,545.8594 130.8906,546.1563 C130.8906,546.7188 131.2656,547 132.0156,547 L134.2813,547 C134.6406,547 134.8594,546.9688 134.9844,546.875 C135.25,546.7344 135.3906,546.4375 135.3906,546.1563 C135.3906,545.875 135.2656,545.625 135.0469,545.4531 C134.875,545.3281 134.7344,545.2969 134.2813,545.2969 L133.8906,545.2969 L134.2813,544.3125 L138.3281,544.3125 Z M137.625,542.6094 L134.9531,542.6094 L136.2969,539.3438 L137.625,542.6094 Z " fill="#000000"/><text fill="#000000" font-family="sans-serif" font-size="12" font-style="italic" lengthAdjust="spacing" textLength="47" x="156.75" y="546.6543">Polygon</text><line style="stroke:#A80036;stroke-width:1.5;" x1="33.5" x2="294.5" y1="558.5" y2="558.5"/><text fill="#000000" font-family="sans-serif" font-size="11" lengthAdjust="spacing" textLength="176" x="38.5" y="572.7104">private ArrayList&lt;Point&gt; points</text><line style="stroke:#A80036;stroke-width:1.5;" x1="33.5" x2="294.5" y1="579.3047" y2="579.3047"/><text fill="#000000" font-family="sans-serif" font-size="11" lengthAdjust="spacing" textLength="251" x="38.5" y="593.5151">public boolean fitsInBoard(BoardData board)</text><!--MD5=[152b1c1d10c7c417b82d898be81492c7]
class AnyPolygon--><rect codeLine="26" fill="#FEFECE" filter="url(#fbis4os0utgd8)" height="48" id="AnyPolygon" style="stroke:#A80036;stroke-width:1.5;" width="101" x="190.5" y="382.5"/><ellipse cx="205.5" cy="398.5" fill="#ADD1B2" rx="11" ry="11" style="stroke:#A80036;stroke-width:1.0;"/><path d="M207.8438,394.1719 C206.9063,393.7344 206.3125,393.5938 205.4375,393.5938 C202.8125,393.5938 200.8125,395.6719 200.8125,398.3906 L200.8125,399.5156 C200.8125,402.0938 202.9219,403.9844 205.8125,403.9844 C207.0313,403.9844 208.1875,403.6875 208.9375,403.1406 C209.5156,402.7344 209.8438,402.2813 209.8438,401.8906 C209.8438,401.4375 209.4531,401.0469 208.9844,401.0469 C208.7656,401.0469 208.5625,401.125 208.375,401.3125 C207.9219,401.7969 207.9219,401.7969 207.7344,401.8906 C207.3125,402.1563 206.625,402.2813 205.8594,402.2813 C203.8125,402.2813 202.5156,401.1875 202.5156,399.4844 L202.5156,398.3906 C202.5156,396.6094 203.7656,395.2969 205.5,395.2969 C206.0781,395.2969 206.6875,395.4531 207.1563,395.7031 C207.6406,395.9844 207.8125,396.2031 207.9063,396.6094 C207.9688,397.0156 208,397.1406 208.1406,397.2656 C208.2813,397.4063 208.5156,397.5156 208.7344,397.5156 C209,397.5156 209.2656,397.375 209.4375,397.1563 C209.5469,397 209.5781,396.8125 209.5781,396.3906 L209.5781,394.9688 C209.5781,394.5313 209.5625,394.4063 209.4688,394.25 C209.3125,393.9844 209.0313,393.8438 208.7344,393.8438 C208.4375,393.8438 208.2344,393.9375 208.0156,394.25 L207.8438,394.1719 Z " fill="#000000"/><text fill="#000000" font-family="sans-serif" font-size="12" lengthAdjust="spacing" textLength="69" x="219.5" y="402.6543">AnyPolygon</text><line style="stroke:#A80036;stroke-width:1.5;" x1="191.5" x2="290.5" y1="414.5" y2="414.5"/><line style="stroke:#A80036;stroke-width:1.5;" x1="191.5" x2="290.5" y1="422.5" y2="422.5"/><!--MD5=[b5313cd49da22b0744b541f414f8445e]
class Rectangle--><rect codeLine="30" fill="#FEFECE" filter="url(#fbis4os0utgd8)" height="48" id="Rectangle" style="stroke:#A80036;stroke-width:1.5;" width="91" x="64.5" y="382.5"/><ellipse cx="79.5" cy="398.5" fill="#ADD1B2" rx="11" ry="11" style="stroke:#A80036;stroke-width:1.0;"/><path d="M81.8438,394.1719 C80.9063,393.7344 80.3125,393.5938 79.4375,393.5938 C76.8125,393.5938 74.8125,395.6719 74.8125,398.3906 L74.8125,399.5156 C74.8125,402.0938 76.9219,403.9844 79.8125,403.9844 C81.0313,403.9844 82.1875,403.6875 82.9375,403.1406 C83.5156,402.7344 83.8438,402.2813 83.8438,401.8906 C83.8438,401.4375 83.4531,401.0469 82.9844,401.0469 C82.7656,401.0469 82.5625,401.125 82.375,401.3125 C81.9219,401.7969 81.9219,401.7969 81.7344,401.8906 C81.3125,402.1563 80.625,402.2813 79.8594,402.2813 C77.8125,402.2813 76.5156,401.1875 76.5156,399.4844 L76.5156,398.3906 C76.5156,396.6094 77.7656,395.2969 79.5,395.2969 C80.0781,395.2969 80.6875,395.4531 81.1563,395.7031 C81.6406,395.9844 81.8125,396.2031 81.9063,396.6094 C81.9688,397.0156 82,397.1406 82.1406,397.2656 C82.2813,397.4063 82.5156,397.5156 82.7344,397.5156 C83,397.5156 83.2656,397.375 83.4375,397.1563 C83.5469,397 83.5781,396.8125 83.5781,396.3906 L83.5781,394.9688 C83.5781,394.5313 83.5625,394.4063 83.4688,394.25 C83.3125,393.9844 83.0313,393.8438 82.7344,393.8438 C82.4375,393.8438 82.2344,393.9375 82.0156,394.25 L81.8438,394.1719 Z " fill="#000000"/><text fill="#000000" font-family="sans-serif" font-size="12" lengthAdjust="spacing" textLength="59" x="93.5" y="402.6543">Rectangle</text><line style="stroke:#A80036;stroke-width:1.5;" x1="65.5" x2="154.5" y1="414.5" y2="414.5"/><line style="stroke:#A80036;stroke-width:1.5;" x1="65.5" x2="154.5" y1="422.5" y2="422.5"/><!--MD5=[972bde5337b4335dd91fa5354c932445]
class Point--><rect codeLine="34" fill="#FEFECE" filter="url(#fbis4os0utgd8)" height="86.4141" id="Point" style="stroke:#A80036;stroke-width:1.5;" width="255" x="36.5" y="674"/><ellipse cx="145.75" cy="690" fill="#ADD1B2" rx="11" ry="11" style="stroke:#A80036;stroke-width:1.0;"/><path d="M148.0938,685.6719 C147.1563,685.2344 146.5625,685.0938 145.6875,685.0938 C143.0625,685.0938 141.0625,687.1719 141.0625,689.8906 L141.0625,691.0156 C141.0625,693.5938 143.1719,695.4844 146.0625,695.4844 C147.2813,695.4844 148.4375,695.1875 149.1875,694.6406 C149.7656,694.2344 150.0938,693.7813 150.0938,693.3906 C150.0938,692.9375 149.7031,692.5469 149.2344,692.5469 C149.0156,692.5469 148.8125,692.625 148.625,692.8125 C148.1719,693.2969 148.1719,693.2969 147.9844,693.3906 C147.5625,693.6563 146.875,693.7813 146.1094,693.7813 C144.0625,693.7813 142.7656,692.6875 142.7656,690.9844 L142.7656,689.8906 C142.7656,688.1094 144.0156,686.7969 145.75,686.7969 C146.3281,686.7969 146.9375,686.9531 147.4063,687.2031 C147.8906,687.4844 148.0625,687.7031 148.1563,688.1094 C148.2188,688.5156 148.25,688.6406 148.3906,688.7656 C148.5313,688.9063 148.7656,689.0156 148.9844,689.0156 C149.25,689.0156 149.5156,688.875 149.6875,688.6563 C149.7969,688.5 149.8281,688.3125 149.8281,687.8906 L149.8281,686.4688 C149.8281,686.0313 149.8125,685.9063 149.7188,685.75 C149.5625,685.4844 149.2813,685.3438 148.9844,685.3438 C148.6875,685.3438 148.4844,685.4375 148.2656,685.75 L148.0938,685.6719 Z " fill="#000000"/><text fill="#000000" font-family="sans-serif" font-size="12" lengthAdjust="spacing" textLength="28" x="166.25" y="694.1543">Point</text><line style="stroke:#A80036;stroke-width:1.5;" x1="37.5" x2="290.5" y1="706" y2="706"/><text fill="#000000" font-family="sans-serif" font-size="11" lengthAdjust="spacing" textLength="69" x="42.5" y="720.2104">private int x</text><text fill="#000000" font-family="sans-serif" font-size="11" lengthAdjust="spacing" textLength="69" x="42.5" y="733.0151">private int y</text><line style="stroke:#A80036;stroke-width:1.5;" x1="37.5" x2="290.5" y1="739.6094" y2="739.6094"/><text fill="#000000" font-family="sans-serif" font-size="11" lengthAdjust="spacing" textLength="243" x="42.5" y="753.8198">public boolean isInBoard(BoardData board)</text><!--MD5=[18eee71c88ab61f27581b8cbdd3ef5ee]
class Color--><rect codeLine="40" fill="#FEFECE" filter="url(#fbis4os0utgd8)" height="99.2188" id="Color" style="stroke:#A80036;stroke-width:1.5;" width="126" x="1086" y="837"/><ellipse cx="1128.9" cy="853" fill="#ADD1B2" rx="11" ry="11" style="stroke:#A80036;stroke-width:1.0;"/><path d="M1131.2438,848.6719 C1130.3063,848.2344 1129.7125,848.0938 1128.8375,848.0938 C1126.2125,848.0938 1124.2125,850.1719 1124.2125,852.8906 L1124.2125,854.0156 C1124.2125,856.5938 1126.3219,858.4844 1129.2125,858.4844 C1130.4313,858.4844 1131.5875,858.1875 1132.3375,857.6406 C1132.9156,857.2344 1133.2438,856.7813 1133.2438,856.3906 C1133.2438,855.9375 1132.8531,855.5469 1132.3844,855.5469 C1132.1656,855.5469 1131.9625,855.625 1131.775,855.8125 C1131.3219,856.2969 1131.3219,856.2969 1131.1344,856.3906 C1130.7125,856.6563 1130.025,856.7813 1129.2594,856.7813 C1127.2125,856.7813 1125.9156,855.6875 1125.9156,853.9844 L1125.9156,852.8906 C1125.9156,851.1094 1127.1656,849.7969 1128.9,849.7969 C1129.4781,849.7969 1130.0875,849.9531 1130.5563,850.2031 C1131.0406,850.4844 1131.2125,850.7031 1131.3063,851.1094 C1131.3688,851.5156 1131.4,851.6406 1131.5406,851.7656 C1131.6813,851.9063 1131.9156,852.0156 1132.1344,852.0156 C1132.4,852.0156 1132.6656,851.875 1132.8375,851.6563 C1132.9469,851.5 1132.9781,851.3125 1132.9781,850.8906 L1132.9781,849.4688 C1132.9781,849.0313 1132.9625,848.9063 1132.8688,848.75 C1132.7125,848.4844 1132.4313,848.3438 1132.1344,848.3438 C1131.8375,848.3438 1131.6344,848.4375 1131.4156,848.75 L1131.2438,848.6719 Z " fill="#000000"/><text fill="#000000" font-family="sans-serif" font-size="12" lengthAdjust="spacing" textLength="32" x="1149.1" y="857.1543">Color</text><line style="stroke:#A80036;stroke-width:1.5;" x1="1087" x2="1211" y1="869" y2="869"/><text fill="#000000" font-family="sans-serif" font-size="11" lengthAdjust="spacing" textLength="66" x="1092" y="883.2104">private int r</text><text fill="#000000" font-family="sans-serif" font-size="11" lengthAdjust="spacing" textLength="69" x="1092" y="896.0151">private int g</text><text fill="#000000" font-family="sans-serif" font-size="11" lengthAdjust="spacing" textLength="69" x="1092" y="908.8198">private int b</text><text fill="#000000" font-family="sans-serif" font-size="11" lengthAdjust="spacing" textLength="114" x="1092" y="921.6245">private String name</text><line style="stroke:#A80036;stroke-width:1.5;" x1="1087" x2="1211" y1="928.2188" y2="928.2188"/><!--MD5=[7829b64950ce38e0487c4015ea331f97]
class Date--><rect codeLine="47" fill="#FEFECE" filter="url(#fbis4os0utgd8)" height="99.2188" id="Date" style="stroke:#A80036;stroke-width:1.5;" width="144" x="689" y="514"/><ellipse cx="742.75" cy="530" fill="#ADD1B2" rx="11" ry="11" style="stroke:#A80036;stroke-width:1.0;"/><path d="M745.0938,525.6719 C744.1563,525.2344 743.5625,525.0938 742.6875,525.0938 C740.0625,525.0938 738.0625,527.1719 738.0625,529.8906 L738.0625,531.0156 C738.0625,533.5938 740.1719,535.4844 743.0625,535.4844 C744.2813,535.4844 745.4375,535.1875 746.1875,534.6406 C746.7656,534.2344 747.0938,533.7813 747.0938,533.3906 C747.0938,532.9375 746.7031,532.5469 746.2344,532.5469 C746.0156,532.5469 745.8125,532.625 745.625,532.8125 C745.1719,533.2969 745.1719,533.2969 744.9844,533.3906 C744.5625,533.6563 743.875,533.7813 743.1094,533.7813 C741.0625,533.7813 739.7656,532.6875 739.7656,530.9844 L739.7656,529.8906 C739.7656,528.1094 741.0156,526.7969 742.75,526.7969 C743.3281,526.7969 743.9375,526.9531 744.4063,527.2031 C744.8906,527.4844 745.0625,527.7031 745.1563,528.1094 C745.2188,528.5156 745.25,528.6406 745.3906,528.7656 C745.5313,528.9063 745.7656,529.0156 745.9844,529.0156 C746.25,529.0156 746.5156,528.875 746.6875,528.6563 C746.7969,528.5 746.8281,528.3125 746.8281,527.8906 L746.8281,526.4688 C746.8281,526.0313 746.8125,525.9063 746.7188,525.75 C746.5625,525.4844 746.2813,525.3438 745.9844,525.3438 C745.6875,525.3438 745.4844,525.4375 745.2656,525.75 L745.0938,525.6719 Z " fill="#000000"/><text fill="#000000" font-family="sans-serif" font-size="12" lengthAdjust="spacing" textLength="28" x="763.25" y="534.1543">Date</text><line style="stroke:#A80036;stroke-width:1.5;" x1="690" x2="832" y1="546" y2="546"/><text fill="#000000" font-family="sans-serif" font-size="11" lengthAdjust="spacing" textLength="83" x="695" y="560.2104">private int day</text><text fill="#000000" font-family="sans-serif" font-size="11" lengthAdjust="spacing" textLength="98" x="695" y="573.0151">private int month</text><text fill="#000000" font-family="sans-serif" font-size="11" lengthAdjust="spacing" textLength="88" x="695" y="585.8198">private int year</text><line style="stroke:#A80036;stroke-width:1.5;" x1="690" x2="832" y1="592.4141" y2="592.4141"/><text fill="#000000" font-family="sans-serif" font-size="11" lengthAdjust="spacing" textLength="132" x="695" y="606.6245">public boolean isValid()</text><!--MD5=[0909f770091320ea321e570d876c6ba8]
class BoardData--><rect codeLine="54" fill="#FEFECE" filter="url(#fbis4os0utgd8)" height="86.4141" id="BoardData" style="stroke:#A80036;stroke-width:1.5;" width="204" x="1047" y="520.5"/><ellipse cx="1113.25" cy="536.5" fill="#A9DCDF" rx="11" ry="11" style="stroke:#A80036;stroke-width:1.0;"/><path d="M1115.3281,538.3125 L1115.7188,539.2969 L1115.3281,539.2969 C1114.875,539.2969 1114.7656,539.3125 1114.6094,539.4219 C1114.3594,539.5781 1114.2031,539.8594 1114.2031,540.1563 C1114.2031,540.4219 1114.3438,540.6719 1114.5625,540.8281 C1114.7031,540.9531 1114.9063,541 1115.3281,541 L1117.6875,541 C1118.0469,541 1118.2656,540.9688 1118.4063,540.875 C1118.6563,540.7344 1118.8125,540.4375 1118.8125,540.1563 C1118.8125,539.875 1118.6719,539.625 1118.4531,539.4688 C1118.2813,539.3281 1118.125,539.2969 1117.6563,539.2969 L1114.2656,531.0938 L1110.5938,531.0938 C1110.1406,531.0938 1110.0156,531.1094 1109.8594,531.2031 C1109.6094,531.375 1109.4531,531.6563 1109.4531,531.9375 C1109.4531,532.2188 1109.5938,532.4688 1109.8125,532.6406 C1109.9844,532.75 1110.1563,532.7813 1110.5938,532.7813 L1111.6719,532.7813 L1109.0313,539.2969 C1108.6094,539.2969 1108.4531,539.3125 1108.2969,539.4219 C1108.0469,539.5781 1107.8906,539.8594 1107.8906,540.1563 C1107.8906,540.7188 1108.2656,541 1109.0156,541 L1111.2813,541 C1111.6406,541 1111.8594,540.9688 1111.9844,540.875 C1112.25,540.7344 1112.3906,540.4375 1112.3906,540.1563 C1112.3906,539.875 1112.2656,539.625 1112.0469,539.4531 C1111.875,539.3281 1111.7344,539.2969 1111.2813,539.2969 L1110.8906,539.2969 L1111.2813,538.3125 L1115.3281,538.3125 Z M1114.625,536.6094 L1111.9531,536.6094 L1113.2969,533.3438 L1114.625,536.6094 Z " fill="#000000"/><text fill="#000000" font-family="sans-serif" font-size="12" font-style="italic" lengthAdjust="spacing" textLength="63" x="1133.75" y="540.6543">BoardData</text><line style="stroke:#A80036;stroke-width:1.5;" x1="1048" x2="1250" y1="552.5" y2="552.5"/><text fill="#000000" font-family="sans-serif" font-size="11" lengthAdjust="spacing" textLength="72" x="1053" y="566.7104">private int id</text><text fill="#000000" font-family="sans-serif" font-size="11" lengthAdjust="spacing" textLength="192" x="1053" y="579.5151">private ArrayList&lt;Validable&gt; listV</text><line style="stroke:#A80036;stroke-width:1.5;" x1="1048" x2="1250" y1="586.1094" y2="586.1094"/><text fill="#000000" font-family="sans-serif" font-size="11" lengthAdjust="spacing" textLength="136" x="1053" y="600.3198">public boolean allValid()</text><!--MD5=[0f3f995994a5568d5424480c9ad436f1]
class SupplierBoard--><rect codeLine="60" fill="#FEFECE" filter="url(#fbis4os0utgd8)" height="48" id="SupplierBoard" style="stroke:#A80036;stroke-width:1.5;" width="118" x="872" y="382.5"/><ellipse cx="887" cy="398.5" fill="#ADD1B2" rx="11" ry="11" style="stroke:#A80036;stroke-width:1.0;"/><path d="M889.3438,394.1719 C888.4063,393.7344 887.8125,393.5938 886.9375,393.5938 C884.3125,393.5938 882.3125,395.6719 882.3125,398.3906 L882.3125,399.5156 C882.3125,402.0938 884.4219,403.9844 887.3125,403.9844 C888.5313,403.9844 889.6875,403.6875 890.4375,403.1406 C891.0156,402.7344 891.3438,402.2813 891.3438,401.8906 C891.3438,401.4375 890.9531,401.0469 890.4844,401.0469 C890.2656,401.0469 890.0625,401.125 889.875,401.3125 C889.4219,401.7969 889.4219,401.7969 889.2344,401.8906 C888.8125,402.1563 888.125,402.2813 887.3594,402.2813 C885.3125,402.2813 884.0156,401.1875 884.0156,399.4844 L884.0156,398.3906 C884.0156,396.6094 885.2656,395.2969 887,395.2969 C887.5781,395.2969 888.1875,395.4531 888.6563,395.7031 C889.1406,395.9844 889.3125,396.2031 889.4063,396.6094 C889.4688,397.0156 889.5,397.1406 889.6406,397.2656 C889.7813,397.4063 890.0156,397.5156 890.2344,397.5156 C890.5,397.5156 890.7656,397.375 890.9375,397.1563 C891.0469,397 891.0781,396.8125 891.0781,396.3906 L891.0781,394.9688 C891.0781,394.5313 891.0625,394.4063 890.9688,394.25 C890.8125,393.9844 890.5313,393.8438 890.2344,393.8438 C889.9375,393.8438 889.7344,393.9375 889.5156,394.25 L889.3438,394.1719 Z " fill="#000000"/><text fill="#000000" font-family="sans-serif" font-size="12" lengthAdjust="spacing" textLength="86" x="901" y="402.6543">SupplierBoard</text><line style="stroke:#A80036;stroke-width:1.5;" x1="873" x2="989" y1="414.5" y2="414.5"/><line style="stroke:#A80036;stroke-width:1.5;" x1="873" x2="989" y1="422.5" y2="422.5"/><!--MD5=[b4a0c11f278bdcd3ad870fc614b4f14b]
class ClientBoard--><rect codeLine="64" fill="#FEFECE" filter="url(#fbis4os0utgd8)" height="48" id="ClientBoard" style="stroke:#A80036;stroke-width:1.5;" width="101" x="535.5" y="382.5"/><ellipse cx="550.5" cy="398.5" fill="#ADD1B2" rx="11" ry="11" style="stroke:#A80036;stroke-width:1.0;"/><path d="M552.8438,394.1719 C551.9063,393.7344 551.3125,393.5938 550.4375,393.5938 C547.8125,393.5938 545.8125,395.6719 545.8125,398.3906 L545.8125,399.5156 C545.8125,402.0938 547.9219,403.9844 550.8125,403.9844 C552.0313,403.9844 553.1875,403.6875 553.9375,403.1406 C554.5156,402.7344 554.8438,402.2813 554.8438,401.8906 C554.8438,401.4375 554.4531,401.0469 553.9844,401.0469 C553.7656,401.0469 553.5625,401.125 553.375,401.3125 C552.9219,401.7969 552.9219,401.7969 552.7344,401.8906 C552.3125,402.1563 551.625,402.2813 550.8594,402.2813 C548.8125,402.2813 547.5156,401.1875 547.5156,399.4844 L547.5156,398.3906 C547.5156,396.6094 548.7656,395.2969 550.5,395.2969 C551.0781,395.2969 551.6875,395.4531 552.1563,395.7031 C552.6406,395.9844 552.8125,396.2031 552.9063,396.6094 C552.9688,397.0156 553,397.1406 553.1406,397.2656 C553.2813,397.4063 553.5156,397.5156 553.7344,397.5156 C554,397.5156 554.2656,397.375 554.4375,397.1563 C554.5469,397 554.5781,396.8125 554.5781,396.3906 L554.5781,394.9688 C554.5781,394.5313 554.5625,394.4063 554.4688,394.25 C554.3125,393.9844 554.0313,393.8438 553.7344,393.8438 C553.4375,393.8438 553.2344,393.9375 553.0156,394.25 L552.8438,394.1719 Z " fill="#000000"/><text fill="#000000" font-family="sans-serif" font-size="12" lengthAdjust="spacing" textLength="69" x="564.5" y="402.6543">ClientBoard</text><line style="stroke:#A80036;stroke-width:1.5;" x1="536.5" x2="635.5" y1="414.5" y2="414.5"/><line style="stroke:#A80036;stroke-width:1.5;" x1="536.5" x2="635.5" y1="422.5" y2="422.5"/><!--MD5=[96adab746300ddb31058c1750a1a5f6d]
class Wood--><rect codeLine="68" fill="#FEFECE" filter="url(#fbis4os0utgd8)" height="73.6094" id="Wood" style="stroke:#A80036;stroke-width:1.5;" width="126" x="1086" y="680"/><ellipse cx="1127.1" cy="696" fill="#ADD1B2" rx="11" ry="11" style="stroke:#A80036;stroke-width:1.0;"/><path d="M1129.4438,691.6719 C1128.5063,691.2344 1127.9125,691.0938 1127.0375,691.0938 C1124.4125,691.0938 1122.4125,693.1719 1122.4125,695.8906 L1122.4125,697.0156 C1122.4125,699.5938 1124.5219,701.4844 1127.4125,701.4844 C1128.6313,701.4844 1129.7875,701.1875 1130.5375,700.6406 C1131.1156,700.2344 1131.4438,699.7813 1131.4438,699.3906 C1131.4438,698.9375 1131.0531,698.5469 1130.5844,698.5469 C1130.3656,698.5469 1130.1625,698.625 1129.975,698.8125 C1129.5219,699.2969 1129.5219,699.2969 1129.3344,699.3906 C1128.9125,699.6563 1128.225,699.7813 1127.4594,699.7813 C1125.4125,699.7813 1124.1156,698.6875 1124.1156,696.9844 L1124.1156,695.8906 C1124.1156,694.1094 1125.3656,692.7969 1127.1,692.7969 C1127.6781,692.7969 1128.2875,692.9531 1128.7563,693.2031 C1129.2406,693.4844 1129.4125,693.7031 1129.5063,694.1094 C1129.5688,694.5156 1129.6,694.6406 1129.7406,694.7656 C1129.8813,694.9063 1130.1156,695.0156 1130.3344,695.0156 C1130.6,695.0156 1130.8656,694.875 1131.0375,694.6563 C1131.1469,694.5 1131.1781,694.3125 1131.1781,693.8906 L1131.1781,692.4688 C1131.1781,692.0313 1131.1625,691.9063 1131.0688,691.75 C1130.9125,691.4844 1130.6313,691.3438 1130.3344,691.3438 C1130.0375,691.3438 1129.8344,691.4375 1129.6156,691.75 L1129.4438,691.6719 Z " fill="#000000"/><text fill="#000000" font-family="sans-serif" font-size="12" lengthAdjust="spacing" textLength="36" x="1146.9" y="700.1543">Wood</text><line style="stroke:#A80036;stroke-width:1.5;" x1="1087" x2="1211" y1="712" y2="712"/><text fill="#000000" font-family="sans-serif" font-size="11" lengthAdjust="spacing" textLength="114" x="1092" y="726.2104">private int durability</text><text fill="#000000" font-family="sans-serif" font-size="11" lengthAdjust="spacing" textLength="112" x="1092" y="739.0151">private String origin</text><line style="stroke:#A80036;stroke-width:1.5;" x1="1087" x2="1211" y1="745.6094" y2="745.6094"/><!--MD5=[44201db48fb57df1a9c7f5b6b15426b0]
class Actor--><rect codeLine="73" fill="#FEFECE" filter="url(#fbis4os0utgd8)" height="60.8047" id="Actor" style="stroke:#A80036;stroke-width:1.5;" width="225" x="1025.5" y="376"/><ellipse cx="1117.75" cy="392" fill="#A9DCDF" rx="11" ry="11" style="stroke:#A80036;stroke-width:1.0;"/><path d="M1119.8281,393.8125 L1120.2188,394.7969 L1119.8281,394.7969 C1119.375,394.7969 1119.2656,394.8125 1119.1094,394.9219 C1118.8594,395.0781 1118.7031,395.3594 1118.7031,395.6563 C1118.7031,395.9219 1118.8438,396.1719 1119.0625,396.3281 C1119.2031,396.4531 1119.4063,396.5 1119.8281,396.5 L1122.1875,396.5 C1122.5469,396.5 1122.7656,396.4688 1122.9063,396.375 C1123.1563,396.2344 1123.3125,395.9375 1123.3125,395.6563 C1123.3125,395.375 1123.1719,395.125 1122.9531,394.9688 C1122.7813,394.8281 1122.625,394.7969 1122.1563,394.7969 L1118.7656,386.5938 L1115.0938,386.5938 C1114.6406,386.5938 1114.5156,386.6094 1114.3594,386.7031 C1114.1094,386.875 1113.9531,387.1563 1113.9531,387.4375 C1113.9531,387.7188 1114.0938,387.9688 1114.3125,388.1406 C1114.4844,388.25 1114.6563,388.2813 1115.0938,388.2813 L1116.1719,388.2813 L1113.5313,394.7969 C1113.1094,394.7969 1112.9531,394.8125 1112.7969,394.9219 C1112.5469,395.0781 1112.3906,395.3594 1112.3906,395.6563 C1112.3906,396.2188 1112.7656,396.5 1113.5156,396.5 L1115.7813,396.5 C1116.1406,396.5 1116.3594,396.4688 1116.4844,396.375 C1116.75,396.2344 1116.8906,395.9375 1116.8906,395.6563 C1116.8906,395.375 1116.7656,395.125 1116.5469,394.9531 C1116.375,394.8281 1116.2344,394.7969 1115.7813,394.7969 L1115.3906,394.7969 L1115.7813,393.8125 L1119.8281,393.8125 Z M1119.125,392.1094 L1116.4531,392.1094 L1117.7969,388.8438 L1119.125,392.1094 Z " fill="#000000"/><text fill="#000000" font-family="sans-serif" font-size="12" font-style="italic" lengthAdjust="spacing" textLength="32" x="1138.25" y="396.1543">Actor</text><line style="stroke:#A80036;stroke-width:1.5;" x1="1026.5" x2="1249.5" y1="408" y2="408"/><text fill="#000000" font-family="sans-serif" font-size="11" lengthAdjust="spacing" textLength="213" x="1031.5" y="422.2104">private ArrayList&lt;BoardData&gt; boards</text><line style="stroke:#A80036;stroke-width:1.5;" x1="1026.5" x2="1249.5" y1="428.8047" y2="428.8047"/><!--MD5=[ed6624c6556d5e7b1bd23032162d20b7]
class Client--><rect codeLine="77" fill="#FEFECE" filter="url(#fbis4os0utgd8)" height="60.8047" id="Client" style="stroke:#A80036;stroke-width:1.5;" width="84" x="1096" y="217"/><ellipse cx="1119.55" cy="233" fill="#ADD1B2" rx="11" ry="11" style="stroke:#A80036;stroke-width:1.0;"/><path d="M1121.8938,228.6719 C1120.9563,228.2344 1120.3625,228.0938 1119.4875,228.0938 C1116.8625,228.0938 1114.8625,230.1719 1114.8625,232.8906 L1114.8625,234.0156 C1114.8625,236.5938 1116.9719,238.4844 1119.8625,238.4844 C1121.0813,238.4844 1122.2375,238.1875 1122.9875,237.6406 C1123.5656,237.2344 1123.8938,236.7813 1123.8938,236.3906 C1123.8938,235.9375 1123.5031,235.5469 1123.0344,235.5469 C1122.8156,235.5469 1122.6125,235.625 1122.425,235.8125 C1121.9719,236.2969 1121.9719,236.2969 1121.7844,236.3906 C1121.3625,236.6563 1120.675,236.7813 1119.9094,236.7813 C1117.8625,236.7813 1116.5656,235.6875 1116.5656,233.9844 L1116.5656,232.8906 C1116.5656,231.1094 1117.8156,229.7969 1119.55,229.7969 C1120.1281,229.7969 1120.7375,229.9531 1121.2063,230.2031 C1121.6906,230.4844 1121.8625,230.7031 1121.9563,231.1094 C1122.0188,231.5156 1122.05,231.6406 1122.1906,231.7656 C1122.3313,231.9063 1122.5656,232.0156 1122.7844,232.0156 C1123.05,232.0156 1123.3156,231.875 1123.4875,231.6563 C1123.5969,231.5 1123.6281,231.3125 1123.6281,230.8906 L1123.6281,229.4688 C1123.6281,229.0313 1123.6125,228.9063 1123.5188,228.75 C1123.3625,228.4844 1123.0813,228.3438 1122.7844,228.3438 C1122.4875,228.3438 1122.2844,228.4375 1122.0656,228.75 L1121.8938,228.6719 Z " fill="#000000"/><text fill="#000000" font-family="sans-serif" font-size="12" lengthAdjust="spacing" textLength="33" x="1135.45" y="237.1543">Client</text><line style="stroke:#A80036;stroke-width:1.5;" x1="1097" x2="1179" y1="249" y2="249"/><text fill="#000000" font-family="sans-serif" font-size="11" lengthAdjust="spacing" textLength="72" x="1102" y="263.2104">private int id</text><line style="stroke:#A80036;stroke-width:1.5;" x1="1097" x2="1179" y1="269.8047" y2="269.8047"/><!--MD5=[6f6af049516bc56aac6e320b3234ce97]
class Supplier--><rect codeLine="81" fill="#FEFECE" filter="url(#fbis4os0utgd8)" height="60.8047" id="Supplier" style="stroke:#A80036;stroke-width:1.5;" width="84" x="896" y="217"/><ellipse cx="911.9" cy="233" fill="#ADD1B2" rx="11" ry="11" style="stroke:#A80036;stroke-width:1.0;"/><path d="M914.2438,228.6719 C913.3063,228.2344 912.7125,228.0938 911.8375,228.0938 C909.2125,228.0938 907.2125,230.1719 907.2125,232.8906 L907.2125,234.0156 C907.2125,236.5938 909.3219,238.4844 912.2125,238.4844 C913.4313,238.4844 914.5875,238.1875 915.3375,237.6406 C915.9156,237.2344 916.2438,236.7813 916.2438,236.3906 C916.2438,235.9375 915.8531,235.5469 915.3844,235.5469 C915.1656,235.5469 914.9625,235.625 914.775,235.8125 C914.3219,236.2969 914.3219,236.2969 914.1344,236.3906 C913.7125,236.6563 913.025,236.7813 912.2594,236.7813 C910.2125,236.7813 908.9156,235.6875 908.9156,233.9844 L908.9156,232.8906 C908.9156,231.1094 910.1656,229.7969 911.9,229.7969 C912.4781,229.7969 913.0875,229.9531 913.5563,230.2031 C914.0406,230.4844 914.2125,230.7031 914.3063,231.1094 C914.3688,231.5156 914.4,231.6406 914.5406,231.7656 C914.6813,231.9063 914.9156,232.0156 915.1344,232.0156 C915.4,232.0156 915.6656,231.875 915.8375,231.6563 C915.9469,231.5 915.9781,231.3125 915.9781,230.8906 L915.9781,229.4688 C915.9781,229.0313 915.9625,228.9063 915.8688,228.75 C915.7125,228.4844 915.4313,228.3438 915.1344,228.3438 C914.8375,228.3438 914.6344,228.4375 914.4156,228.75 L914.2438,228.6719 Z " fill="#000000"/><text fill="#000000" font-family="sans-serif" font-size="12" lengthAdjust="spacing" textLength="50" x="926.1" y="237.1543">Supplier</text><line style="stroke:#A80036;stroke-width:1.5;" x1="897" x2="979" y1="249" y2="249"/><text fill="#000000" font-family="sans-serif" font-size="11" lengthAdjust="spacing" textLength="72" x="902" y="263.2104">private int id</text><line style="stroke:#A80036;stroke-width:1.5;" x1="897" x2="979" y1="269.8047" y2="269.8047"/><!--MD5=[b6b2908e6fd5da44f9fc2102f596928b]
class ClientsList--><rect codeLine="85" fill="#FEFECE" filter="url(#fbis4os0utgd8)" height="86.4141" id="ClientsList" style="stroke:#A80036;stroke-width:1.5;" width="193" x="1057.5" y="47.5"/><ellipse cx="1119.75" cy="63.5" fill="#ADD1B2" rx="11" ry="11" style="stroke:#A80036;stroke-width:1.0;"/><path d="M1122.0938,59.1719 C1121.1563,58.7344 1120.5625,58.5938 1119.6875,58.5938 C1117.0625,58.5938 1115.0625,60.6719 1115.0625,63.3906 L1115.0625,64.5156 C1115.0625,67.0938 1117.1719,68.9844 1120.0625,68.9844 C1121.2813,68.9844 1122.4375,68.6875 1123.1875,68.1406 C1123.7656,67.7344 1124.0938,67.2813 1124.0938,66.8906 C1124.0938,66.4375 1123.7031,66.0469 1123.2344,66.0469 C1123.0156,66.0469 1122.8125,66.125 1122.625,66.3125 C1122.1719,66.7969 1122.1719,66.7969 1121.9844,66.8906 C1121.5625,67.1563 1120.875,67.2813 1120.1094,67.2813 C1118.0625,67.2813 1116.7656,66.1875 1116.7656,64.4844 L1116.7656,63.3906 C1116.7656,61.6094 1118.0156,60.2969 1119.75,60.2969 C1120.3281,60.2969 1120.9375,60.4531 1121.4063,60.7031 C1121.8906,60.9844 1122.0625,61.2031 1122.1563,61.6094 C1122.2188,62.0156 1122.25,62.1406 1122.3906,62.2656 C1122.5313,62.4063 1122.7656,62.5156 1122.9844,62.5156 C1123.25,62.5156 1123.5156,62.375 1123.6875,62.1563 C1123.7969,62 1123.8281,61.8125 1123.8281,61.3906 L1123.8281,59.9688 C1123.8281,59.5313 1123.8125,59.4063 1123.7188,59.25 C1123.5625,58.9844 1123.2813,58.8438 1122.9844,58.8438 C1122.6875,58.8438 1122.4844,58.9375 1122.2656,59.25 L1122.0938,59.1719 Z " fill="#000000"/><text fill="#000000" font-family="sans-serif" font-size="12" lengthAdjust="spacing" textLength="60" x="1140.25" y="67.6543">ClientsList</text><line style="stroke:#A80036;stroke-width:1.5;" x1="1058.5" x2="1249.5" y1="79.5" y2="79.5"/><text fill="#000000" font-family="sans-serif" font-size="11" lengthAdjust="spacing" textLength="181" x="1063.5" y="93.7104">private ArrayList&lt;Actor&gt; clients</text><line style="stroke:#A80036;stroke-width:1.5;" x1="1058.5" x2="1249.5" y1="100.3047" y2="100.3047"/><text fill="#000000" font-family="sans-serif" font-size="11" lengthAdjust="spacing" textLength="136" x="1063.5" y="114.5151">public void loadClients()</text><text fill="#000000" font-family="sans-serif" font-size="11" lengthAdjust="spacing" textLength="161" x="1063.5" y="127.3198">public Client getNextClient()</text><!--MD5=[4aa65d601361d291eea67469c2e5e19e]
class SuppliersList--><rect codeLine="91" fill="#FEFECE" filter="url(#fbis4os0utgd8)" height="99.2188" id="SuppliersList" style="stroke:#A80036;stroke-width:1.5;" width="274" x="544" y="41"/><ellipse cx="638.25" cy="57" fill="#ADD1B2" rx="11" ry="11" style="stroke:#A80036;stroke-width:1.0;"/><path d="M640.5938,52.6719 C639.6563,52.2344 639.0625,52.0938 638.1875,52.0938 C635.5625,52.0938 633.5625,54.1719 633.5625,56.8906 L633.5625,58.0156 C633.5625,60.5938 635.6719,62.4844 638.5625,62.4844 C639.7813,62.4844 640.9375,62.1875 641.6875,61.6406 C642.2656,61.2344 642.5938,60.7813 642.5938,60.3906 C642.5938,59.9375 642.2031,59.5469 641.7344,59.5469 C641.5156,59.5469 641.3125,59.625 641.125,59.8125 C640.6719,60.2969 640.6719,60.2969 640.4844,60.3906 C640.0625,60.6563 639.375,60.7813 638.6094,60.7813 C636.5625,60.7813 635.2656,59.6875 635.2656,57.9844 L635.2656,56.8906 C635.2656,55.1094 636.5156,53.7969 638.25,53.7969 C638.8281,53.7969 639.4375,53.9531 639.9063,54.2031 C640.3906,54.4844 640.5625,54.7031 640.6563,55.1094 C640.7188,55.5156 640.75,55.6406 640.8906,55.7656 C641.0313,55.9063 641.2656,56.0156 641.4844,56.0156 C641.75,56.0156 642.0156,55.875 642.1875,55.6563 C642.2969,55.5 642.3281,55.3125 642.3281,54.8906 L642.3281,53.4688 C642.3281,53.0313 642.3125,52.9063 642.2188,52.75 C642.0625,52.4844 641.7813,52.3438 641.4844,52.3438 C641.1875,52.3438 640.9844,52.4375 640.7656,52.75 L640.5938,52.6719 Z " fill="#000000"/><text fill="#000000" font-family="sans-serif" font-size="12" lengthAdjust="spacing" textLength="77" x="658.75" y="61.1543">SuppliersList</text><line style="stroke:#A80036;stroke-width:1.5;" x1="545" x2="817" y1="73" y2="73"/><text fill="#000000" font-family="sans-serif" font-size="11" lengthAdjust="spacing" textLength="195" x="550" y="87.2104">private ArrayList&lt;Actor&gt; suppliers</text><line style="stroke:#A80036;stroke-width:1.5;" x1="545" x2="817" y1="93.8047" y2="93.8047"/><text fill="#000000" font-family="sans-serif" font-size="11" lengthAdjust="spacing" textLength="262" x="550" y="108.0151">public boolean findValidForClient(Client client)</text><text fill="#000000" font-family="sans-serif" font-size="11" lengthAdjust="spacing" textLength="150" x="550" y="120.8198">public void loadSuppliers()</text><text fill="#000000" font-family="sans-serif" font-size="11" lengthAdjust="spacing" textLength="261" x="550" y="133.6245">public void removeSupplier(Supplier supplier)</text><!--MD5=[cf10e9aa00a725350261dad3f1642ccf]
class Cut--><rect codeLine="98" fill="#FEFECE" filter="url(#fbis4os0utgd8)" height="73.6094" id="Cut" style="stroke:#A80036;stroke-width:1.5;" width="169" x="853.5" y="53.5"/><ellipse cx="924.25" cy="69.5" fill="#ADD1B2" rx="11" ry="11" style="stroke:#A80036;stroke-width:1.0;"/><path d="M926.5938,65.1719 C925.6563,64.7344 925.0625,64.5938 924.1875,64.5938 C921.5625,64.5938 919.5625,66.6719 919.5625,69.3906 L919.5625,70.5156 C919.5625,73.0938 921.6719,74.9844 924.5625,74.9844 C925.7813,74.9844 926.9375,74.6875 927.6875,74.1406 C928.2656,73.7344 928.5938,73.2813 928.5938,72.8906 C928.5938,72.4375 928.2031,72.0469 927.7344,72.0469 C927.5156,72.0469 927.3125,72.125 927.125,72.3125 C926.6719,72.7969 926.6719,72.7969 926.4844,72.8906 C926.0625,73.1563 925.375,73.2813 924.6094,73.2813 C922.5625,73.2813 921.2656,72.1875 921.2656,70.4844 L921.2656,69.3906 C921.2656,67.6094 922.5156,66.2969 924.25,66.2969 C924.8281,66.2969 925.4375,66.4531 925.9063,66.7031 C926.3906,66.9844 926.5625,67.2031 926.6563,67.6094 C926.7188,68.0156 926.75,68.1406 926.8906,68.2656 C927.0313,68.4063 927.2656,68.5156 927.4844,68.5156 C927.75,68.5156 928.0156,68.375 928.1875,68.1563 C928.2969,68 928.3281,67.8125 928.3281,67.3906 L928.3281,65.9688 C928.3281,65.5313 928.3125,65.4063 928.2188,65.25 C928.0625,64.9844 927.7813,64.8438 927.4844,64.8438 C927.1875,64.8438 926.9844,64.9375 926.7656,65.25 L926.5938,65.1719 Z " fill="#000000"/><text fill="#000000" font-family="sans-serif" font-size="12" lengthAdjust="spacing" textLength="19" x="944.75" y="73.6543">Cut</text><line style="stroke:#A80036;stroke-width:1.5;" x1="854.5" x2="1021.5" y1="85.5" y2="85.5"/><line style="stroke:#A80036;stroke-width:1.5;" x1="854.5" x2="1021.5" y1="93.5" y2="93.5"/><text fill="#000000" font-family="sans-serif" font-size="11" lengthAdjust="spacing" textLength="151" x="859.5" y="107.7104">public boolean isCutValid()</text><text fill="#000000" font-family="sans-serif" font-size="11" lengthAdjust="spacing" textLength="157" x="859.5" y="120.5151">public void export(Writer w)</text><!--MD5=[e86a4777f2c0372cf9fb3cd047e1466e]
class Reader--><rect codeLine="110" fill="#FEFECE" filter="url(#fbis4os0utgd8)" height="60.8047" id="Reader" style="stroke:#A80036;stroke-width:1.5;" width="151" x="1447.5" y="533"/><ellipse cx="1497.75" cy="549" fill="#B4A7E5" rx="11" ry="11" style="stroke:#A80036;stroke-width:1.0;"/><path d="M1498.7031,545.7813 L1500.4219,545.7813 C1500.8125,545.7813 1501,545.75 1501.125,545.6719 C1501.3906,545.5156 1501.5313,545.2344 1501.5313,544.9375 C1501.5313,544.6719 1501.4219,544.4063 1501.1875,544.2344 C1501.0156,544.125 1500.875,544.0938 1500.4219,544.0938 L1495.2813,544.0938 C1494.8438,544.0938 1494.7188,544.1094 1494.5625,544.2031 C1494.3125,544.3594 1494.1563,544.6563 1494.1563,544.9375 C1494.1563,545.2188 1494.2969,545.4688 1494.5156,545.6406 C1494.6719,545.75 1494.8594,545.7813 1495.2813,545.7813 L1497,545.7813 L1497,552.2969 L1495.2813,552.2969 C1494.8438,552.2969 1494.7188,552.3125 1494.5625,552.4219 C1494.3125,552.5781 1494.1563,552.8594 1494.1563,553.1563 C1494.1563,553.4063 1494.2969,553.6719 1494.5156,553.8281 C1494.6719,553.9531 1494.875,554 1495.2813,554 L1500.4219,554 C1501.1719,554 1501.5313,553.7188 1501.5313,553.1563 C1501.5313,552.875 1501.4219,552.625 1501.1875,552.4531 C1501.0156,552.3281 1500.875,552.2969 1500.4219,552.2969 L1498.7031,552.2969 L1498.7031,545.7813 Z " fill="#000000"/><text fill="#000000" font-family="sans-serif" font-size="12" font-style="italic" lengthAdjust="spacing" textLength="42" x="1518.25" y="553.1543">Reader</text><line style="stroke:#A80036;stroke-width:1.5;" x1="1448.5" x2="1597.5" y1="565" y2="565"/><line style="stroke:#A80036;stroke-width:1.5;" x1="1448.5" x2="1597.5" y1="573" y2="573"/><text fill="#000000" font-family="sans-serif" font-size="11" lengthAdjust="spacing" textLength="139" x="1453.5" y="587.2104">public void read(Actor a)</text><!--MD5=[86cfdc25119a3a20e0664f11a0f5b002]
class Writer--><rect codeLine="114" fill="#FEFECE" filter="url(#fbis4os0utgd8)" height="60.8047" id="Writer" style="stroke:#A80036;stroke-width:1.5;" width="113" x="2072.5" y="533"/><ellipse cx="2107.3" cy="549" fill="#B4A7E5" rx="11" ry="11" style="stroke:#A80036;stroke-width:1.0;"/><path d="M2108.2531,545.7813 L2109.9719,545.7813 C2110.3625,545.7813 2110.55,545.75 2110.675,545.6719 C2110.9406,545.5156 2111.0813,545.2344 2111.0813,544.9375 C2111.0813,544.6719 2110.9719,544.4063 2110.7375,544.2344 C2110.5656,544.125 2110.425,544.0938 2109.9719,544.0938 L2104.8313,544.0938 C2104.3938,544.0938 2104.2688,544.1094 2104.1125,544.2031 C2103.8625,544.3594 2103.7063,544.6563 2103.7063,544.9375 C2103.7063,545.2188 2103.8469,545.4688 2104.0656,545.6406 C2104.2219,545.75 2104.4094,545.7813 2104.8313,545.7813 L2106.55,545.7813 L2106.55,552.2969 L2104.8313,552.2969 C2104.3938,552.2969 2104.2688,552.3125 2104.1125,552.4219 C2103.8625,552.5781 2103.7063,552.8594 2103.7063,553.1563 C2103.7063,553.4063 2103.8469,553.6719 2104.0656,553.8281 C2104.2219,553.9531 2104.425,554 2104.8313,554 L2109.9719,554 C2110.7219,554 2111.0813,553.7188 2111.0813,553.1563 C2111.0813,552.875 2110.9719,552.625 2110.7375,552.4531 C2110.5656,552.3281 2110.425,552.2969 2109.9719,552.2969 L2108.2531,552.2969 L2108.2531,545.7813 Z " fill="#000000"/><text fill="#000000" font-family="sans-serif" font-size="12" font-style="italic" lengthAdjust="spacing" textLength="37" x="2125.7" y="553.1543">Writer</text><line style="stroke:#A80036;stroke-width:1.5;" x1="2073.5" x2="2184.5" y1="565" y2="565"/><line style="stroke:#A80036;stroke-width:1.5;" x1="2073.5" x2="2184.5" y1="573" y2="573"/><text fill="#000000" font-family="sans-serif" font-size="11" lengthAdjust="spacing" textLength="101" x="2078.5" y="587.2104">public void write()</text><!--MD5=[3eef7b73fa83c0eb0df09a32828acfb2]
class SVGWriter--><rect codeLine="118" fill="#FEFECE" filter="url(#fbis4os0utgd8)" height="60.8047" id="SVGWriter" style="stroke:#A80036;stroke-width:1.5;" width="113" x="2295.5" y="376"/><ellipse cx="2319.05" cy="392" fill="#ADD1B2" rx="11" ry="11" style="stroke:#A80036;stroke-width:1.0;"/><path d="M2321.3938,387.6719 C2320.4563,387.2344 2319.8625,387.0938 2318.9875,387.0938 C2316.3625,387.0938 2314.3625,389.1719 2314.3625,391.8906 L2314.3625,393.0156 C2314.3625,395.5938 2316.4719,397.4844 2319.3625,397.4844 C2320.5813,397.4844 2321.7375,397.1875 2322.4875,396.6406 C2323.0656,396.2344 2323.3938,395.7813 2323.3938,395.3906 C2323.3938,394.9375 2323.0031,394.5469 2322.5344,394.5469 C2322.3156,394.5469 2322.1125,394.625 2321.925,394.8125 C2321.4719,395.2969 2321.4719,395.2969 2321.2844,395.3906 C2320.8625,395.6563 2320.175,395.7813 2319.4094,395.7813 C2317.3625,395.7813 2316.0656,394.6875 2316.0656,392.9844 L2316.0656,391.8906 C2316.0656,390.1094 2317.3156,388.7969 2319.05,388.7969 C2319.6281,388.7969 2320.2375,388.9531 2320.7063,389.2031 C2321.1906,389.4844 2321.3625,389.7031 2321.4563,390.1094 C2321.5188,390.5156 2321.55,390.6406 2321.6906,390.7656 C2321.8313,390.9063 2322.0656,391.0156 2322.2844,391.0156 C2322.55,391.0156 2322.8156,390.875 2322.9875,390.6563 C2323.0969,390.5 2323.1281,390.3125 2323.1281,389.8906 L2323.1281,388.4688 C2323.1281,388.0313 2323.1125,387.9063 2323.0188,387.75 C2322.8625,387.4844 2322.5813,387.3438 2322.2844,387.3438 C2321.9875,387.3438 2321.7844,387.4375 2321.5656,387.75 L2321.3938,387.6719 Z " fill="#000000"/><text fill="#000000" font-family="sans-serif" font-size="12" lengthAdjust="spacing" textLength="62" x="2334.95" y="396.1543">SVGWriter</text><line style="stroke:#A80036;stroke-width:1.5;" x1="2296.5" x2="2407.5" y1="408" y2="408"/><line style="stroke:#A80036;stroke-width:1.5;" x1="2296.5" x2="2407.5" y1="416" y2="416"/><text fill="#000000" font-family="sans-serif" font-size="11" lengthAdjust="spacing" textLength="101" x="2301.5" y="430.2104">public void write()</text><!--MD5=[3649b6acaec62a90b62068b022fdef1b]
class XMLWriter--><rect codeLine="123" fill="#FEFECE" filter="url(#fbis4os0utgd8)" height="60.8047" id="XMLWriter" style="stroke:#A80036;stroke-width:1.5;" width="113" x="2147.5" y="376"/><ellipse cx="2171.5" cy="392" fill="#ADD1B2" rx="11" ry="11" style="stroke:#A80036;stroke-width:1.0;"/><path d="M2173.8438,387.6719 C2172.9063,387.2344 2172.3125,387.0938 2171.4375,387.0938 C2168.8125,387.0938 2166.8125,389.1719 2166.8125,391.8906 L2166.8125,393.0156 C2166.8125,395.5938 2168.9219,397.4844 2171.8125,397.4844 C2173.0313,397.4844 2174.1875,397.1875 2174.9375,396.6406 C2175.5156,396.2344 2175.8438,395.7813 2175.8438,395.3906 C2175.8438,394.9375 2175.4531,394.5469 2174.9844,394.5469 C2174.7656,394.5469 2174.5625,394.625 2174.375,394.8125 C2173.9219,395.2969 2173.9219,395.2969 2173.7344,395.3906 C2173.3125,395.6563 2172.625,395.7813 2171.8594,395.7813 C2169.8125,395.7813 2168.5156,394.6875 2168.5156,392.9844 L2168.5156,391.8906 C2168.5156,390.1094 2169.7656,388.7969 2171.5,388.7969 C2172.0781,388.7969 2172.6875,388.9531 2173.1563,389.2031 C2173.6406,389.4844 2173.8125,389.7031 2173.9063,390.1094 C2173.9688,390.5156 2174,390.6406 2174.1406,390.7656 C2174.2813,390.9063 2174.5156,391.0156 2174.7344,391.0156 C2175,391.0156 2175.2656,390.875 2175.4375,390.6563 C2175.5469,390.5 2175.5781,390.3125 2175.5781,389.8906 L2175.5781,388.4688 C2175.5781,388.0313 2175.5625,387.9063 2175.4688,387.75 C2175.3125,387.4844 2175.0313,387.3438 2174.7344,387.3438 C2174.4375,387.3438 2174.2344,387.4375 2174.0156,387.75 L2173.8438,387.6719 Z " fill="#000000"/><text fill="#000000" font-family="sans-serif" font-size="12" lengthAdjust="spacing" textLength="61" x="2187.5" y="396.1543">XMLWriter</text><line style="stroke:#A80036;stroke-width:1.5;" x1="2148.5" x2="2259.5" y1="408" y2="408"/><line style="stroke:#A80036;stroke-width:1.5;" x1="2148.5" x2="2259.5" y1="416" y2="416"/><text fill="#000000" font-family="sans-serif" font-size="11" lengthAdjust="spacing" textLength="101" x="2153.5" y="430.2104">public void write()</text><!--MD5=[1e45380920adb9e0da633e09815b8bbd]
class JSONWriter--><rect codeLine="128" fill="#FEFECE" filter="url(#fbis4os0utgd8)" height="60.8047" id="JSONWriter" style="stroke:#A80036;stroke-width:1.5;" width="113" x="1999.5" y="376"/><ellipse cx="2020.8" cy="392" fill="#ADD1B2" rx="11" ry="11" style="stroke:#A80036;stroke-width:1.0;"/><path d="M2023.1438,387.6719 C2022.2063,387.2344 2021.6125,387.0938 2020.7375,387.0938 C2018.1125,387.0938 2016.1125,389.1719 2016.1125,391.8906 L2016.1125,393.0156 C2016.1125,395.5938 2018.2219,397.4844 2021.1125,397.4844 C2022.3313,397.4844 2023.4875,397.1875 2024.2375,396.6406 C2024.8156,396.2344 2025.1438,395.7813 2025.1438,395.3906 C2025.1438,394.9375 2024.7531,394.5469 2024.2844,394.5469 C2024.0656,394.5469 2023.8625,394.625 2023.675,394.8125 C2023.2219,395.2969 2023.2219,395.2969 2023.0344,395.3906 C2022.6125,395.6563 2021.925,395.7813 2021.1594,395.7813 C2019.1125,395.7813 2017.8156,394.6875 2017.8156,392.9844 L2017.8156,391.8906 C2017.8156,390.1094 2019.0656,388.7969 2020.8,388.7969 C2021.3781,388.7969 2021.9875,388.9531 2022.4563,389.2031 C2022.9406,389.4844 2023.1125,389.7031 2023.2063,390.1094 C2023.2688,390.5156 2023.3,390.6406 2023.4406,390.7656 C2023.5813,390.9063 2023.8156,391.0156 2024.0344,391.0156 C2024.3,391.0156 2024.5656,390.875 2024.7375,390.6563 C2024.8469,390.5 2024.8781,390.3125 2024.8781,389.8906 L2024.8781,388.4688 C2024.8781,388.0313 2024.8625,387.9063 2024.7688,387.75 C2024.6125,387.4844 2024.3313,387.3438 2024.0344,387.3438 C2023.7375,387.3438 2023.5344,387.4375 2023.3156,387.75 L2023.1438,387.6719 Z " fill="#000000"/><text fill="#000000" font-family="sans-serif" font-size="12" lengthAdjust="spacing" textLength="67" x="2036.2" y="396.1543">JSONWriter</text><line style="stroke:#A80036;stroke-width:1.5;" x1="2000.5" x2="2111.5" y1="408" y2="408"/><line style="stroke:#A80036;stroke-width:1.5;" x1="2000.5" x2="2111.5" y1="416" y2="416"/><text fill="#000000" font-family="sans-serif" font-size="11" lengthAdjust="spacing" textLength="101" x="2005.5" y="430.2104">public void write()</text><!--MD5=[7aa4f1b64c732e98c193537ef177d827]
class SVGReader--><rect codeLine="133" fill="#FEFECE" filter="url(#fbis4os0utgd8)" height="60.8047" id="SVGReader" style="stroke:#A80036;stroke-width:1.5;" width="151" x="1813.5" y="376"/><ellipse cx="1851.45" cy="392" fill="#ADD1B2" rx="11" ry="11" style="stroke:#A80036;stroke-width:1.0;"/><path d="M1853.7938,387.6719 C1852.8563,387.2344 1852.2625,387.0938 1851.3875,387.0938 C1848.7625,387.0938 1846.7625,389.1719 1846.7625,391.8906 L1846.7625,393.0156 C1846.7625,395.5938 1848.8719,397.4844 1851.7625,397.4844 C1852.9813,397.4844 1854.1375,397.1875 1854.8875,396.6406 C1855.4656,396.2344 1855.7938,395.7813 1855.7938,395.3906 C1855.7938,394.9375 1855.4031,394.5469 1854.9344,394.5469 C1854.7156,394.5469 1854.5125,394.625 1854.325,394.8125 C1853.8719,395.2969 1853.8719,395.2969 1853.6844,395.3906 C1853.2625,395.6563 1852.575,395.7813 1851.8094,395.7813 C1849.7625,395.7813 1848.4656,394.6875 1848.4656,392.9844 L1848.4656,391.8906 C1848.4656,390.1094 1849.7156,388.7969 1851.45,388.7969 C1852.0281,388.7969 1852.6375,388.9531 1853.1063,389.2031 C1853.5906,389.4844 1853.7625,389.7031 1853.8563,390.1094 C1853.9188,390.5156 1853.95,390.6406 1854.0906,390.7656 C1854.2313,390.9063 1854.4656,391.0156 1854.6844,391.0156 C1854.95,391.0156 1855.2156,390.875 1855.3875,390.6563 C1855.4969,390.5 1855.5281,390.3125 1855.5281,389.8906 L1855.5281,388.4688 C1855.5281,388.0313 1855.5125,387.9063 1855.4188,387.75 C1855.2625,387.4844 1854.9813,387.3438 1854.6844,387.3438 C1854.3875,387.3438 1854.1844,387.4375 1853.9656,387.75 L1853.7938,387.6719 Z " fill="#000000"/><text fill="#000000" font-family="sans-serif" font-size="12" lengthAdjust="spacing" textLength="68" x="1870.55" y="396.1543">SVGReader</text><line style="stroke:#A80036;stroke-width:1.5;" x1="1814.5" x2="1963.5" y1="408" y2="408"/><line style="stroke:#A80036;stroke-width:1.5;" x1="1814.5" x2="1963.5" y1="416" y2="416"/><text fill="#000000" font-family="sans-serif" font-size="11" lengthAdjust="spacing" textLength="139" x="1819.5" y="430.2104">public void read(Actor a)</text><!--MD5=[7f1cb787ccec5c1836a206f0aa757341]
class XMLReader--><rect codeLine="138" fill="#FEFECE" filter="url(#fbis4os0utgd8)" height="60.8047" id="XMLReader" style="stroke:#A80036;stroke-width:1.5;" width="151" x="1627.5" y="376"/><ellipse cx="1665.9" cy="392" fill="#ADD1B2" rx="11" ry="11" style="stroke:#A80036;stroke-width:1.0;"/><path d="M1668.2438,387.6719 C1667.3063,387.2344 1666.7125,387.0938 1665.8375,387.0938 C1663.2125,387.0938 1661.2125,389.1719 1661.2125,391.8906 L1661.2125,393.0156 C1661.2125,395.5938 1663.3219,397.4844 1666.2125,397.4844 C1667.4313,397.4844 1668.5875,397.1875 1669.3375,396.6406 C1669.9156,396.2344 1670.2438,395.7813 1670.2438,395.3906 C1670.2438,394.9375 1669.8531,394.5469 1669.3844,394.5469 C1669.1656,394.5469 1668.9625,394.625 1668.775,394.8125 C1668.3219,395.2969 1668.3219,395.2969 1668.1344,395.3906 C1667.7125,395.6563 1667.025,395.7813 1666.2594,395.7813 C1664.2125,395.7813 1662.9156,394.6875 1662.9156,392.9844 L1662.9156,391.8906 C1662.9156,390.1094 1664.1656,388.7969 1665.9,388.7969 C1666.4781,388.7969 1667.0875,388.9531 1667.5563,389.2031 C1668.0406,389.4844 1668.2125,389.7031 1668.3063,390.1094 C1668.3688,390.5156 1668.4,390.6406 1668.5406,390.7656 C1668.6813,390.9063 1668.9156,391.0156 1669.1344,391.0156 C1669.4,391.0156 1669.6656,390.875 1669.8375,390.6563 C1669.9469,390.5 1669.9781,390.3125 1669.9781,389.8906 L1669.9781,388.4688 C1669.9781,388.0313 1669.9625,387.9063 1669.8688,387.75 C1669.7125,387.4844 1669.4313,387.3438 1669.1344,387.3438 C1668.8375,387.3438 1668.6344,387.4375 1668.4156,387.75 L1668.2438,387.6719 Z " fill="#000000"/><text fill="#000000" font-family="sans-serif" font-size="12" lengthAdjust="spacing" textLength="67" x="1685.1" y="396.1543">XMLReader</text><line style="stroke:#A80036;stroke-width:1.5;" x1="1628.5" x2="1777.5" y1="408" y2="408"/><line style="stroke:#A80036;stroke-width:1.5;" x1="1628.5" x2="1777.5" y1="416" y2="416"/><text fill="#000000" font-family="sans-serif" font-size="11" lengthAdjust="spacing" textLength="139" x="1633.5" y="430.2104">public void read(Actor a)</text><!--MD5=[6271eb3e8315b816043741d95b89b3c6]
class JSONReader--><rect codeLine="143" fill="#FEFECE" filter="url(#fbis4os0utgd8)" height="60.8047" id="JSONReader" style="stroke:#A80036;stroke-width:1.5;" width="151" x="1441.5" y="376"/><ellipse cx="1477.2" cy="392" fill="#ADD1B2" rx="11" ry="11" style="stroke:#A80036;stroke-width:1.0;"/><path d="M1479.5438,387.6719 C1478.6063,387.2344 1478.0125,387.0938 1477.1375,387.0938 C1474.5125,387.0938 1472.5125,389.1719 1472.5125,391.8906 L1472.5125,393.0156 C1472.5125,395.5938 1474.6219,397.4844 1477.5125,397.4844 C1478.7313,397.4844 1479.8875,397.1875 1480.6375,396.6406 C1481.2156,396.2344 1481.5438,395.7813 1481.5438,395.3906 C1481.5438,394.9375 1481.1531,394.5469 1480.6844,394.5469 C1480.4656,394.5469 1480.2625,394.625 1480.075,394.8125 C1479.6219,395.2969 1479.6219,395.2969 1479.4344,395.3906 C1479.0125,395.6563 1478.325,395.7813 1477.5594,395.7813 C1475.5125,395.7813 1474.2156,394.6875 1474.2156,392.9844 L1474.2156,391.8906 C1474.2156,390.1094 1475.4656,388.7969 1477.2,388.7969 C1477.7781,388.7969 1478.3875,388.9531 1478.8563,389.2031 C1479.3406,389.4844 1479.5125,389.7031 1479.6063,390.1094 C1479.6688,390.5156 1479.7,390.6406 1479.8406,390.7656 C1479.9813,390.9063 1480.2156,391.0156 1480.4344,391.0156 C1480.7,391.0156 1480.9656,390.875 1481.1375,390.6563 C1481.2469,390.5 1481.2781,390.3125 1481.2781,389.8906 L1481.2781,388.4688 C1481.2781,388.0313 1481.2625,387.9063 1481.1688,387.75 C1481.0125,387.4844 1480.7313,387.3438 1480.4344,387.3438 C1480.1375,387.3438 1479.9344,387.4375 1479.7156,387.75 L1479.5438,387.6719 Z " fill="#000000"/><text fill="#000000" font-family="sans-serif" font-size="12" lengthAdjust="spacing" textLength="73" x="1495.8" y="396.1543">JSONReader</text><line style="stroke:#A80036;stroke-width:1.5;" x1="1442.5" x2="1591.5" y1="408" y2="408"/><line style="stroke:#A80036;stroke-width:1.5;" x1="1442.5" x2="1591.5" y1="416" y2="416"/><text fill="#000000" font-family="sans-serif" font-size="11" lengthAdjust="spacing" textLength="139" x="1447.5" y="430.2104">public void read(Actor a)</text><!--MD5=[002abbdf2297a1ffb51d988df9aa3225]
class WrongObjectException--><rect codeLine="148" fill="#FEFECE" filter="url(#fbis4os0utgd8)" height="48" id="WrongObjectException" style="stroke:#A80036;stroke-width:1.5;" width="171" x="1443.5" y="693"/><ellipse cx="1458.5" cy="709" fill="#ADD1B2" rx="11" ry="11" style="stroke:#A80036;stroke-width:1.0;"/><path d="M1460.8438,704.6719 C1459.9063,704.2344 1459.3125,704.0938 1458.4375,704.0938 C1455.8125,704.0938 1453.8125,706.1719 1453.8125,708.8906 L1453.8125,710.0156 C1453.8125,712.5938 1455.9219,714.4844 1458.8125,714.4844 C1460.0313,714.4844 1461.1875,714.1875 1461.9375,713.6406 C1462.5156,713.2344 1462.8438,712.7813 1462.8438,712.3906 C1462.8438,711.9375 1462.4531,711.5469 1461.9844,711.5469 C1461.7656,711.5469 1461.5625,711.625 1461.375,711.8125 C1460.9219,712.2969 1460.9219,712.2969 1460.7344,712.3906 C1460.3125,712.6563 1459.625,712.7813 1458.8594,712.7813 C1456.8125,712.7813 1455.5156,711.6875 1455.5156,709.9844 L1455.5156,708.8906 C1455.5156,707.1094 1456.7656,705.7969 1458.5,705.7969 C1459.0781,705.7969 1459.6875,705.9531 1460.1563,706.2031 C1460.6406,706.4844 1460.8125,706.7031 1460.9063,707.1094 C1460.9688,707.5156 1461,707.6406 1461.1406,707.7656 C1461.2813,707.9063 1461.5156,708.0156 1461.7344,708.0156 C1462,708.0156 1462.2656,707.875 1462.4375,707.6563 C1462.5469,707.5 1462.5781,707.3125 1462.5781,706.8906 L1462.5781,705.4688 C1462.5781,705.0313 1462.5625,704.9063 1462.4688,704.75 C1462.3125,704.4844 1462.0313,704.3438 1461.7344,704.3438 C1461.4375,704.3438 1461.2344,704.4375 1461.0156,704.75 L1460.8438,704.6719 Z " fill="#000000"/><text fill="#000000" font-family="sans-serif" font-size="12" lengthAdjust="spacing" textLength="139" x="1472.5" y="713.1543">WrongObjectException</text><line style="stroke:#A80036;stroke-width:1.5;" x1="1444.5" x2="1613.5" y1="725" y2="725"/><line style="stroke:#A80036;stroke-width:1.5;" x1="1444.5" x2="1613.5" y1="733" y2="733"/><!--MD5=[8db60afef7a3447bbe27c5ed187fdac2]
class Exception--><rect codeLine="152" fill="#FEFECE" filter="url(#fbis4os0utgd8)" height="48" id="Exception" style="stroke:#A80036;stroke-width:1.5;" width="91" x="1483.5" y="862.5"/><ellipse cx="1498.5" cy="878.5" fill="#ADD1B2" rx="11" ry="11" style="stroke:#A80036;stroke-width:1.0;"/><path d="M1500.8438,874.1719 C1499.9063,873.7344 1499.3125,873.5938 1498.4375,873.5938 C1495.8125,873.5938 1493.8125,875.6719 1493.8125,878.3906 L1493.8125,879.5156 C1493.8125,882.0938 1495.9219,883.9844 1498.8125,883.9844 C1500.0313,883.9844 1501.1875,883.6875 1501.9375,883.1406 C1502.5156,882.7344 1502.8438,882.2813 1502.8438,881.8906 C1502.8438,881.4375 1502.4531,881.0469 1501.9844,881.0469 C1501.7656,881.0469 1501.5625,881.125 1501.375,881.3125 C1500.9219,881.7969 1500.9219,881.7969 1500.7344,881.8906 C1500.3125,882.1563 1499.625,882.2813 1498.8594,882.2813 C1496.8125,882.2813 1495.5156,881.1875 1495.5156,879.4844 L1495.5156,878.3906 C1495.5156,876.6094 1496.7656,875.2969 1498.5,875.2969 C1499.0781,875.2969 1499.6875,875.4531 1500.1563,875.7031 C1500.6406,875.9844 1500.8125,876.2031 1500.9063,876.6094 C1500.9688,877.0156 1501,877.1406 1501.1406,877.2656 C1501.2813,877.4063 1501.5156,877.5156 1501.7344,877.5156 C1502,877.5156 1502.2656,877.375 1502.4375,877.1563 C1502.5469,877 1502.5781,876.8125 1502.5781,876.3906 L1502.5781,874.9688 C1502.5781,874.5313 1502.5625,874.4063 1502.4688,874.25 C1502.3125,873.9844 1502.0313,873.8438 1501.7344,873.8438 C1501.4375,873.8438 1501.2344,873.9375 1501.0156,874.25 L1500.8438,874.1719 Z " fill="#000000"/><text fill="#000000" font-family="sans-serif" font-size="12" lengthAdjust="spacing" textLength="59" x="1512.5" y="882.6543">Exception</text><line style="stroke:#A80036;stroke-width:1.5;" x1="1484.5" x2="1573.5" y1="894.5" y2="894.5"/><line style="stroke:#A80036;stroke-width:1.5;" x1="1484.5" x2="1573.5" y1="902.5" y2="902.5"/><!--MD5=[0c51305de9094af5bf95fae0142ac999]
class FileInputStream--><rect codeLine="154" fill="#FEFECE" filter="url(#fbis4os0utgd8)" height="48" id="FileInputStream" style="stroke:#A80036;stroke-width:1.5;" width="125" x="1283.5" y="693"/><ellipse cx="1298.5" cy="709" fill="#ADD1B2" rx="11" ry="11" style="stroke:#A80036;stroke-width:1.0;"/><path d="M1300.8438,704.6719 C1299.9063,704.2344 1299.3125,704.0938 1298.4375,704.0938 C1295.8125,704.0938 1293.8125,706.1719 1293.8125,708.8906 L1293.8125,710.0156 C1293.8125,712.5938 1295.9219,714.4844 1298.8125,714.4844 C1300.0313,714.4844 1301.1875,714.1875 1301.9375,713.6406 C1302.5156,713.2344 1302.8438,712.7813 1302.8438,712.3906 C1302.8438,711.9375 1302.4531,711.5469 1301.9844,711.5469 C1301.7656,711.5469 1301.5625,711.625 1301.375,711.8125 C1300.9219,712.2969 1300.9219,712.2969 1300.7344,712.3906 C1300.3125,712.6563 1299.625,712.7813 1298.8594,712.7813 C1296.8125,712.7813 1295.5156,711.6875 1295.5156,709.9844 L1295.5156,708.8906 C1295.5156,707.1094 1296.7656,705.7969 1298.5,705.7969 C1299.0781,705.7969 1299.6875,705.9531 1300.1563,706.2031 C1300.6406,706.4844 1300.8125,706.7031 1300.9063,707.1094 C1300.9688,707.5156 1301,707.6406 1301.1406,707.7656 C1301.2813,707.9063 1301.5156,708.0156 1301.7344,708.0156 C1302,708.0156 1302.2656,707.875 1302.4375,707.6563 C1302.5469,707.5 1302.5781,707.3125 1302.5781,706.8906 L1302.5781,705.4688 C1302.5781,705.0313 1302.5625,704.9063 1302.4688,704.75 C1302.3125,704.4844 1302.0313,704.3438 1301.7344,704.3438 C1301.4375,704.3438 1301.2344,704.4375 1301.0156,704.75 L1300.8438,704.6719 Z " fill="#000000"/><text fill="#000000" font-family="sans-serif" font-size="12" lengthAdjust="spacing" textLength="93" x="1312.5" y="713.1543">FileInputStream</text><line style="stroke:#A80036;stroke-width:1.5;" x1="1284.5" x2="1407.5" y1="725" y2="725"/><line style="stroke:#A80036;stroke-width:1.5;" x1="1284.5" x2="1407.5" y1="733" y2="733"/><!--MD5=[adfae61f9be72ccc27c312cb4b79c428]
reverse link WrongObjectException to Exception--><path codeLine="156" d="M1529,761.617 C1529,793.858 1529,836.491 1529,862.408 " fill="none" id="WrongObjectException-backto-Exception" style="stroke:#A80036;stroke-width:1.0;"/><polygon fill="none" points="1522,761.29,1529,741.29,1536,761.29,1522,761.29" style="stroke:#A80036;stroke-width:1.0;"/><!--MD5=[5a606f631df89c29aefc83cffd3e684f]
reverse link SupplierBoard to BoardData--><path codeLine="159" d="M980.055,442.379 C1012.56,465.492 1055.4,495.947 1089.8,520.408 " fill="none" id="SupplierBoard-backto-BoardData" style="stroke:#A80036;stroke-width:1.0;"/><polygon fill="none" points="975.88,447.999,963.637,430.705,983.993,436.59,975.88,447.999" style="stroke:#A80036;stroke-width:1.0;"/><!--MD5=[02566878d156b7b46d29f33e08f92019]
reverse link ClientBoard to BoardData--><path codeLine="160" d="M656.706,421.123 C744.895,438.882 899.808,472.615 1029,514 C1035.21,515.988 1041.55,518.148 1047.91,520.415 " fill="none" id="ClientBoard-backto-BoardData" style="stroke:#A80036;stroke-width:1.0;"/><polygon fill="none" points="655.077,427.936,636.829,417.164,657.812,414.206,655.077,427.936" style="stroke:#A80036;stroke-width:1.0;"/><!--MD5=[eee2400a5be305fc9b768bd82ffa895e]
reverse link ClientBoard to Polygon--><path codeLine="161" d="M522.721,430.742 C453.711,456.09 342.392,496.977 262.051,526.486 " fill="none" id="ClientBoard-backto-Polygon" style="stroke:#A80036;stroke-width:1.0;"/><polygon fill="#A80036" points="535.097,426.197,528.0857,424.5113,523.833,430.335,530.8443,432.0206,535.097,426.197" style="stroke:#A80036;stroke-width:1.0;"/><text fill="#000000" font-family="sans-serif" font-size="13" lengthAdjust="spacing" textLength="39" x="414" y="480.0669">shape</text><text fill="#000000" font-family="sans-serif" font-size="13" lengthAdjust="spacing" textLength="8" x="519.3763" y="424.9884">1</text><text fill="#000000" font-family="sans-serif" font-size="13" lengthAdjust="spacing" textLength="8" x="271.3917" y="515.3939">1</text><!--MD5=[e17ad64b92dc2bc29074947a1e99fa43]
reverse link Wood to Color--><path codeLine="162" d="M1149,767.424 C1149,789.326 1149,815.015 1149,836.829 " fill="none" id="Wood-backto-Color" style="stroke:#A80036;stroke-width:1.0;"/><polygon fill="#A80036" points="1149,754.345,1145,760.345,1149,766.345,1153,760.345,1149,754.345" style="stroke:#A80036;stroke-width:1.0;"/><text fill="#000000" font-family="sans-serif" font-size="13" lengthAdjust="spacing" textLength="31" x="1150" y="803.0669">color</text><text fill="#000000" font-family="sans-serif" font-size="13" lengthAdjust="spacing" textLength="8" x="1140.3625" y="773.6008">1</text><text fill="#000000" font-family="sans-serif" font-size="13" lengthAdjust="spacing" textLength="8" x="1140.4375" y="825.8502">1</text><!--MD5=[7b9556799d99ac19cd4f14c248f2b58d]
reverse link Price to Validable--><path codeLine="164" d="M881.566,613.956 C853.308,637.873 820.334,665.782 796.019,686.361 " fill="none" id="Price-backto-Validable" style="stroke:#A80036;stroke-width:1.0;"/><polygon fill="none" points="877.337,608.366,897.125,600.788,886.381,619.052,877.337,608.366" style="stroke:#A80036;stroke-width:1.0;"/><!--MD5=[6f936e8a88a5c961671672793e8350fd]
reverse link Date to Validable--><path codeLine="165" d="M761,633.396 C761,651.988 761,671.135 761,686.308 " fill="none" id="Date-backto-Validable" style="stroke:#A80036;stroke-width:1.0;"/><polygon fill="none" points="754,633.27,761,613.269,768,633.269,754,633.27" style="stroke:#A80036;stroke-width:1.0;"/><!--MD5=[a4f3e76ed76b44d5cee9b00754e2a839]
reverse link Dimension to Validable--><path codeLine="166" d="M484.534,609.477 C487.041,610.685 489.533,611.862 492,613 C557.273,643.119 634.059,671.889 688.848,691.329 " fill="none" id="Dimension-backto-Validable" style="stroke:#A80036;stroke-width:1.0;"/><polygon fill="none" points="481.387,615.73,466.648,600.506,487.663,603.216,481.387,615.73" style="stroke:#A80036;stroke-width:1.0;"/><!--MD5=[a210df94719bb343cec51e52730ccc52]
reverse link Amount to Validable--><path codeLine="167" d="M640.434,613.956 C668.692,637.873 701.666,665.782 725.981,686.361 " fill="none" id="Amount-backto-Validable" style="stroke:#A80036;stroke-width:1.0;"/><polygon fill="none" points="635.619,619.052,624.875,600.788,644.663,608.366,635.619,619.052" style="stroke:#A80036;stroke-width:1.0;"/><!--MD5=[610e4135d05a45b151040462edb5f6c1]
reverse link BoardData to Validable--><path codeLine="169" d="M1034.81,610.706 C1032.86,611.478 1030.92,612.243 1029,613 C962.803,639.096 887.1,668.115 833.076,688.683 " fill="none" id="BoardData-backto-Validable" style="stroke:#A80036;stroke-width:1.0;"/><polygon fill="#A80036" points="1046.92,605.895,1039.8671,604.393,1035.7679,610.3258,1042.8209,611.8277,1046.92,605.895" style="stroke:#A80036;stroke-width:1.0;"/><text fill="#000000" font-family="sans-serif" font-size="13" lengthAdjust="spacing" textLength="8" x="1031.1298" y="605.5142">1</text><text fill="#000000" font-family="sans-serif" font-size="13" lengthAdjust="spacing" textLength="7" x="840.8698" y="682.0732">*</text><!--MD5=[61f9f432fc10452c04d37d5497ba643f]
reverse link BoardData to Wood--><path codeLine="170" d="M1149,626.813 C1149,644.897 1149,664.037 1149,679.93 " fill="none" id="BoardData-backto-Wood" style="stroke:#A80036;stroke-width:1.0;"/><polygon fill="none" points="1142,626.701,1149,606.701,1156,626.701,1142,626.701" style="stroke:#A80036;stroke-width:1.0;"/><!--MD5=[d05aa3f1b8c5742278373ef6041a1e47]
reverse link Polygon to Point--><path codeLine="172" d="M164,614.001 C164,633.335 164,655.273 164,673.836 " fill="none" id="Polygon-backto-Point" style="stroke:#A80036;stroke-width:1.0;"/><polygon fill="#A80036" points="164,600.788,160,606.788,164,612.788,168,606.788,164,600.788" style="stroke:#A80036;stroke-width:1.0;"/><text fill="#000000" font-family="sans-serif" font-size="13" lengthAdjust="spacing" textLength="8" x="155.3375" y="620.3163">1</text><text fill="#000000" font-family="sans-serif" font-size="13" lengthAdjust="spacing" textLength="7" x="156.4422" y="662.8059">*</text><!--MD5=[79f8cd0143a5b13e1c0ba3b5d1c437d5]
reverse link Rectangle to Polygon--><path codeLine="173" d="M124.683,449.645 C133.059,473.688 143.448,503.508 151.443,526.456 " fill="none" id="Rectangle-backto-Polygon" style="stroke:#A80036;stroke-width:1.0;"/><polygon fill="none" points="118.054,451.895,118.084,430.705,131.275,447.289,118.054,451.895" style="stroke:#A80036;stroke-width:1.0;"/><!--MD5=[2414bade341e7bcb897f767689edc1fb]
reverse link AnyPolygon to Polygon--><path codeLine="174" d="M220.423,448.922 C208.418,473.087 193.42,503.277 181.906,526.456 " fill="none" id="AnyPolygon-backto-Polygon" style="stroke:#A80036;stroke-width:1.0;"/><polygon fill="none" points="214.305,445.502,229.472,430.705,226.843,451.731,214.305,445.502" style="stroke:#A80036;stroke-width:1.0;"/><!--MD5=[d8c2b540b2a8e3860d57ac40c96030fa]
reverse link Actor to BoardData--><path codeLine="177" d="M1141.03,450.245 C1142.58,472.045 1144.46,498.471 1146,520.206 " fill="none" id="Actor-backto-BoardData" style="stroke:#A80036;stroke-width:1.0;"/><polygon fill="#A80036" points="1140.09,437.019,1136.5257,443.2876,1140.9412,448.9888,1144.5055,442.7201,1140.09,437.019" style="stroke:#A80036;stroke-width:1.0;"/><text fill="#000000" font-family="sans-serif" font-size="13" lengthAdjust="spacing" textLength="8" x="1131.6961" y="456.9612">1</text><text fill="#000000" font-family="sans-serif" font-size="13" lengthAdjust="spacing" textLength="7" x="1138.0047" y="509.4735">*</text><!--MD5=[5d9b68ac41569ce47fb5b19db7e57854]
reverse link Client to Actor--><path codeLine="179" d="M1138,298.088 C1138,323.639 1138,353.941 1138,375.835 " fill="none" id="Client-backto-Actor" style="stroke:#A80036;stroke-width:1.0;"/><polygon fill="none" points="1131,298.031,1138,278.03,1145,298.03,1131,298.031" style="stroke:#A80036;stroke-width:1.0;"/><!--MD5=[1d5e8bb9ed334eed2cd9d215d1aabe53]
reverse link Supplier to Actor--><path codeLine="180" d="M991.602,290.578 C1025.89,317.495 1069.53,351.752 1100.21,375.835 " fill="none" id="Supplier-backto-Actor" style="stroke:#A80036;stroke-width:1.0;"/><polygon fill="none" points="987.028,295.886,975.618,278.03,995.673,284.874,987.028,295.886" style="stroke:#A80036;stroke-width:1.0;"/><!--MD5=[3f41f903522af6f21d7b79f197ba1b44]
reverse link ClientsList to Client--><path codeLine="182" d="M1148.27,146.977 C1145.83,170.602 1143.09,197.204 1141.05,216.958 " fill="none" id="ClientsList-backto-Client" style="stroke:#A80036;stroke-width:1.0;"/><polygon fill="#A80036" points="1149.63,133.854,1145.0346,139.4112,1148.3968,145.7905,1152.9922,140.2333,1149.63,133.854" style="stroke:#A80036;stroke-width:1.0;"/><text fill="#000000" font-family="sans-serif" font-size="13" lengthAdjust="spacing" textLength="8" x="1140.296" y="154.0033">1</text><text fill="#000000" font-family="sans-serif" font-size="13" lengthAdjust="spacing" textLength="7" x="1133.9516" y="205.7391">*</text><!--MD5=[e81457448a2e24928bb74ed5666a193d]
reverse link SuppliersList to Supplier--><path codeLine="183" d="M772.986,146.978 C814.913,172.265 862.497,200.963 895.757,221.023 " fill="none" id="SuppliersList-backto-Supplier" style="stroke:#A80036;stroke-width:1.0;"/><polygon fill="#A80036" points="761.611,140.118,764.6831,146.642,771.8868,146.3154,768.8147,139.7914,761.611,140.118" style="stroke:#A80036;stroke-width:1.0;"/><text fill="#000000" font-family="sans-serif" font-size="13" lengthAdjust="spacing" textLength="8" x="764.3844" y="160.2111">1</text><text fill="#000000" font-family="sans-serif" font-size="13" lengthAdjust="spacing" textLength="7" x="880.8949" y="212.2783">*</text><!--MD5=[b885b8e9f9525039fce0dfe7c3b3eb60]
reverse link XMLWriter to Writer--><path codeLine="185" d="M2180.92,455.194 C2168.66,480.53 2153.98,510.88 2143.36,532.827 " fill="none" id="XMLWriter-backto-Writer" style="stroke:#A80036;stroke-width:1.0;"/><polygon fill="none" points="2174.7,451.973,2189.72,437.019,2187.31,458.071,2174.7,451.973" style="stroke:#A80036;stroke-width:1.0;"/><!--MD5=[e7bde7d4bf2b882a53401a6a3065a047]
reverse link SVGWriter to Writer--><path codeLine="186" d="M2293.11,448.435 C2254.95,474.956 2206.13,508.889 2171.69,532.827 " fill="none" id="SVGWriter-backto-Writer" style="stroke:#A80036;stroke-width:1.0;"/><polygon fill="none" points="2289.11,442.686,2309.53,437.019,2297.1,454.182,2289.11,442.686" style="stroke:#A80036;stroke-width:1.0;"/><!--MD5=[baa55a2e80261b2d1c890ca1c871d40c]
reverse link JSONWriter to Writer--><path codeLine="187" d="M2078.46,455.194 C2090.39,480.53 2104.69,510.88 2115.03,532.827 " fill="none" id="JSONWriter-backto-Writer" style="stroke:#A80036;stroke-width:1.0;"/><polygon fill="none" points="2072.09,458.095,2069.9,437.019,2084.76,452.13,2072.09,458.095" style="stroke:#A80036;stroke-width:1.0;"/><!--MD5=[c7c3d176ef042a586772104231f37acd]
reverse link XMLReader to Reader--><path codeLine="189" d="M1653.16,450.415 C1622.72,476.628 1584.57,509.481 1557.46,532.827 " fill="none" id="XMLReader-backto-Reader" style="stroke:#A80036;stroke-width:1.0;"/><polygon fill="none" points="1649,444.765,1668.72,437.019,1658.13,455.374,1649,444.765" style="stroke:#A80036;stroke-width:1.0;"/><!--MD5=[83039aab9e136a4459c367fc9b66b694]
reverse link SVGReader to Reader--><path codeLine="190" d="M1800.64,444.919 C1736.83,471.945 1651.82,507.944 1592.75,532.959 " fill="none" id="SVGReader-backto-Reader" style="stroke:#A80036;stroke-width:1.0;"/><polygon fill="none" points="1798.15,438.373,1819.3,437.019,1803.61,451.264,1798.15,438.373" style="stroke:#A80036;stroke-width:1.0;"/><!--MD5=[907d450f87d8619b444ad6932b57d471]
reverse link JSONReader to Reader--><path codeLine="191" d="M1518.92,457.066 C1519.88,482.013 1521.02,511.418 1521.85,532.827 " fill="none" id="JSONReader-backto-Reader" style="stroke:#A80036;stroke-width:1.0;"/><polygon fill="none" points="1511.92,457.275,1518.14,437.019,1525.91,456.733,1511.92,457.275" style="stroke:#A80036;stroke-width:1.0;"/><!--MD5=[bb36b3df2d0dfa4c831eb74ddec30c71]
reverse link Reader to WrongObjectException--><path codeLine="193" d="M1524.38,599.3 C1525.52,628.04 1527.1,668.024 1528.09,692.939 " fill="none" id="Reader-backto-WrongObjectException" style="stroke:#A80036;stroke-width:1.0;stroke-dasharray:7.0,7.0;"/><polygon fill="#A80036" points="1524.17,594.07,1520.5303,603.2216,1524.3684,599.0661,1528.524,602.9042,1524.17,594.07" style="stroke:#A80036;stroke-width:1.0;"/><!--MD5=[a3640d689473992a8991427ef2b4fe76]
reverse link Reader to FileInputStream--><path codeLine="194" d="M1478.53,602.565 C1445.3,631.005 1400.96,668.954 1372.94,692.939 " fill="none" id="Reader-backto-FileInputStream" style="stroke:#A80036;stroke-width:1.0;"/><polygon fill="#A80036" points="1488.45,594.07,1481.2902,594.9285,1479.3289,601.8678,1486.4887,601.0093,1488.45,594.07" style="stroke:#A80036;stroke-width:1.0;"/><text fill="#000000" font-family="sans-serif" font-size="13" lengthAdjust="spacing" textLength="8" x="1472.4991" y="614.0227">1</text><text fill="#000000" font-family="sans-serif" font-size="13" lengthAdjust="spacing" textLength="8" x="1370.8184" y="681.9354">1</text><!--MD5=[420094e7a4dff91709ba3eeed8460224]
reverse link Cut to Supplier--><path codeLine="198" d="M938,141.164 C938,166.11 938,195.493 938,216.879 " fill="none" id="Cut-backto-Supplier" style="stroke:#A80036;stroke-width:1.0;"/><polygon fill="#A80036" points="938,127.841,934,133.841,938,139.841,942,133.841,938,127.841" style="stroke:#A80036;stroke-width:1.0;"/><text fill="#000000" font-family="sans-serif" font-size="13" lengthAdjust="spacing" textLength="50" x="939" y="183.0669">supplier</text><text fill="#000000" font-family="sans-serif" font-size="13" lengthAdjust="spacing" textLength="8" x="929.3625" y="147.0961">1</text><text fill="#000000" font-family="sans-serif" font-size="13" lengthAdjust="spacing" textLength="8" x="929.175" y="206.1173">1</text><!--MD5=[3782c2c904b2131fbb5482a2ee1c80ac]
reverse link Cut to Client--><path codeLine="199" d="M995.212,135.84 C1028.71,161.801 1070.1,193.88 1099.68,216.804 " fill="none" id="Cut-backto-Client" style="stroke:#A80036;stroke-width:1.0;"/><polygon fill="#A80036" points="984.639,127.645,986.9315,134.482,994.1243,134.9954,991.8318,128.1584,984.639,127.645" style="stroke:#A80036;stroke-width:1.0;"/><text fill="#000000" font-family="sans-serif" font-size="13" lengthAdjust="spacing" textLength="34" x="1057" y="183.0669">client</text><text fill="#000000" font-family="sans-serif" font-size="13" lengthAdjust="spacing" textLength="8" x="983.7011" y="147.1496">1</text><text fill="#000000" font-family="sans-serif" font-size="13" lengthAdjust="spacing" textLength="8" x="1082.9515" y="206.0268">1</text><!--MD5=[9f5e61a96103df60e11bfe20ed0fda59]
reverse link Cut to Writer--><path codeLine="200" d="M1025.93,133.291 C1097.92,167.638 1189.16,211.514 1197,217 C1312.12,297.54 1298.93,373.002 1424,437 C1644.24,549.694 1948.08,563.019 2072.47,563.366 " fill="none" id="Cut-backto-Writer" style="stroke:#A80036;stroke-width:1.0;"/><polygon fill="#A80036" points="1014.1,127.652,1017.7922,133.8462,1024.9299,132.8204,1021.2378,126.6262,1014.1,127.652" style="stroke:#A80036;stroke-width:1.0;"/><text fill="#000000" font-family="sans-serif" font-size="13" lengthAdjust="spacing" textLength="37" x="1302" y="321.0669">writer</text><text fill="#000000" font-family="sans-serif" font-size="13" lengthAdjust="spacing" textLength="8" x="1018.0416" y="147.1577">1</text><text fill="#000000" font-family="sans-serif" font-size="13" lengthAdjust="spacing" textLength="8" x="2056.3363" y="559.4291">1</text><!--MD5=[fffcbcae2760f379c894a5fb00e58664]
reverse link Actor to Reader--><path codeLine="202" d="M1197.06,443.625 C1221.02,457.378 1249.3,472.493 1276,484 C1331.89,508.087 1397.66,528.634 1447.28,542.658 " fill="none" id="Actor-backto-Reader" style="stroke:#A80036;stroke-width:1.0;"/><polygon fill="#A80036" points="1185.67,437.005,1188.8489,443.4776,1196.0463,443.0327,1192.8674,436.5601,1185.67,437.005" style="stroke:#A80036;stroke-width:1.0;"/><text fill="#000000" font-family="sans-serif" font-size="13" lengthAdjust="spacing" textLength="42" x="1277" y="480.0669">reader</text><text fill="#000000" font-family="sans-serif" font-size="13" lengthAdjust="spacing" textLength="8" x="1186.6769" y="456.9443">1</text><text fill="#000000" font-family="sans-serif" font-size="13" lengthAdjust="spacing" textLength="8" x="1431.4326" y="536.9511">1</text><!--MD5=[2fdbcfbf55d5731745e602a64f3aa707]
@startuml
package boards #DDDDDD{
	interface Validable{
		public boolean isValid()
	}

	class Price{
		private int value
		public boolean isValid()
	}
	
	class Amount{
		Private int value
		public boolean isValid()
	}

	class Dimension{
		private int value
		public boolean isValid()
	}

	abstract Polygon{
		private ArrayList<Point> points
		public boolean fitsInBoard(BoardData board)
	}
	
	class AnyPolygon{
		
	}
	
	class Rectangle{
		
	}

	class Point{
		private int x
		private int y
		public boolean isInBoard(BoardData board)
	}

	class Color{
		private int r
		private int g
		private int b
		private String name
	}

	class Date{
		private int day
		private int month
		private int year
		public boolean isValid()
	}

	abstract BoardData{
		private int id
		private ArrayList<Validable> listV
		public boolean allValid()
	}

	class SupplierBoard{

	}

	class ClientBoard{
		
	}

	class Wood{
		private int durability
		private String origin
	}

	abstract Actor{
		private ArrayList<BoardData> boards
	}

	class Client{
		private int id
	}
	
	class Supplier{
		private int id
	}
	
	class ClientsList{
		private ArrayList<Actor> clients
		public void loadClients()
		public Client getNextClient()
	}

	class SuppliersList{
		private ArrayList<Actor> suppliers
		public boolean findValidForClient(Client client)
		public void loadSuppliers()
		public void removeSupplier(Supplier supplier)
	}

	class Cut{
		public boolean isCutValid()
		public void export(Writer w)
	}


}



package utils #DDDDDD{

	interface Reader{
		public void read(Actor a)
	}
	
	interface Writer{
		public void write()
	}
	
	class SVGWriter{
		
		public void write()
	}
	
	class XMLWriter{
		
		public void write()
	}
	
	class JSONWriter{
		
		public void write()
	}
	
	class SVGReader{
		
		public void read(Actor a)
	}
	
	class XMLReader{
		
		public void read(Actor a)
	}
	
	class JSONReader{
		
		public void read(Actor a)
	}
	
	class WrongObjectException
	
}

class Exception

class FileInputStream

WrongObjectException <|- - Exception


SupplierBoard <|- -        BoardData
ClientBoard   <|- -        BoardData
ClientBoard   "1" *- - "1" Polygon : shape
Wood          "1" *- - "1" Color : color

Price     <|- - Validable
Date      <|- - Validable
Dimension <|- - Validable
Amount    <|- - Validable

BoardData "1" *- - "*" Validable
BoardData <|- -        Wood

Polygon    "1" *- - "*" Point
Rectangle  <|- -        Polygon
AnyPolygon <|- -        Polygon


Actor "1" *- - "*" BoardData

Client   <|- - Actor
Supplier <|- - Actor

ClientsList   "1" *- - "*" Client
SuppliersList "1" *- - "*" Supplier

XMLWriter  <|- - Writer
SVGWriter  <|- - Writer
JSONWriter <|- - Writer

XMLReader  <|- - Reader
SVGReader  <|- - Reader
JSONReader <|- - Reader

Reader <..         WrongObjectException
Reader "1" *- - "1" FileInputStream 


 
Cut "1" *- - "1" Supplier : supplier
Cut "1" *- - "1" Client : client
Cut "1" *- - "1" Writer : writer

Actor "1" *- - "1" Reader : reader
@enduml

PlantUML version 1.2021.14beta6(Unknown compile time)
(GPL source distribution)
Java Runtime: Java(TM) SE Runtime Environment
JVM: Java HotSpot(TM) 64-Bit Server VM
Default Encoding: UTF-8
Language: en
Country: US
--></g></svg>